<?xml version="1.0" encoding="UTF-8"?>
<!DOCTYPE svg PUBLIC "-//W3C//DTD SVG 1.1//EN" "http://www.w3.org/Graphics/SVG/1.1/DTD/svg11.dtd">
<!-- Creator: CorelDRAW X7 -->
<svg xmlns="http://www.w3.org/2000/svg" xml:space="preserve" width="82.9054mm" height="14.4334mm" version="1.1" style="shape-rendering:geometricPrecision; text-rendering:geometricPrecision; image-rendering:optimizeQuality; fill-rule:evenodd; clip-rule:evenodd"
viewBox="0 0 9788 1704"
 xmlns:xlink="http://www.w3.org/1999/xlink">
 <defs>
  <style type="text/css">
   <![CDATA[
    .fil0 {fill:#FEFEFE}
   ]]>
  </style>
 </defs>
 <g id="Layer_x0020_1">
  <metadata id="CorelCorpID_0Corel-Layer"/>
  <g id="_1616629271184">
   <path class="fil0" d="M352 331c80,0 224,-7 294,8 84,18 123,84 121,183 -5,228 -221,183 -415,186l0 272c219,3 458,-42 464,216 6,275 -235,220 -464,223l0 276c111,2 341,6 440,-18 121,-28 200,-114 244,-219 49,-118 69,-260 27,-393 -61,-198 -185,-212 -219,-244 73,-37 138,-129 164,-235 32,-125 11,-240 -42,-339 -113,-214 -330,-192 -614,-188l0 272z"/>
   <path class="fil0" d="M4067 649c84,-7 276,-7 356,4 109,15 178,70 179,185 1,114 -73,177 -181,188 -85,9 -268,8 -356,2l2 -379zm-2 -467c53,-9 213,-4 274,-2 89,4 159,16 194,77 38,64 25,169 -20,210 -49,43 -138,49 -221,49l-227 -2 0 -332zm496 381c1,-1 2,-3 3,-3l18 -12c168,-110 147,-336 2,-441 -77,-55 -195,-59 -304,-59 -114,0 -249,-7 -362,1l0 1111c123,9 282,1 409,1 183,-1 341,-30 406,-205 19,-51 26,-116 16,-176 -16,-85 -60,-138 -126,-179 -22,-13 -47,-19 -69,-32l7 -6z"/>
   <path class="fil0" d="M5106 170c123,0 267,-7 387,1 115,8 203,67 200,186 -2,58 -33,109 -62,131 -101,79 -376,51 -525,51l0 -6 0 -363zm-147 991l147 0 0 -495c363,0 318,-8 536,323 19,28 97,162 116,172l174 0c-28,-64 -218,-346 -267,-406 -44,-55 -63,-57 -127,-101 102,-31 209,-35 277,-170 61,-121 23,-260 -47,-342 -78,-90 -206,-94 -356,-94 -151,0 -301,0 -452,0l-1 1113z"/>
   <polygon class="fil0" points="0,1695 260,1695 260,82 259,59 0,59 "/>
   <path class="fil0" d="M7832 802c11,280 250,411 549,373 324,-43 414,-349 258,-521 -162,-178 -594,-115 -622,-303 -32,-212 324,-234 450,-134 60,48 60,124 76,155l135 -10c16,-270 -316,-388 -575,-310 -276,83 -315,407 -61,532 166,82 438,82 508,195 35,57 25,123 -9,174 -90,130 -534,172 -571,-163l-138 12z"/>
   <polygon class="fil0" points="8919,1160 9066,1161 9066,638 9641,637 9641,1160 9788,1161 9788,48 9642,48 9641,505 9066,505 9066,48 8920,48 "/>
   <path class="fil0" d="M3453 1704c0,-26 -446,-1614 -457,-1632l-223 0c-2,36 94,351 110,411 27,101 312,1168 333,1221l237 0z"/>
   <polygon class="fil0" points="2306,1694 1847,63 1619,63 2063,1694 "/>
   <path class="fil0" d="M2722 1055c15,-84 103,-378 104,-416 1,-18 -96,-380 -111,-407 -3,4 -1,-1 -7,13l-22 78c-106,396 -223,804 -326,1199 -11,45 -45,144 -47,182l242 0 96 -372 367 0 -76 -275 -220 -2z"/>
   <path class="fil0" d="M1573 1047c0,-53 102,-377 102,-420l-110 -412c-23,41 -85,303 -104,372 -35,123 -67,246 -101,369l-150 553c-17,60 -37,125 -49,185l234 0c16,-4 25,-62 33,-90 16,-61 58,-249 73,-281l362 0c1,-27 -26,-112 -35,-143l-28 -107c-7,-24 -1,-17 -17,-26l-210 0z"/>
   <polygon class="fil0" points="6423,178 6787,180 6787,1158 6934,1161 6934,179 7297,179 7299,49 6423,48 "/>
   <polygon class="fil0" points="6099,1161 6246,1161 6246,70 6245,48 6099,48 "/>
   <polygon class="fil0" points="7475,1161 7599,1161 7622,1160 7621,48 7476,48 7475,70 "/>
   <polygon class="fil0" points="3639,1692 3707,1693 3706,0 3638,3 "/>
   <path class="fil0" d="M4462 1689c19,-10 21,-46 32,-86 9,-30 15,-57 24,-87 17,-60 32,-120 48,-179l-46 -1 -71 295c-11,-26 -29,-119 -39,-154 -6,-25 -14,-49 -21,-74 -21,-78 -9,-68 -74,-67l-82 285 -70 -285 -45 0 91 353 49 -1 85 -305 82 306 37 0z"/>
   <path class="fil0" d="M4962 1374c62,0 181,-21 182,57 2,80 -119,60 -185,60l3 -117zm151 151c3,-2 9,-4 13,-5 91,-33 73,-126 38,-158 -42,-40 -182,-27 -251,-27l0 354 46 -2 2 -155c78,0 95,-6 132,47 24,34 48,72 68,109l58 0c-10,-23 -39,-65 -54,-87 -24,-37 -28,-50 -65,-69l13 -7z"/>
   <path class="fil0" d="M9558 1416c18,18 78,115 93,138l87 135 50 0 0 -354 -45 0 -1 274 -138 -207c-49,-75 -33,-69 -91,-64l0 349 45 1 0 -272z"/>
   <path class="fil0" d="M5793 1417l14 17c3,4 8,11 12,18l67 102c25,35 72,101 87,135l50 0 0 -354 -45 0 -1 273 -137 -206c-50,-77 -39,-68 -92,-65l0 351 44 0 1 -271z"/>
   <path class="fil0" d="M5309 1380c37,-8 119,-7 147,12 64,41 111,300 -147,253l0 -265zm-46 309c130,0 287,29 288,-176 2,-208 -154,-178 -288,-178l0 354z"/>
   <path class="fil0" d="M6364 1620c-51,22 -92,53 -164,19 -46,-22 -70,-73 -65,-143 4,-60 35,-110 88,-122 73,-18 125,13 138,72l41 -15c-18,-80 -95,-119 -189,-97 -162,39 -168,287 -24,346 108,44 174,-17 221,-38l-2 -133 -146 0 4 41 98 0 0 70z"/>
   <path class="fil0" d="M7823 1554c-28,156 -271,134 -231,-84 30,-160 271,-130 231,84zm-280 -6c33,218 362,192 329,-69 -28,-225 -368,-194 -329,69z"/>
   <path class="fil0" d="M9252 1376c173,-59 211,234 73,273 -81,23 -141,-31 -152,-97 -16,-89 13,-154 79,-176zm201 172c40,-254 -292,-298 -327,-75 -42,260 292,300 327,75z"/>
   <path class="fil0" d="M7221 1575c-18,59 55,131 166,118 81,-9 144,-95 84,-163 -50,-56 -188,-41 -196,-100 -7,-49 43,-62 90,-59 57,4 54,26 76,66l40 -2c1,-86 -94,-126 -181,-98 -86,27 -97,131 -17,169 46,21 223,36 154,120 -27,31 -159,58 -177,-55l-39 4z"/>
   <path class="fil0" d="M6895 1577c-6,86 86,129 175,115 78,-12 137,-99 74,-164 -52,-55 -187,-40 -193,-99 -6,-45 43,-60 85,-58 64,3 58,27 82,67l39 -4c0,-85 -94,-125 -180,-98 -85,27 -101,129 -16,170 48,23 216,34 152,118 -21,28 -72,35 -112,24 -40,-11 -58,-33 -65,-77l-41 6z"/>
   <path class="fil0" d="M8538 1380l58 164 -115 -3 57 -161zm-118 309c20,-12 39,-85 44,-108l149 1 39 107 52 0c-21,-68 -77,-192 -107,-271 -36,-92 -21,-83 -84,-82l-132 351 39 2z"/>
   <path class="fil0" d="M3948 1427c4,-11 8,-35 18,-42l57 159 -116 -3 41 -114zm-102 262c20,-12 39,-85 45,-108l149 1 38 107 53 0c-21,-67 -78,-193 -108,-271 -36,-92 -21,-83 -84,-82l-132 351 39 2z"/>
   <path class="fil0" d="M6704 1378l59 165 -116 0 57 -165zm-73 204l149 0 39 107 52 -2 -140 -351 -52 0 -132 353 48 -1 36 -106z"/>
   <path class="fil0" d="M4706 1382c15,17 25,58 34,81 10,25 22,55 28,80l-116 0 54 -161zm-70 199l149 1 39 107 52 -3 -108 -268c-38,-93 -22,-83 -84,-82l-132 351 49 0 35 -106z"/>
   <path class="fil0" d="M8186 1566c-19,22 -17,45 -44,67 -21,18 -51,25 -84,19 -120,-20 -120,-237 -20,-275 102,-40 135,56 142,65l39 -11c-24,-147 -313,-151 -300,94 12,227 279,211 307,51l-40 -10z"/>
   <polygon class="fil0" points="8794,1689 8840,1686 8840,1377 8954,1377 8955,1335 8678,1336 8679,1377 8794,1379 "/>
   <polygon class="fil0" points="8290,1689 8315,1689 8336,1687 8336,1337 8315,1335 8290,1335 "/>
   <polygon class="fil0" points="5621,1689 5647,1689 5667,1686 5667,1338 5647,1335 5621,1335 "/>
   <polygon class="fil0" points="9009,1687 9055,1689 9055,1335 9030,1335 9009,1339 "/>
  </g>
 </g>
</svg>
