<?xml version="1.0" encoding="UTF-8"?>
<!DOCTYPE svg PUBLIC "-//W3C//DTD SVG 1.1//EN" "http://www.w3.org/Graphics/SVG/1.1/DTD/svg11.dtd">
<!-- Creator: CorelDRAW X7 -->
<svg xmlns="http://www.w3.org/2000/svg" xml:space="preserve" width="91.7916mm" height="50.3373mm" version="1.1" style="shape-rendering:geometricPrecision; text-rendering:geometricPrecision; image-rendering:optimizeQuality; fill-rule:evenodd; clip-rule:evenodd"
viewBox="0 0 7285 3995"
 xmlns:xlink="http://www.w3.org/1999/xlink">
 <defs>
  <style type="text/css">
   <![CDATA[
    .fil0 {fill:#FEFEFE}
   ]]>
  </style>
 </defs>
 <g id="Layer_x0020_1">
  <metadata id="CorelCorpID_0Corel-Layer"/>
  <g id="_1616628513888">
   <path class="fil0" d="M4230 1859c118,-28 254,26 326,82 199,153 239,521 -27,697 -245,162 -565,1 -627,-285 -27,-126 15,-248 74,-333 63,-90 149,-137 254,-161zm-3473 108c18,79 180,75 156,-38 -7,-36 -53,-68 -101,-58 -33,7 -66,50 -55,96zm3523 231c33,-13 68,20 80,39 23,35 4,76 -22,86 -80,33 -144,-93 -58,-125zm-318 108c29,191 169,348 385,342 323,-10 431,-429 201,-635 -39,-36 -52,-49 -111,-73 -42,-17 -99,-34 -150,-31 -49,4 -106,20 -146,39 -116,58 -202,207 -179,358zm-3262 188c-7,-23 69,-243 86,-290 15,-39 21,-84 43,-93 11,73 3,187 10,270 2,30 24,113 -5,124 -21,7 -120,-4 -134,-11zm198 -384c30,12 65,103 109,162 19,26 35,52 55,80 14,20 50,64 51,88 -22,12 -83,37 -111,43 -38,10 -41,-40 -52,-100 -9,-45 -19,-89 -27,-132 -8,-41 -25,-101 -25,-141zm-464 244c7,-16 61,-62 74,-74 31,-28 206,-204 228,-210l-122 248c-11,24 -45,111 -71,113 -20,1 -100,-61 -109,-77zm521 -320c38,1 307,159 377,186 -1,19 -30,46 -48,67 -17,20 -35,49 -57,60 -33,-12 -89,-93 -107,-112l-68 -77c-22,-28 -95,-92 -97,-124zm-286 -26c-25,29 -157,107 -226,165 -20,17 -29,20 -47,34 -46,34 -56,63 -86,4 -57,-111 -42,-90 111,-134 44,-13 218,-72 248,-69zm338 -47c23,-13 262,-39 309,-46 54,-7 110,-31 103,46 -3,38 -22,106 -31,147 -26,4 -160,-54 -194,-67l-168 -63c-19,-9 -18,-16 -19,-17zm-208 -129c142,-34 196,180 71,212 -93,24 -186,-74 -136,-167 13,-26 35,-38 65,-45zm-130 86c-64,24 -223,40 -303,53 -102,16 -129,35 -129,-20 0,-36 5,-132 16,-160 30,-4 177,45 218,57 27,8 192,51 198,70zm-360 -254c-1,-20 5,-25 14,-37 61,-83 73,-140 119,-81 47,61 231,257 232,271 -12,-2 -28,-16 -39,-22 -48,-31 -283,-101 -326,-131zm610 153c4,-32 51,-115 67,-146 136,-270 94,-286 219,-182 67,56 106,20 -110,196 -33,27 -148,127 -176,132zm-389 -388c27,-23 80,-57 132,-50 16,39 101,367 93,396 -26,-28 -34,-50 -57,-80 -23,-30 -38,-59 -58,-88 -16,-24 -110,-152 -110,-178zm293 290c0,-108 -29,-293 -27,-339 1,-30 11,-32 38,-30 164,7 158,16 112,116l-68 224c-17,57 -15,85 -46,96 -11,-26 -9,-37 -9,-67zm-55 -412c-178,25 -300,72 -417,208 -54,63 -86,115 -116,197 -160,446 194,875 658,836 179,-15 304,-92 409,-216 54,-65 92,-105 123,-190 61,-167 42,-360 -44,-513 -29,-52 -93,-139 -139,-173 -66,-48 -115,-83 -197,-114 -77,-29 -188,-48 -277,-35zm5965 1029l-67 -210 122 75 -42 148 -13 -13zm-129 -435l7 41c1,0 2,0 3,0l19 40 2 1 271 144 2 56c-58,191 -146,253 -138,292 3,14 24,52 29,63 16,34 53,95 42,137 -23,11 -67,8 -98,4 -46,-5 -54,-5 -63,-50 -5,-24 -13,-68 -20,-88 -13,-30 -50,-20 -78,-31 -20,-18 18,-72 4,-148 -4,-28 -22,-117 -39,-131 -31,21 -51,85 -44,132 6,42 36,116 34,153 -27,3 -123,22 -139,-8 -23,-42 35,-8 -10,-140 -25,-74 -11,-77 20,-132 20,-37 37,-76 61,-116 25,-41 67,-59 14,-111 -27,-27 -54,-74 -102,-67 -53,8 -27,26 -151,28 -57,1 -116,1 -173,-5 -44,-4 -125,-26 -161,-18 -32,40 -46,96 -56,158 -23,141 -46,116 54,219l52 56c26,30 81,89 82,144l-48 17c4,18 53,57 67,77 28,43 -10,90 -56,78 -45,-13 -222,-260 -273,-320 -108,-126 -15,-126 -37,-213 -19,2 -52,43 -68,59 -37,35 -23,46 -4,86 15,32 27,55 48,81 17,20 61,49 40,86 -25,45 -104,-2 -123,-36 -12,-25 -47,-102 -70,-119 -20,12 -21,43 -28,70 -7,28 -10,52 -16,81 -10,57 -26,118 -2,172 10,21 33,42 8,66 -16,15 -60,15 -81,7 -50,-19 -36,-124 -35,-168 5,-196 -31,-192 72,-324 26,-34 51,-83 63,-136 11,-44 30,-137 -8,-162 -26,19 -19,67 -21,105 -3,69 -9,160 -58,212 -13,15 -66,57 -90,37 -20,-29 -4,-51 3,-85 11,-51 14,-270 -8,-296 -17,-20 -409,-18 -413,-15 -42,45 17,55 -71,99 -2,71 67,135 2,280 -15,36 -40,77 -58,114 -59,123 -80,222 -215,303 -78,47 -172,70 -282,61 -175,-14 -322,-145 -383,-306 -59,-152 -27,-347 82,-468 17,-19 30,-25 31,-54 -26,-40 -121,-85 -174,-109 -36,-17 -180,-75 -219,-58 -26,11 -102,132 -112,171 -13,53 -7,63 -45,96 -28,24 -54,32 -83,61 -51,51 -82,106 -122,164 -83,118 -50,80 -70,215 -21,146 -187,136 -209,-5 -10,-64 16,-83 14,-127 -204,-15 -598,212 -684,209 -48,-2 -44,-64 -183,-121 -157,-65 -380,-109 -556,-135 -93,-14 -46,78 -251,248 -69,57 -172,107 -264,134 -112,32 -251,27 -365,1 -416,-94 -705,-536 -589,-961 46,-170 170,-376 305,-486 33,-27 78,-53 128,-72 32,-13 141,-35 155,-44 41,-23 -1,-113 54,-144 65,-37 95,43 124,63 22,-15 91,-78 93,-102 8,-58 -27,-125 29,-167 52,-38 107,-12 139,31 46,61 29,130 50,155 57,15 169,-24 212,9 20,15 33,59 22,88 -9,26 -43,43 -51,63 64,16 114,109 141,102 2,-44 -102,-332 -123,-383 -25,-63 -61,-124 -79,-179 -25,-71 -13,-165 41,-193 45,-12 156,166 204,194 23,-18 28,-68 23,-105 -9,-77 -90,-266 -85,-319 5,-52 70,-19 84,0 47,61 70,188 198,211 111,20 360,-46 428,-101 26,-21 39,-44 65,-69 24,-23 61,-34 48,-81 -13,-50 -15,-64 10,-108 81,-142 231,6 175,100 -36,61 25,88 93,144 93,77 224,139 356,188 85,31 129,32 201,-21 137,-102 152,-158 202,-202 16,-14 82,-71 85,-13 1,39 -71,176 -59,209 33,26 117,18 136,55 18,33 -4,44 -20,62 -15,17 -26,37 -41,56 -15,19 -26,27 -44,48l-86 102c-24,30 -27,73 -33,114 -4,20 -7,17 -13,34 -9,29 -9,51 -15,82 -19,109 -41,227 -30,347 5,56 30,117 -10,156 -20,19 -30,32 -27,70 2,17 11,66 20,76 13,19 53,7 76,11 29,6 40,24 66,-5 45,-49 84,-97 149,-126 90,-39 80,-37 147,-126 106,-141 265,-311 388,-437 17,-18 26,-33 63,-30 54,3 109,15 161,21 187,20 387,11 306,211 -9,22 -26,46 -30,62 -11,38 12,30 14,74 4,85 38,109 -2,148 -27,26 -80,56 -97,83 5,21 84,98 103,110 24,15 168,16 207,10 18,-38 15,-60 21,-107 10,-77 27,-149 48,-222 16,-56 22,-64 84,-56 26,36 19,50 10,100 -19,111 -56,208 55,269 73,40 249,31 341,27 46,-1 53,-18 77,-43 52,-53 82,-59 118,-130 51,-101 71,-177 187,-183 60,-3 47,-23 92,-33 65,-14 191,19 230,6 10,-20 -9,-149 -8,-189 3,-76 25,-102 44,-162 10,-33 0,-249 212,-122 4,32 -5,46 -2,85 5,51 -18,41 -19,76 -1,19 19,48 25,66 27,89 -23,174 50,223 16,11 42,21 53,40 19,31 -4,45 -3,72 69,-3 103,-46 135,-98 61,-100 129,-187 232,-241 37,-19 55,-21 101,-10 50,12 48,-11 74,-32 21,-3 34,0 54,-1 65,-2 62,-24 108,51l161 279c72,126 -4,119 -20,151 -9,75 7,82 -53,100 -50,-28 -114,-54 -152,-85 -48,-55 -121,-124 -169,-179 -68,181 -75,267 -62,428 -11,4 -8,5 -11,10 2,2 5,4 10,6l-129 84 -30 49zm-4219 348c53,-14 129,-1 198,-23 82,-25 123,-68 145,-67 4,14 -1,143 -5,154 -12,32 -78,39 -114,51 -64,23 -207,94 -227,92 -1,-41 -3,-183 3,-207zm385 -110c40,-11 101,-6 142,-20 27,-9 94,-43 122,-40 4,30 -4,91 -7,123 -6,42 -14,64 -47,75 -31,10 -186,40 -210,35 -7,-21 -6,-149 0,-173zm-2668 -188c-24,-215 69,-428 177,-539 212,-218 515,-279 801,-159 77,31 109,54 169,100 15,11 37,27 49,42 129,143 213,268 240,480 26,215 -74,426 -184,537 -22,23 -113,105 -145,124 -20,12 -37,17 -61,29 -252,136 -606,62 -808,-137 -115,-113 -212,-256 -238,-477zm3536 -249c6,-38 52,-87 85,-93 28,-6 121,20 151,28 47,14 84,38 122,57 22,11 86,60 90,80 5,37 -51,92 -79,86 -15,-3 -131,-79 -172,-98 -87,-41 -157,-44 -197,-60zm526 -326c24,10 59,76 75,101 34,51 74,98 110,154 35,54 -27,160 -55,175 -84,45 -43,-33 -34,-72 30,-123 -48,-70 -109,-236 -22,-60 -25,-82 13,-122zm328 24c11,19 11,4 11,29 -25,20 -136,113 -161,117 -18,-14 -97,-132 -121,-168 -35,-53 -33,-22 -42,-46 17,-13 25,-36 51,-28 26,8 92,128 108,153 103,5 97,-58 154,-57zm-361 -61c3,-79 98,-150 172,-175 57,-19 90,-24 120,27 79,133 69,129 29,164 -13,11 -30,26 -48,39 -103,78 -61,-142 -186,-134 -29,2 -43,10 -56,32 -14,24 -15,27 -31,47zm-393 229c6,-28 142,-191 170,-229l115 -148c68,-87 69,-103 158,-85 26,5 93,6 110,16 -22,14 -54,23 -79,37 -68,40 -129,125 -135,205 -5,65 20,224 50,291 20,46 17,35 -6,73 -29,-8 -63,-39 -84,-54 -104,-76 -178,-86 -299,-106zm289 -543c21,-18 37,15 38,28 3,26 -13,34 -28,50l-140 182c-13,20 -24,32 -35,46 -12,15 -18,26 -32,43 -20,25 -49,65 -70,92l-277 363c-43,66 -26,91 -40,123 -15,34 -61,44 -87,72 -64,69 -129,143 -175,225 -51,89 -45,117 -49,197 -1,37 -31,82 -79,68 -34,-10 -60,-65 -51,-111 8,-40 32,-82 51,-112 22,-33 43,-57 67,-94 62,-94 164,-175 182,-297 10,-70 71,-132 127,-190 16,-16 27,-22 42,-38l278 -325c6,-7 10,-13 17,-21l261 -301zm-2357 877c-4,-67 -21,-144 -46,-204 -9,-24 -34,-64 -36,-86 21,-27 63,-31 83,-62 26,-38 -47,-311 -57,-362 -15,-78 -36,-158 -60,-231 -12,-37 -55,-200 -81,-211 -41,-12 -69,24 -96,-11 -10,-14 -26,-57 -34,-79 -35,-106 -54,-86 -9,-161 18,6 92,92 110,114 58,73 62,119 184,-5 75,-77 59,-50 163,-58 30,-2 62,-7 92,-14 59,-12 109,-36 166,-56 113,-40 159,-124 238,-204 15,-16 53,-39 58,-55 9,-30 -16,-56 -19,-86 -7,-55 67,-125 99,-47 38,90 -68,89 4,164l221 220c262,212 433,136 500,162 27,11 91,96 90,121 -38,13 -68,-13 -90,24 -16,28 -30,146 -37,183l-74 471c-21,153 90,35 102,231 3,47 -7,56 -23,85 -103,184 -51,254 -128,306 -42,27 -122,39 -176,41 -43,2 -73,-7 -103,13 -22,15 -39,30 -62,46 -71,48 -170,72 -259,44 -27,-8 -59,-24 -91,-12 -30,12 -58,58 -172,22 -74,-24 -90,-70 -125,-88 -70,-38 -145,14 -270,-59 -20,-11 -55,-25 -71,-38 -1,-34 12,-71 9,-118z"/>
   <path class="fil0" d="M3022 891c-8,71 -21,143 -35,208 -8,33 -12,73 -27,99 -41,69 -75,147 -183,189 -20,7 -74,25 -98,26 -32,3 -27,-5 -26,-38l8 -307c0,-299 -64,-256 217,-275 39,-2 83,-9 118,7 44,19 32,47 26,91zm-1381 -109c47,-37 36,-18 102,-15 301,16 268,-27 274,151 3,91 18,175 19,263l8 273c-82,-1 -160,5 -218,-49 -39,-37 -28,-13 -64,-70 -64,-101 -132,-441 -121,-553zm878 27c15,49 5,471 5,560 1,135 27,148 -98,181 -77,21 -191,12 -241,-30 -37,-31 0,-60 2,-107 2,-42 -2,-93 -3,-135 -4,-122 -7,-294 -15,-414 -5,-71 -14,-59 69,-58 69,0 225,-8 281,3zm-528 -74c-4,1 -81,-5 -92,-12 -20,-13 2,-64 5,-86 10,-63 36,-53 137,-89 56,-20 106,-43 154,-71 63,-36 97,-80 140,-80 160,-1 126,55 297,149 174,95 169,65 173,167 2,49 -12,51 -61,51l-61 -6c0,-42 24,-83 -5,-125 -63,-89 -166,-32 -184,30 -18,60 22,83 19,108l-334 -9c-2,-20 47,-39 30,-121 -18,-84 -137,-126 -200,-38 -35,48 -4,98 -18,132zm-146 -4c-59,21 -166,-23 -224,5 -36,33 -23,85 -14,136 8,45 15,95 22,144 23,162 67,383 220,452 45,21 88,26 142,28 81,3 70,18 103,66 48,-3 28,-23 60,-11 44,16 23,45 170,37 240,-13 158,-29 232,-49 14,15 11,22 32,27 45,-52 16,-98 100,-112 109,-18 209,-70 270,-161 70,-104 67,-219 85,-297 14,-59 55,-199 6,-224 -42,-21 -171,-7 -190,-23 -17,-16 -15,-65 -19,-90 -8,-51 -7,-45 -46,-66 -58,-30 -288,-176 -323,-220 -21,-27 -24,-133 -103,-100 -35,14 -37,30 -53,60 -23,44 -213,148 -265,170 -47,20 -128,33 -157,58 -41,36 -34,110 -48,170z"/>
   <path class="fil0" d="M2077 2021c96,-20 33,-207 62,-288 20,0 87,61 157,1 63,-53 76,13 152,19 59,4 79,-38 110,-25 25,52 -24,282 14,338 73,-15 14,-304 64,-337 26,-13 126,32 167,38 63,8 142,-7 179,-39 3,-88 -119,-65 -217,-67 -91,-2 -187,-5 -279,-9 -226,-9 -455,-7 -678,-22 -37,-2 -90,-11 -111,28 -29,59 138,92 197,84 68,-9 74,-38 95,-46 33,-12 71,25 71,66 0,40 -4,91 -6,135 -2,60 -11,88 23,124z"/>
   <path class="fil0" d="M20 2921c16,0 32,1 48,3 16,2 33,4 51,7 1,-1 3,-1 6,-2 22,-7 35,-10 42,-10 5,0 10,2 15,7 4,4 10,15 18,31 44,91 85,175 124,251 39,76 76,147 112,210 46,-92 101,-209 165,-349 21,-48 37,-82 46,-102l2 -4c12,-26 24,-39 37,-39 3,0 8,0 13,2 6,1 13,3 20,5 17,-3 33,-5 48,-7 15,-2 29,-3 43,-3l0 14c-28,1 -47,7 -55,17 -9,10 -13,40 -13,91 0,19 0,33 0,43 0,9 1,18 1,26l8 217c3,92 10,148 20,169 11,20 31,31 60,31l3 0 0 14c-18,-1 -37,-2 -56,-4 -19,-2 -39,-5 -60,-9 -20,4 -40,7 -59,9 -19,2 -37,3 -54,4l-1 -14c27,0 45,-7 55,-20 9,-14 14,-45 14,-95 0,-30 0,-51 0,-64 0,-12 -1,-23 -1,-32l-4 -172c0,-4 -1,-21 -2,-51 -2,-30 -3,-57 -4,-79 -55,113 -103,218 -147,313 -44,96 -75,167 -94,214l-17 0c-41,-87 -83,-175 -126,-261 -44,-87 -88,-174 -134,-260 -6,84 -10,161 -13,230 -3,70 -5,121 -5,154 0,52 6,86 17,100 11,14 34,22 67,23l0 14c-15,0 -32,-1 -49,-4 -17,-2 -36,-5 -57,-10 -16,4 -33,7 -51,9 -17,2 -35,4 -53,5l0 -14c24,-3 41,-8 51,-14 10,-7 17,-20 23,-39 3,-10 5,-23 7,-40 3,-17 5,-45 8,-84 6,-71 10,-129 13,-177 2,-47 4,-84 4,-112l0 -16c0,-50 -6,-81 -16,-92 -10,-11 -33,-18 -70,-20l0 -14zm869 0c16,0 33,1 52,4 18,2 39,5 61,9 27,-4 60,-8 98,-10 38,-2 87,-3 146,-3 35,0 57,1 65,3 8,3 12,8 12,14 0,4 -1,7 -2,10 -2,3 -5,8 -11,13 2,15 4,28 5,39 1,10 1,20 1,28l0 26 -17 0c-4,-39 -14,-65 -31,-79 -18,-13 -55,-20 -112,-20l-98 0c0,13 -1,27 -1,42 0,15 0,35 0,60l0 47 0 102 96 0c55,0 88,-4 101,-11 13,-7 21,-21 24,-41l17 0c-1,11 -2,22 -4,33 -3,11 -6,22 -9,34 3,13 6,25 8,37 1,12 2,24 2,35l-18 0c-1,-22 -8,-37 -21,-45 -12,-8 -43,-11 -92,-11l-15 0 -89 0 0 141c0,64 5,102 15,113 11,11 40,17 87,17 75,0 125,-8 150,-25 25,-17 42,-48 51,-95l18 0c-2,22 -5,41 -9,58 -5,18 -10,33 -17,48 3,6 4,11 5,14 1,4 2,8 2,10 0,10 -5,17 -14,21 -9,3 -28,5 -56,5 -6,0 -17,0 -33,0 -16,-1 -29,-1 -40,-1 -47,0 -88,-1 -122,-3 -34,-2 -64,-6 -90,-11 -19,4 -38,7 -57,9 -19,3 -39,4 -58,5l0 -14c33,-1 56,-10 67,-28 12,-19 18,-69 18,-150l0 -16c0,-1 0,-7 0,-16 0,-9 1,-17 1,-24l0 -126c0,-4 -1,-12 -1,-25 0,-12 0,-23 0,-33 0,-80 -6,-130 -17,-148 -12,-18 -34,-27 -68,-28l0 -14zm538 -19l17 0 0 2c0,6 6,11 17,13 11,2 37,4 77,4l40 0 127 0 127 0 40 0c41,0 67,-2 78,-4 11,-2 16,-7 16,-13l0 -2 18 0c0,10 -1,19 -2,29 -1,9 -2,19 -4,29 6,18 10,35 13,51 3,15 5,30 5,44l-20 1c-9,-69 -68,-105 -177,-109 -1,0 -3,0 -3,0l-46 0c-1,33 -2,67 -3,102 -1,36 -1,76 -1,120l0 156c0,58 1,98 3,120 2,23 6,40 12,51 4,10 14,18 27,23 14,6 32,9 56,10l0 14c-20,0 -41,-1 -64,-4 -23,-2 -48,-5 -75,-10 -28,5 -53,8 -76,10 -23,3 -44,4 -63,4l-1 -14c25,-1 44,-4 58,-9 13,-5 22,-13 27,-24 5,-11 9,-28 11,-50 2,-23 3,-62 3,-120l0 -31 0 -126c0,-62 0,-109 -1,-139 -1,-30 -2,-57 -4,-83l-44 0c-77,0 -125,7 -144,21 -19,13 -31,42 -37,88l-20 -1c0,-15 2,-30 5,-46 3,-16 7,-32 13,-49 -2,-8 -3,-17 -4,-26 0,-9 -1,-20 -1,-32zm949 338c63,112 113,188 151,228 38,41 76,61 114,61l8 0 0 14c-14,2 -24,2 -31,3 -7,0 -14,1 -21,1 -30,0 -54,-3 -72,-8 -19,-5 -36,-13 -53,-24 -16,-12 -34,-29 -51,-52 -17,-23 -41,-61 -71,-114 -4,-7 -9,-16 -15,-28 -21,-39 -43,-59 -68,-59 -2,0 -9,0 -20,0 -11,-1 -25,-2 -42,-2l0 104c0,72 6,117 17,136 12,18 35,28 69,29l-1 14c-17,-1 -36,-2 -56,-4 -20,-2 -43,-5 -70,-10 -27,5 -50,8 -70,10 -20,2 -39,3 -55,4l0 -14c34,-2 56,-11 68,-30 11,-18 17,-64 17,-137l0 -67 0 -198c0,-70 -6,-114 -17,-132 -12,-19 -35,-29 -68,-30l0 -14c16,0 33,1 51,3 18,3 38,6 60,10 23,-5 46,-9 68,-12 22,-3 43,-4 63,-4 68,0 121,14 158,41 37,27 56,66 56,117 0,36 -10,67 -30,95 -20,28 -50,51 -89,69zm-171 -6c12,2 24,3 35,4 10,1 20,1 27,1 47,0 82,-12 105,-35 24,-24 36,-59 36,-105 0,-49 -14,-87 -41,-114 -26,-28 -64,-41 -112,-41 -9,0 -17,0 -25,0 -7,1 -15,2 -23,3 0,22 -1,45 -1,68 -1,23 -1,46 -1,69l0 150zm770 296c66,0 119,-27 159,-81 40,-55 60,-127 60,-218 0,-90 -20,-162 -60,-217 -40,-54 -93,-81 -159,-81 -66,0 -119,27 -159,81 -40,54 -60,127 -60,217 0,91 20,164 60,218 40,54 93,81 159,81zm317 -299c0,92 -30,169 -91,230 -60,62 -136,92 -226,92 -91,0 -166,-30 -227,-92 -60,-61 -90,-138 -90,-230 0,-92 30,-168 90,-229 61,-61 136,-92 227,-92 90,0 166,31 226,92 61,61 91,137 91,229zm281 20l8 -19c9,2 16,3 23,4 7,0 13,1 19,1 42,0 74,-13 98,-38 24,-25 36,-59 36,-103 0,-51 -15,-89 -44,-115 -29,-26 -72,-39 -129,-39 -7,0 -14,0 -23,1 -9,1 -19,2 -30,3 0,12 -1,31 -1,55 0,24 0,52 0,83l0 263c0,49 1,83 3,103 2,20 5,35 10,46 5,10 13,17 25,22 13,5 32,8 57,11l0 14c-23,-1 -46,-2 -69,-5 -22,-2 -45,-5 -67,-9 -26,4 -49,7 -69,10 -21,2 -40,3 -58,4l0 -14c34,-1 57,-11 69,-29 11,-19 17,-65 17,-138l0 -67 0 -193c0,-73 -6,-119 -18,-137 -11,-19 -34,-29 -68,-30l0 -14c19,0 37,2 56,4 18,2 36,5 54,9 29,-6 56,-10 81,-12 25,-3 50,-4 76,-4 70,0 124,14 162,41 37,27 56,66 56,116 0,53 -20,97 -59,131 -40,35 -90,52 -151,52 -15,0 -27,-1 -37,-2 -9,-1 -18,-3 -27,-5zm651 279c66,0 119,-27 159,-81 40,-55 60,-127 60,-218 0,-90 -20,-162 -60,-217 -40,-54 -93,-81 -159,-81 -66,0 -119,27 -159,81 -40,54 -60,127 -60,217 0,91 20,164 60,218 40,54 93,81 159,81zm318 -299c0,92 -31,169 -91,230 -61,62 -136,92 -227,92 -91,0 -166,-30 -226,-92 -61,-61 -91,-138 -91,-230 0,-92 30,-168 91,-229 60,-61 135,-92 226,-92 91,0 166,31 227,92 60,61 91,137 91,229zm70 -310c17,0 35,2 55,4 20,2 44,5 71,9 26,-4 49,-7 69,-9 20,-2 39,-4 57,-4l0 14c-34,1 -56,11 -68,28 -11,18 -17,61 -17,129l0 77 0 210c0,63 5,101 16,112 10,11 38,17 84,17 74,0 124,-8 149,-25 25,-17 42,-48 51,-95l18 0c-2,21 -5,40 -9,57 -5,18 -10,34 -17,49 0,0 0,0 1,1 4,11 7,19 7,23 0,10 -5,17 -14,21 -10,3 -29,5 -58,5 -6,0 -17,0 -33,0 -16,-1 -29,-1 -40,-1 -49,0 -90,-1 -122,-3 -32,-2 -61,-6 -85,-11 -19,4 -38,7 -58,9 -19,3 -38,4 -57,5l0 -14c33,-1 55,-10 67,-28 11,-19 17,-69 17,-150l0 -16c0,-1 0,-6 1,-15 0,-9 0,-18 0,-25l0 -126c0,-3 0,-11 0,-24 -1,-13 -1,-24 -1,-34 0,-80 -6,-129 -17,-147 -11,-18 -34,-28 -67,-29l0 -14zm529 0c17,0 37,2 57,4 21,2 44,5 69,9 27,-4 51,-7 71,-9 19,-2 38,-4 55,-4l0 14c-34,1 -56,10 -67,28 -12,18 -18,61 -18,129l0 78 0 196c0,71 6,115 18,133 11,19 33,28 67,30l0 14c-17,-1 -36,-2 -56,-4 -20,-2 -43,-5 -70,-10 -27,5 -51,8 -71,10 -20,2 -38,3 -55,4l0 -14c33,-2 56,-11 68,-30 11,-18 17,-63 17,-133l0 -72 0 -197c0,-70 -6,-114 -17,-132 -12,-19 -35,-29 -68,-30l0 -14zm314 -19l17 0 0 2c0,6 6,11 17,13 10,2 36,4 77,4l40 0 127 0 127 0 40 0c41,0 67,-2 78,-4 11,-2 16,-7 16,-13l0 -2 17 0c0,10 0,19 -1,29 -1,9 -2,19 -4,29 6,18 10,35 13,51 3,15 5,30 5,44l-20 1c-9,-69 -68,-105 -177,-109 -2,0 -3,0 -4,0l-45 0c-2,33 -3,67 -3,102 -1,36 -1,76 -1,120l0 156c0,58 1,98 3,120 2,23 6,40 11,51 5,10 15,18 28,23 14,6 32,9 56,10l0 14c-20,0 -42,-1 -65,-4 -22,-2 -47,-5 -74,-10 -28,5 -53,8 -76,10 -23,3 -44,4 -64,4l0 -14c25,-1 44,-4 57,-9 14,-5 23,-13 28,-24 5,-11 8,-28 10,-50 3,-23 4,-62 4,-120l0 -31 0 -126c0,-62 -1,-109 -1,-139 -1,-30 -2,-57 -4,-83l-44 0c-78,0 -126,7 -144,21 -19,13 -31,42 -38,88l-20 -1c1,-15 3,-30 6,-46 3,-16 7,-32 12,-49 -1,-8 -2,-17 -3,-26 -1,-9 -1,-20 -1,-32zm798 118c-16,38 -33,78 -49,120 -16,41 -32,83 -48,127 21,0 42,1 61,1 20,0 38,0 54,0 20,0 35,0 46,0 11,0 21,-1 31,-1 -15,-41 -31,-82 -47,-124 -15,-41 -32,-82 -48,-123zm12 -110l27 0 121 310c41,102 68,171 83,207 15,35 26,58 34,68 6,10 16,18 28,23 12,5 27,9 45,11l0 14c-17,-1 -35,-2 -54,-4 -19,-2 -42,-5 -69,-10 -24,5 -46,8 -67,10 -20,3 -39,4 -57,4l0 -15c21,-1 38,-4 48,-10 11,-6 16,-14 16,-26 0,-8 -3,-25 -10,-49 -7,-24 -17,-54 -30,-90l-21 -58c-16,-1 -35,-1 -59,-2 -24,0 -39,0 -44,0 -12,0 -35,0 -70,1 -17,0 -31,0 -41,1l-16 40c-16,42 -28,76 -35,101 -8,26 -12,44 -12,54 0,13 5,22 14,28 9,6 25,9 47,10l0 15c-14,-1 -29,-2 -46,-4 -17,-2 -37,-5 -60,-10 -23,5 -44,8 -61,10 -17,2 -33,3 -47,4l0 -15c18,-1 33,-4 46,-8 12,-5 23,-13 32,-23 14,-15 52,-95 112,-239l17 -39 129 -309zm327 11c16,0 32,1 48,3 16,2 31,4 47,7 11,-4 19,-6 25,-8 6,-1 11,-2 15,-2 12,0 67,58 164,173 98,116 191,221 281,317l0 -151c0,-114 -1,-189 -4,-225 -3,-36 -7,-60 -14,-71 -6,-8 -13,-14 -23,-19 -9,-4 -23,-8 -41,-10l1 -14c13,0 28,2 44,4 16,2 35,5 56,9 22,-4 41,-7 55,-9 14,-2 28,-3 39,-4l0 14c-20,3 -34,7 -42,13 -8,5 -14,16 -18,32 -6,21 -10,61 -13,119 -3,58 -5,126 -5,205l0 212c0,0 1,5 1,13 1,8 2,16 2,24l-29 -4c-113,-135 -204,-241 -272,-318 -69,-77 -131,-145 -187,-203l0 185c0,79 1,140 4,182 2,43 5,72 10,88 4,14 12,25 25,32 12,8 29,12 51,14l0 14c-15,0 -32,-1 -50,-4 -18,-2 -37,-5 -58,-10 -23,5 -42,8 -57,10 -16,2 -30,3 -42,4l0 -14c32,-1 54,-13 65,-38 11,-24 17,-88 17,-192l0 -43 0 -164c0,-69 -7,-112 -20,-130 -13,-17 -39,-26 -75,-27l0 -14z"/>
   <path class="fil0" d="M157 3778l5 2c0,2 -1,5 -2,8 -1,2 -2,5 -4,8 1,6 2,11 2,16 1,4 1,9 1,12l-7 0c-1,-13 -6,-23 -15,-30 -8,-7 -19,-11 -33,-11 -12,0 -21,4 -29,11 -8,7 -11,16 -11,27 0,10 3,19 10,26 7,7 20,16 41,25 23,11 38,20 46,29 8,9 11,20 11,33 0,18 -6,33 -20,44 -13,11 -31,17 -53,17 -11,0 -22,-2 -34,-6 -11,-4 -18,-5 -20,-5 -1,0 -3,0 -4,1 -1,1 -2,2 -3,3l-5 -1c0,-3 1,-6 2,-9 2,-3 3,-6 5,-9 -1,-6 -2,-12 -3,-16 0,-5 0,-10 0,-14l6 0c3,15 9,27 19,36 10,8 23,13 39,13 14,0 25,-4 33,-12 9,-7 13,-17 13,-28 0,-12 -3,-21 -9,-28 -6,-8 -21,-17 -46,-28 -20,-9 -34,-18 -41,-27 -8,-8 -12,-19 -12,-32 0,-17 7,-30 19,-41 12,-11 28,-16 48,-16 10,0 19,1 29,3 10,2 16,3 16,3 2,0 3,-1 4,-1 1,0 1,-1 2,-3zm237 4l5 2c-1,4 -2,8 -3,11 -1,3 -3,6 -4,9 0,4 0,8 1,12 0,3 0,5 0,7 0,2 0,4 0,8 -1,4 -1,6 -1,9l-6 0c-1,-19 -6,-33 -17,-43 -10,-9 -25,-14 -45,-14 -27,0 -49,9 -64,26 -15,18 -23,43 -23,74 0,32 8,57 24,76 17,18 39,28 67,28 19,0 34,-4 45,-12 10,-8 16,-19 18,-34l7 0c-1,4 -1,9 -2,13 -1,5 -2,9 -3,15 0,1 0,3 1,5 0,2 0,4 0,6 -9,5 -19,9 -31,11 -12,3 -25,4 -39,4 -37,0 -67,-10 -88,-29 -22,-19 -32,-45 -32,-78 0,-34 11,-61 33,-81 22,-21 51,-31 87,-31 14,0 28,2 42,5 15,3 22,5 23,5 1,0 2,-1 3,-1 1,-1 2,-2 2,-3zm27 -3c6,0 12,1 19,1 7,1 15,2 24,4 9,-2 17,-3 24,-4 7,0 13,-1 19,-1l0 5c-12,0 -19,3 -23,10 -4,6 -6,20 -6,43l0 27 0 12c8,0 17,1 25,1 9,0 19,0 32,0 15,0 27,0 36,0 9,0 18,-1 27,-1l0 -35c0,-25 -2,-41 -6,-47 -4,-6 -12,-10 -24,-10l0 -5c6,0 13,1 20,1 7,1 15,2 24,4 8,-2 16,-3 23,-4 7,0 13,-1 19,-1l0 5c-11,0 -19,4 -23,10 -4,6 -5,21 -5,45l0 25 0 67c0,24 1,40 5,46 4,6 12,9 23,10l0 5c-5,-1 -12,-1 -18,-2 -7,-1 -15,-2 -24,-3 -9,1 -17,2 -24,3 -7,1 -14,1 -20,2l0 -5c12,-1 20,-4 24,-10 4,-7 6,-22 6,-48l0 -22 0 -21c-9,0 -21,0 -35,0 -15,0 -24,0 -28,0 -3,0 -12,0 -25,0 -13,0 -24,0 -32,0l0 45c0,24 2,40 6,46 4,6 12,10 23,10l0 5c-6,-1 -12,-1 -19,-2 -7,-1 -15,-2 -24,-3 -9,1 -17,2 -24,3 -7,1 -14,1 -19,2l0 -5c11,-1 19,-4 23,-10 4,-7 6,-22 6,-47l0 -23 0 -66c0,-25 -2,-41 -6,-47 -4,-6 -12,-10 -23,-10l0 -5zm366 208c22,0 41,-9 54,-28 14,-18 21,-43 21,-74 0,-31 -7,-56 -21,-74 -13,-18 -32,-28 -54,-28 -23,0 -41,10 -54,28 -14,18 -21,43 -21,74 0,31 7,56 21,74 13,19 31,28 54,28zm108 -102c0,32 -10,58 -31,79 -20,21 -46,31 -77,31 -31,0 -57,-10 -77,-31 -21,-21 -31,-47 -31,-79 0,-31 10,-58 31,-78 20,-21 46,-32 77,-32 31,0 57,11 77,32 21,21 31,47 31,78zm135 102c22,0 41,-9 54,-28 14,-18 21,-43 21,-74 0,-31 -7,-56 -21,-74 -13,-18 -32,-28 -54,-28 -23,0 -41,10 -54,28 -14,18 -21,43 -21,74 0,31 7,56 21,74 13,19 32,28 54,28zm108 -102c0,32 -10,58 -31,79 -20,21 -46,31 -77,31 -31,0 -57,-10 -77,-31 -21,-21 -31,-47 -31,-79 0,-31 10,-58 31,-78 20,-21 46,-32 77,-32 31,0 57,11 77,32 21,21 31,47 31,78zm24 -106c6,0 13,1 19,1 7,1 15,2 25,4 8,-2 16,-3 23,-4 7,0 14,-1 20,-1l0 5c-12,0 -20,3 -23,10 -4,6 -6,20 -6,43l0 27 0 71c0,22 1,35 5,39 4,4 13,6 29,6 25,0 42,-3 51,-9 8,-6 14,-16 17,-32l6 0c-1,7 -2,13 -3,19 -1,6 -3,12 -6,17 0,0 1,0 1,0 1,4 2,7 2,8 0,4 -2,6 -5,7 -3,1 -10,2 -19,2 -2,0 -6,0 -12,0 -5,0 -10,0 -13,0 -17,0 -31,-1 -42,-2 -11,0 -21,-1 -29,-3 -7,1 -13,2 -20,3 -6,1 -13,1 -20,2l0 -5c12,0 19,-4 23,-10 4,-6 6,-23 6,-51l0 -6c0,0 0,-2 0,-5 1,-3 1,-6 1,-8l0 -43c0,-1 0,-4 -1,-9 0,-4 0,-8 0,-11 0,-27 -2,-44 -6,-50 -3,-6 -11,-10 -23,-10l0 -5zm376 208c23,0 41,-9 55,-28 13,-18 20,-43 20,-74 0,-31 -7,-56 -20,-74 -14,-18 -32,-28 -55,-28 -22,0 -40,10 -54,28 -14,18 -21,43 -21,74 0,31 7,56 21,74 14,19 32,28 54,28zm109 -102c0,32 -11,58 -31,79 -21,21 -47,31 -78,31 -31,0 -57,-10 -77,-31 -21,-21 -31,-47 -31,-79 0,-31 10,-58 31,-78 20,-21 46,-32 77,-32 31,0 57,11 78,32 20,21 31,47 31,78zm24 -106c5,0 11,0 17,1 7,1 14,2 21,4 10,-2 21,-3 34,-4 13,-1 29,-1 47,-1l9 0c9,0 15,0 17,1 3,1 4,3 4,5 0,1 0,2 -1,3 0,1 -1,3 -3,5 1,5 1,9 1,13 1,3 1,7 1,10 0,0 0,2 0,4 0,2 0,3 0,4l-6 0c-1,-13 -5,-22 -11,-26 -6,-5 -18,-7 -38,-7l-35 0c0,4 0,9 0,14 0,5 0,12 0,20l0 17 0 36 33 0c18,0 30,-1 34,-3 5,-3 8,-8 8,-15l6 0c0,4 -1,8 -1,12 -1,3 -2,7 -3,11 1,6 2,10 3,14 0,4 0,8 0,11l-6 0c0,-8 -3,-13 -7,-15 -4,-3 -15,-4 -32,-4l-5 0 -30 0 0 22 0 17c0,26 2,43 6,49 4,6 12,10 24,10l2 0 0 5c-7,0 -14,-1 -21,-2 -7,0 -16,-2 -25,-3 -9,1 -17,2 -24,3 -7,1 -13,1 -19,2l0 -5c11,0 19,-4 23,-10 4,-6 6,-23 6,-51l0 -6c0,0 0,-2 0,-5 0,-3 0,-6 0,-8l0 -43c0,-1 0,-4 0,-9 0,-4 0,-8 0,-11 0,-27 -2,-44 -6,-50 -4,-7 -12,-10 -23,-10l0 -5zm315 131c0,19 0,33 0,43 1,10 2,16 3,19 2,4 5,8 10,10 5,2 12,3 20,3 16,0 28,-4 37,-13 8,-8 13,-20 13,-35 0,-18 -6,-31 -17,-40 -11,-9 -27,-14 -49,-14 -2,0 -4,0 -7,0 -3,0 -6,1 -10,1l0 26zm52 -33l0 2c20,2 36,8 47,17 10,10 16,22 16,37 0,19 -7,34 -21,44 -14,11 -34,16 -59,16 -8,0 -15,-1 -24,-2 -8,-1 -17,-2 -26,-4 -9,1 -17,2 -24,3 -7,1 -13,1 -19,2l0 -5c12,-1 20,-4 24,-10 4,-7 6,-22 6,-47l0 -23 0 -66c0,-25 -2,-41 -6,-47 -4,-6 -12,-10 -24,-10l0 -5c6,0 13,1 19,1 7,1 14,2 22,4 10,-2 18,-4 26,-5 8,-1 15,-1 21,-1 22,0 39,4 51,13 12,8 18,20 18,36 0,12 -5,23 -13,32 -8,9 -19,15 -34,18zm-52 -2c4,0 8,0 11,1 3,0 5,0 8,0 17,0 30,-4 39,-11 8,-8 12,-19 12,-34 0,-15 -4,-26 -12,-34 -9,-8 -21,-12 -37,-12 -4,0 -8,1 -11,1 -3,0 -6,1 -9,2 -1,7 -1,13 -1,21 0,7 0,15 0,24l0 42zm137 -96c6,0 12,1 19,1 6,1 14,2 24,4 11,-2 19,-3 25,-4 6,0 11,-1 16,-1l0 5c-6,1 -12,2 -15,4 -4,2 -6,4 -8,8 -1,4 -3,12 -3,24 -1,11 -2,26 -2,46 0,24 1,42 3,55 2,13 5,23 9,30 5,10 13,17 22,22 9,5 21,8 33,8 26,0 44,-8 54,-24 11,-16 17,-43 17,-82l0 -35c0,-24 -2,-39 -6,-45 -4,-7 -12,-11 -24,-11l0 -5c6,0 12,1 18,1 6,1 12,2 17,4 7,-2 13,-3 18,-4 6,0 11,-1 16,-1l0 5c-11,0 -18,4 -21,9 -4,6 -6,22 -6,47l0 12 0 25c0,41 -7,71 -21,90 -14,19 -37,28 -68,28 -18,0 -33,-3 -46,-8 -13,-6 -22,-14 -29,-25 -5,-8 -8,-18 -10,-29 -2,-11 -3,-26 -3,-46l0 -49c0,-24 -2,-39 -6,-44 -4,-6 -12,-10 -23,-10l0 -5zm383 -1l6 2c-1,2 -2,5 -3,8 -1,2 -2,5 -3,8 1,6 1,11 2,16 0,4 0,9 0,12l-6 0c-2,-13 -7,-23 -16,-30 -8,-7 -19,-11 -33,-11 -11,0 -21,4 -29,11 -7,7 -11,16 -11,27 0,10 3,19 10,26 7,7 21,16 42,25 22,11 37,20 45,29 8,9 12,20 12,33 0,18 -7,33 -20,44 -14,11 -32,17 -54,17 -10,0 -21,-2 -33,-6 -12,-4 -19,-5 -20,-5 -2,0 -4,0 -5,1 -1,1 -2,2 -3,3l-5 -1c1,-3 2,-6 3,-9 1,-3 2,-6 4,-9 -1,-6 -2,-12 -2,-16 -1,-5 -1,-10 -1,-14l6 0c3,15 9,27 19,36 11,8 24,13 39,13 14,0 25,-4 34,-12 8,-7 13,-17 13,-28 0,-12 -4,-21 -10,-28 -6,-8 -21,-17 -46,-28 -20,-9 -33,-18 -41,-27 -8,-8 -11,-19 -11,-32 0,-17 6,-30 18,-41 13,-11 29,-16 48,-16 10,0 20,1 30,3 10,2 15,3 16,3 1,0 2,-1 3,-1 1,0 2,-1 2,-3zm47 1c6,0 12,1 19,1 7,1 15,2 24,4 9,-2 17,-3 24,-4 7,0 13,-1 19,-1l0 5c-12,0 -19,3 -23,9 -4,7 -6,21 -6,45l0 26 0 67c0,24 2,39 6,46 4,6 11,9 23,10l0 5c-6,-1 -13,-1 -19,-2 -7,-1 -15,-2 -24,-3 -10,1 -18,2 -25,3 -6,1 -13,1 -18,2l-1 -5c12,-1 20,-4 24,-10 4,-7 6,-22 6,-46l0 -25 0 -67c0,-24 -2,-39 -6,-45 -4,-6 -12,-10 -24,-10l1 -5zm106 0c6,0 11,0 17,1 5,1 11,1 16,2 4,-1 6,-2 8,-2 3,-1 4,-1 5,-1 5,0 23,20 57,59 33,40 65,76 96,108l0 -51c0,-39 -1,-65 -2,-77 -1,-12 -2,-21 -5,-24 -2,-3 -4,-5 -7,-7 -4,-1 -8,-2 -14,-3l0 -5c4,0 9,1 15,1 5,1 12,2 19,4 8,-2 14,-3 19,-4 5,0 9,-1 13,-1l0 5c-7,1 -12,2 -14,4 -3,2 -5,6 -6,11 -2,7 -4,21 -5,41 -1,20 -1,43 -1,70l0 72c0,0 0,2 0,5 0,2 0,5 1,8l-10 -1c-39,-46 -70,-83 -93,-109 -24,-26 -45,-49 -64,-69l0 63c0,27 0,47 1,62 1,15 2,25 3,30 2,5 5,8 9,11 4,3 10,4 18,5l0 5c-6,0 -11,-1 -17,-2 -6,0 -13,-2 -20,-3 -8,1 -15,2 -20,3 -5,1 -10,1 -14,2l0 -5c11,0 18,-5 22,-13 4,-8 6,-30 6,-66l0 -14 0 -56c0,-24 -3,-39 -7,-45 -5,-6 -13,-9 -26,-9l0 -5zm256 0c5,0 11,0 18,1 6,1 13,2 20,4 10,-2 21,-3 34,-4 13,-1 30,-1 50,-1 12,0 19,0 22,1 3,1 4,3 4,5 0,1 0,2 -1,3 0,1 -1,3 -3,5 1,5 1,9 1,13 1,4 1,7 1,10l0 8 -6 0c-1,-13 -5,-22 -11,-26 -6,-5 -18,-7 -38,-7l-33 0c0,4 -1,9 -1,14 0,5 0,12 0,20l0 17 0 34 33 0c19,0 30,-1 35,-3 4,-3 7,-7 8,-14l6 0c-1,3 -1,7 -2,11 -1,4 -2,8 -3,12 1,4 2,8 3,12 0,4 1,8 1,12l-6 0c-1,-7 -3,-12 -8,-15 -4,-3 -14,-4 -31,-4l-5 0 -31 0 0 48c0,22 2,35 6,39 3,4 13,6 29,6 26,0 43,-3 51,-9 9,-6 15,-16 18,-32l6 0c-1,7 -2,14 -3,20 -2,5 -4,11 -6,16 1,2 2,3 2,5 0,1 0,2 0,3 0,4 -1,6 -4,7 -3,1 -10,2 -20,2 -1,0 -5,0 -11,0 -5,0 -10,0 -13,0 -16,0 -30,-1 -42,-2 -12,0 -22,-1 -31,-3 -6,1 -13,2 -19,3 -7,1 -13,1 -20,2l0 -5c11,0 19,-4 23,-10 4,-6 6,-23 6,-51l0 -6c0,0 0,-2 0,-5 0,-3 0,-6 0,-8l0 -43c0,-1 0,-4 0,-9 0,-4 0,-8 0,-11 0,-27 -2,-44 -6,-50 -4,-7 -12,-10 -23,-10l0 -5zm320 -1l5 2c0,2 -1,5 -2,8 -1,2 -2,5 -3,8 0,6 1,11 2,16 0,4 0,9 0,12l-7 0c-1,-13 -6,-23 -15,-30 -8,-7 -19,-11 -33,-11 -12,0 -21,4 -29,11 -7,7 -11,16 -11,27 0,10 3,19 10,26 7,7 21,16 41,25 23,11 38,20 46,29 8,9 12,20 12,33 0,18 -7,33 -21,44 -13,11 -31,17 -53,17 -11,0 -22,-2 -33,-6 -12,-4 -19,-5 -20,-5 -2,0 -4,0 -5,1 -1,1 -2,2 -3,3l-5 -1c1,-3 2,-6 3,-9 1,-3 2,-6 4,-9 -1,-6 -2,-12 -2,-16 -1,-5 -1,-10 -1,-14l6 0c3,15 9,27 19,36 10,8 23,13 39,13 14,0 25,-4 33,-12 9,-7 13,-17 13,-28 0,-12 -3,-21 -9,-28 -6,-8 -21,-17 -46,-28 -20,-9 -33,-18 -41,-27 -8,-8 -11,-19 -11,-32 0,-17 6,-30 18,-41 12,-11 28,-16 48,-16 10,0 20,1 30,3 10,2 15,3 16,3 1,0 2,-1 3,-1 1,0 2,-1 2,-3zm178 0l5 2c0,2 -1,5 -2,8 -1,2 -2,5 -3,8 0,6 1,11 1,16 1,4 1,9 1,12l-7 0c-1,-13 -6,-23 -15,-30 -8,-7 -19,-11 -33,-11 -12,0 -21,4 -29,11 -8,7 -11,16 -11,27 0,10 3,19 10,26 7,7 21,16 41,25 23,11 38,20 46,29 8,9 12,20 12,33 0,18 -7,33 -21,44 -13,11 -31,17 -53,17 -11,0 -22,-2 -33,-6 -12,-4 -19,-5 -20,-5 -2,0 -4,0 -5,1 -1,1 -2,2 -3,3l-5 -1c0,-3 1,-6 3,-9 1,-3 2,-6 4,-9 -1,-6 -2,-12 -2,-16 -1,-5 -1,-10 -1,-14l6 0c3,15 9,27 19,36 10,8 23,13 39,13 14,0 25,-4 33,-12 9,-7 13,-17 13,-28 0,-12 -3,-21 -9,-28 -6,-8 -21,-17 -46,-28 -20,-9 -34,-18 -41,-27 -8,-8 -12,-19 -12,-32 0,-17 7,-30 19,-41 12,-11 28,-16 48,-16 10,0 19,1 30,3 10,2 15,3 16,3 1,0 2,-1 3,-1 1,0 2,-1 2,-3z"/>
   <path class="fil0" d="M3633 3813c-6,13 -11,27 -17,41 -6,14 -11,28 -17,43 8,0 15,1 22,1 6,0 12,0 18,0 7,0 12,0 16,0 3,0 7,-1 10,-1 -5,-14 -10,-28 -16,-42 -5,-14 -11,-28 -16,-42zm4 -38l9 0 41 106c14,35 24,59 29,71 5,12 9,20 11,23 2,4 6,6 10,8 4,2 9,3 15,4l0 5c-5,-1 -12,-1 -18,-2 -7,-1 -15,-2 -24,-3 -8,1 -16,2 -23,3 -7,1 -13,2 -19,2l0 -5c7,-1 13,-2 16,-4 4,-2 6,-5 6,-9 0,-3 -1,-8 -4,-17 -2,-8 -5,-18 -10,-30l-7 -20c-5,0 -12,-1 -20,-1 -8,0 -13,0 -15,0 -4,0 -12,0 -24,0 -6,1 -11,1 -14,1l-6 14c-5,14 -9,25 -12,34 -2,9 -4,15 -4,18 0,5 2,8 5,10 3,2 9,3 16,4l0 5c-5,-1 -10,-1 -16,-2 -5,-1 -12,-2 -20,-3 -8,1 -15,2 -21,3 -6,1 -11,1 -16,2l0 -5c6,-1 11,-2 16,-3 4,-2 7,-5 11,-8 5,-5 17,-33 38,-82l6 -13 44 -106zm111 4c6,0 11,0 17,1 5,1 11,1 16,2 4,-1 7,-2 9,-2 2,-1 3,-1 5,-1 4,0 23,20 56,59 33,40 65,76 96,108l0 -51c0,-39 -1,-65 -2,-77 0,-12 -2,-21 -5,-24 -1,-3 -4,-5 -7,-7 -3,-1 -8,-2 -14,-3l0 -5c5,0 10,1 15,1 5,1 12,2 19,4 8,-2 14,-3 19,-4 5,0 9,-1 13,-1l0 5c-7,1 -11,2 -14,4 -3,2 -5,6 -6,11 -2,7 -4,21 -5,41 -1,20 -1,43 -1,70l0 72c0,0 0,2 0,5 0,2 1,5 1,8l-10 -1c-39,-46 -70,-83 -93,-109 -24,-26 -45,-49 -64,-69l0 63c0,27 0,47 1,62 1,15 2,25 4,30 1,5 4,8 8,11 5,3 10,4 18,5l0 5c-6,0 -11,-1 -17,-2 -6,0 -13,-2 -20,-3 -8,1 -14,2 -20,3 -5,1 -10,1 -14,2l0 -5c11,0 18,-5 22,-13 4,-8 6,-30 6,-66l0 -14 0 -56c0,-24 -2,-39 -7,-45 -4,-6 -13,-9 -26,-9l0 -5zm299 208c-9,1 -17,2 -24,3 -7,1 -13,1 -19,2l0 -5c12,-1 19,-4 23,-10 4,-7 6,-22 6,-47l0 -23 0 -66c0,-25 -2,-41 -6,-47 -4,-7 -11,-10 -23,-10l0 -5c6,0 12,1 19,1 7,1 15,2 24,4 9,-2 18,-4 27,-5 8,0 17,-1 26,-1 41,0 73,10 95,29 23,19 34,46 34,80 0,33 -11,58 -33,78 -22,19 -52,29 -89,29 -15,0 -35,-3 -60,-7 0,0 0,0 0,0zm14 -80c0,18 1,33 1,44 0,12 1,19 1,21 2,4 6,8 13,10 7,3 16,4 27,4 30,0 53,-8 69,-25 16,-17 24,-40 24,-70 0,-34 -8,-60 -26,-78 -17,-18 -43,-27 -76,-27 -5,0 -10,0 -16,0 -5,1 -10,2 -15,3 -1,9 -1,18 -1,28 -1,11 -1,26 -1,47l0 43zm284 -128c5,0 11,0 16,1 6,1 12,1 18,2 0,0 1,0 2,0 7,-3 12,-4 14,-4 2,0 4,1 5,3 2,1 4,5 6,10 15,32 29,60 43,86 13,26 26,50 38,72 16,-32 35,-72 56,-119 8,-17 13,-29 16,-35l1 -2c4,-9 8,-13 12,-13 2,0 3,0 5,1 2,0 4,1 7,1 6,-1 11,-1 16,-2 5,-1 10,-1 15,-1l0 5c-10,0 -16,2 -19,6 -3,3 -4,13 -4,31 0,6 0,11 0,14 0,4 0,7 0,9l3 74c1,32 3,51 7,58 3,7 10,11 20,11l1 0 0 5c-6,-1 -12,-1 -19,-2 -7,-1 -13,-2 -20,-3 -7,1 -14,2 -21,3 -6,1 -12,1 -18,2l0 -5c9,0 15,-3 18,-7 3,-5 5,-15 5,-32 0,-11 0,-18 0,-22 0,-5 0,-8 0,-11l-2 -59c0,-1 0,-7 0,-18 -1,-10 -1,-19 -2,-27 -18,39 -35,75 -50,108 -15,32 -25,57 -32,73l-6 0c-14,-30 -28,-60 -43,-90 -15,-29 -30,-59 -46,-88 -2,28 -3,54 -4,78 -1,24 -2,42 -2,53 0,18 2,29 6,34 4,5 12,7 23,8l0 5c-5,0 -11,-1 -17,-2 -6,0 -12,-2 -19,-3 -6,1 -12,2 -18,3 -6,1 -12,1 -18,2l0 -5c8,-1 14,-3 18,-5 3,-2 6,-7 7,-13 1,-4 2,-8 3,-14 1,-6 2,-15 3,-29 2,-24 3,-44 4,-60 1,-16 1,-29 1,-38l0 -6c0,-17 -2,-28 -5,-31 -4,-4 -12,-6 -24,-7l0 -5zm386 34c-6,13 -11,27 -17,41 -5,14 -11,28 -16,43 7,0 14,1 21,1 6,0 13,0 18,0 7,0 12,0 16,0 4,0 7,-1 10,-1 -5,-14 -10,-28 -15,-42 -6,-14 -11,-28 -17,-42zm4 -38l9 0 42 106c14,35 23,59 28,71 5,12 9,20 12,23 2,4 5,6 9,8 4,2 9,3 16,4l0 5c-6,-1 -12,-1 -19,-2 -6,-1 -14,-2 -23,-3 -9,1 -16,2 -23,3 -7,1 -14,2 -20,2l0 -5c8,-1 13,-2 17,-4 3,-2 5,-5 5,-9 0,-3 -1,-8 -3,-17 -3,-8 -6,-18 -11,-30l-7 -20c-5,0 -12,-1 -20,-1 -8,0 -13,0 -15,0 -4,0 -12,0 -24,0 -6,1 -10,1 -14,1l-5 14c-6,14 -10,25 -12,34 -3,9 -4,15 -4,18 0,5 1,8 4,10 4,2 9,3 17,4l0 5c-5,-1 -11,-1 -16,-2 -6,-1 -13,-2 -21,-3 -8,1 -15,2 -21,3 -6,1 -11,1 -16,2l0 -5c7,-1 12,-2 16,-3 4,-2 8,-5 11,-8 5,-5 18,-33 38,-82l6 -13 44 -106zm112 4c5,0 11,0 16,1 6,1 11,1 16,2 4,-1 7,-2 9,-2 2,-1 4,-1 5,-1 4,0 23,20 56,59 33,40 65,76 96,108l0 -51c0,-39 0,-65 -1,-77 -1,-12 -3,-21 -5,-24 -2,-3 -5,-5 -8,-7 -3,-1 -8,-2 -14,-3l0 -5c5,0 10,1 15,1 6,1 12,2 20,4 7,-2 13,-3 18,-4 5,0 10,-1 14,-1l0 5c-7,1 -12,2 -15,4 -3,2 -5,6 -6,11 -2,7 -3,21 -4,41 -1,20 -2,43 -2,70l0 72c0,0 0,2 0,5 1,2 1,5 1,8l-10 -1c-39,-46 -70,-83 -93,-109 -23,-26 -44,-49 -64,-69l0 63c0,27 1,47 1,62 1,15 2,25 4,30 1,5 4,8 8,11 5,3 11,4 18,5l0 5c-5,0 -11,-1 -17,-2 -6,0 -13,-2 -20,-3 -8,1 -14,2 -19,3 -6,1 -10,1 -15,2l0 -5c11,0 19,-5 22,-13 4,-8 6,-30 6,-66l0 -14 0 -56c0,-24 -2,-39 -7,-45 -4,-6 -13,-9 -25,-9l0 -5zm344 34c-5,13 -11,27 -16,41 -6,14 -11,28 -17,43 8,0 15,1 21,1 7,0 13,0 18,0 7,0 13,0 16,0 4,0 8,-1 11,-1 -5,-14 -11,-28 -16,-42 -5,-14 -11,-28 -17,-42zm4 -38l10 0 41 106c14,35 23,59 29,71 5,12 9,20 11,23 2,4 5,6 10,8 4,2 9,3 15,4l0 5c-6,-1 -12,-1 -18,-2 -7,-1 -15,-2 -24,-3 -8,1 -16,2 -23,3 -7,1 -13,2 -19,2l0 -5c7,-1 13,-2 16,-4 4,-2 6,-5 6,-9 0,-3 -2,-8 -4,-17 -2,-8 -6,-18 -10,-30l-7 -20c-6,0 -12,-1 -20,-1 -9,0 -14,0 -16,0 -3,0 -11,0 -23,0 -6,1 -11,1 -14,1l-6 14c-5,14 -9,25 -12,34 -3,9 -4,15 -4,18 0,5 2,8 5,10 3,2 8,3 16,4l0 5c-5,-1 -10,-1 -16,-2 -6,-1 -12,-2 -20,-3 -8,1 -15,2 -21,3 -6,1 -11,1 -16,2l0 -5c6,-1 11,-2 15,-3 5,-2 8,-5 11,-8 5,-5 18,-33 39,-82l5 -13 44 -106zm303 7l5 2c-1,4 -2,7 -4,10 -1,3 -2,6 -4,9 0,1 0,4 1,9 0,5 0,9 0,11 0,1 0,3 0,5 0,3 -1,7 -1,12l-6 0c-1,-19 -6,-33 -16,-43 -11,-9 -26,-14 -46,-14 -27,0 -48,9 -63,26 -15,18 -23,43 -23,75 0,32 9,57 26,75 17,19 40,28 69,28 8,0 15,-1 21,-2 7,-1 11,-3 14,-5 2,-1 3,-3 3,-5 1,-2 1,-6 1,-12l0 -4 0 -20c0,-15 -2,-24 -6,-28 -3,-4 -11,-7 -23,-8l0 -4c6,0 12,0 19,1 7,1 15,2 24,3 7,-1 14,-2 20,-3 6,-1 12,-1 16,-1l0 4c-9,1 -15,4 -18,7 -3,4 -4,15 -4,32l0 2 0 20c0,5 0,7 1,9 1,1 3,2 6,2l0 4c-14,5 -27,9 -41,12 -14,3 -27,4 -40,4 -37,0 -66,-10 -88,-29 -22,-20 -33,-46 -33,-79 0,-34 11,-61 32,-81 22,-20 52,-30 89,-30 13,0 27,1 41,4 14,4 21,5 22,5 1,0 3,0 4,0 0,-1 1,-2 2,-3zm43 -3c6,0 12,0 18,1 6,1 13,2 21,4 9,-2 21,-3 34,-4 13,-1 29,-1 49,-1 12,0 20,0 23,1 2,1 4,3 4,5 0,1 -1,2 -1,3 -1,1 -2,3 -4,5 1,5 1,9 2,13 0,4 0,7 0,10l0 8 -6 0c-1,-13 -4,-22 -10,-26 -6,-5 -19,-7 -39,-7l-33 0c0,4 0,9 0,14 0,5 0,12 0,20l0 17 0 34 33 0c18,0 30,-1 34,-3 5,-3 7,-7 8,-14l6 0c0,3 -1,7 -2,11 0,4 -1,8 -2,12 1,4 2,8 2,12 1,4 1,8 1,12l-6 0c-1,-7 -3,-12 -7,-15 -4,-3 -15,-4 -32,-4l-5 0 -30 0 0 48c0,22 1,35 5,39 4,4 13,6 30,6 25,0 42,-3 51,-9 8,-6 14,-16 17,-32l6 0c0,7 -1,14 -3,20 -1,5 -3,11 -5,16 0,2 1,3 1,5 1,1 1,2 1,3 0,4 -2,6 -5,7 -3,1 -9,2 -19,2 -2,0 -6,0 -11,0 -6,0 -10,0 -14,0 -16,0 -30,-1 -42,-2 -11,0 -21,-1 -30,-3 -7,1 -13,2 -20,3 -7,1 -13,1 -20,2l0 -5c12,0 19,-4 23,-10 4,-6 6,-23 6,-51l0 -6c0,0 0,-2 0,-5 0,-3 1,-6 1,-8l0 -43c0,-1 -1,-4 -1,-9 0,-4 0,-8 0,-11 0,-27 -2,-44 -6,-50 -3,-7 -11,-10 -23,-10l0 -5zm192 0c5,0 11,0 16,1 6,1 12,1 18,2 0,0 1,0 2,0 7,-3 12,-4 14,-4 2,0 4,1 5,3 2,1 4,5 6,10 15,32 29,60 43,86 13,26 26,50 38,72 16,-32 35,-72 56,-119 8,-17 13,-29 16,-35l1 -2c4,-9 8,-13 12,-13 2,0 3,0 5,1 2,0 4,1 7,1 6,-1 11,-1 16,-2 5,-1 10,-1 15,-1l0 5c-10,0 -16,2 -19,6 -3,3 -4,13 -4,31 0,6 0,11 0,14 0,4 0,7 0,9l3 74c1,32 3,51 7,58 3,7 10,11 20,11l1 0 0 5c-6,-1 -12,-1 -19,-2 -7,-1 -13,-2 -20,-3 -7,1 -14,2 -21,3 -6,1 -12,1 -18,2l0 -5c9,0 15,-3 18,-7 3,-5 5,-15 5,-32 0,-11 0,-18 0,-22 0,-5 0,-8 0,-11l-2 -59c0,-1 0,-7 0,-18 -1,-10 -1,-19 -2,-27 -18,39 -35,75 -50,108 -15,32 -26,57 -32,73l-6 0c-14,-30 -28,-60 -43,-90 -15,-29 -30,-59 -46,-88 -2,28 -3,54 -4,78 -1,24 -2,42 -2,53 0,18 2,29 6,34 4,5 11,7 23,8l0 5c-5,0 -11,-1 -17,-2 -6,0 -12,-2 -19,-3 -6,1 -12,2 -18,3 -6,1 -12,1 -18,2l0 -5c8,-1 14,-3 18,-5 3,-2 5,-7 7,-13 1,-4 2,-8 3,-14 1,-6 1,-15 2,-29 2,-24 4,-44 5,-60 1,-16 1,-29 1,-38l0 -6c0,-17 -2,-28 -5,-31 -4,-4 -12,-6 -24,-7l0 -5zm297 0c5,0 11,0 18,1 6,1 13,2 20,4 10,-2 21,-3 34,-4 13,-1 30,-1 50,-1 12,0 19,0 22,1 3,1 4,3 4,5 0,1 0,2 -1,3 0,1 -1,3 -3,5 0,5 1,9 1,13 1,4 1,7 1,10l0 8 -6 0c-1,-13 -5,-22 -11,-26 -6,-5 -18,-7 -38,-7l-33 0c-1,4 -1,9 -1,14 0,5 0,12 0,20l0 17 0 34 33 0c19,0 30,-1 35,-3 4,-3 7,-7 8,-14l6 0c-1,3 -1,7 -2,11 -1,4 -2,8 -3,12 1,4 2,8 3,12 0,4 1,8 1,12l-6 0c-1,-7 -3,-12 -8,-15 -4,-3 -14,-4 -31,-4l-5 0 -31 0 0 48c0,22 2,35 5,39 4,4 14,6 30,6 26,0 43,-3 51,-9 9,-6 15,-16 18,-32l6 0c-1,7 -2,14 -3,20 -2,5 -4,11 -6,16 1,2 2,3 2,5 0,1 0,2 0,3 0,4 -1,6 -4,7 -3,1 -10,2 -20,2 -1,0 -5,0 -11,0 -5,0 -10,0 -13,0 -17,0 -30,-1 -42,-2 -12,0 -22,-1 -31,-3 -6,1 -13,2 -19,3 -7,1 -14,1 -20,2l0 -5c11,0 19,-4 23,-10 4,-6 6,-23 6,-51l0 -6c0,0 0,-2 0,-5 0,-3 0,-6 0,-8l0 -43c0,-1 0,-4 0,-9 0,-4 0,-8 0,-11 0,-27 -2,-44 -6,-50 -4,-7 -12,-10 -23,-10l0 -5zm183 0c6,0 11,0 17,1 5,1 10,1 16,2 3,-1 6,-2 8,-2 2,-1 4,-1 5,-1 5,0 23,20 57,59 33,40 65,76 96,108l0 -51c0,-39 -1,-65 -2,-77 -1,-12 -2,-21 -5,-24 -2,-3 -4,-5 -7,-7 -4,-1 -8,-2 -14,-3l0 -5c4,0 9,1 15,1 5,1 12,2 19,4 8,-2 14,-3 19,-4 5,0 9,-1 13,-1l0 5c-7,1 -12,2 -14,4 -3,2 -5,6 -7,11 -1,7 -3,21 -4,41 -1,20 -1,43 -1,70l0 72c0,0 0,2 0,5 0,2 0,5 0,8l-10 -1c-38,-46 -69,-83 -93,-109 -23,-26 -44,-49 -63,-69l0 63c0,27 0,47 1,62 1,15 2,25 3,30 2,5 5,8 9,11 4,3 10,4 17,5l0 5c-5,0 -11,-1 -17,-2 -6,0 -12,-2 -19,-3 -8,1 -15,2 -20,3 -5,1 -10,1 -14,2l0 -5c11,0 18,-5 22,-13 4,-8 6,-30 6,-66l0 -14 0 -56c0,-24 -3,-39 -7,-45 -5,-6 -13,-9 -26,-9l0 -5z"/>
   <path class="fil0" d="M6466 3772l6 0 0 1c0,2 2,4 6,5 3,1 12,1 26,1l14 0 43 0 44 0 13 0c14,0 23,0 27,-1 4,-1 5,-3 5,-5l0 -1 6 0c0,4 0,7 0,10 0,4 -1,7 -2,10 2,7 4,12 5,18 1,5 1,10 2,15l-7 0c-3,-23 -24,-36 -61,-37 0,0 -1,0 -1,0l-16 0c0,11 0,23 -1,35 0,12 0,26 0,41l0 53c0,20 0,33 1,41 1,8 2,14 4,18 2,3 5,6 10,8 4,1 11,2 19,3l0 5c-7,0 -15,-1 -22,-2 -8,0 -17,-2 -26,-3 -9,1 -18,3 -26,3 -8,1 -15,2 -22,2l0 -5c9,-1 15,-2 20,-3 5,-2 8,-5 9,-8 2,-4 3,-10 4,-18 1,-7 1,-21 1,-40l0 -11 0 -43c0,-21 0,-37 0,-48 -1,-10 -1,-19 -2,-28l-15 0c-26,0 -42,2 -49,7 -6,5 -11,15 -13,30l-6 0c0,-5 1,-11 2,-16 1,-5 2,-11 4,-16 -1,-3 -1,-6 -1,-10 -1,-3 -1,-6 -1,-11zm290 7c6,0 12,1 19,1 6,1 14,2 24,4 11,-2 19,-3 25,-4 6,0 11,-1 16,-1l0 5c-7,1 -12,2 -15,4 -4,2 -7,4 -8,8 -1,4 -3,12 -4,24 0,11 -1,26 -1,46 0,24 1,42 3,55 2,13 5,23 9,30 5,10 13,17 22,22 9,5 20,8 33,8 25,0 43,-8 54,-24 11,-16 16,-43 16,-82l0 -35c0,-24 -2,-39 -6,-45 -3,-7 -11,-11 -23,-11l0 -5c6,0 12,1 18,1 5,1 11,2 17,4 6,-2 12,-3 18,-4 6,0 11,-1 16,-1l0 5c-11,0 -18,4 -21,9 -4,6 -6,22 -6,47l0 12 0 25c0,41 -7,71 -21,90 -15,19 -37,28 -68,28 -18,0 -34,-3 -46,-8 -13,-6 -23,-14 -29,-25 -5,-8 -8,-18 -10,-29 -2,-11 -3,-26 -3,-46l0 -49c0,-24 -2,-39 -6,-44 -4,-6 -12,-10 -23,-10l0 -5zm453 0l0 5c-17,0 -38,13 -64,39l0 0 -44 46 40 54c18,25 33,42 45,51 12,9 25,13 39,13 0,0 1,0 2,0 1,0 2,0 3,0l0 5c-6,1 -12,1 -17,2 -5,0 -10,1 -13,1 -13,0 -23,-2 -31,-6 -9,-4 -17,-9 -24,-18 -5,-6 -16,-19 -32,-41 -16,-21 -28,-38 -38,-50l77 -87c5,-6 8,-9 10,-11 2,-1 4,-2 6,-2 1,0 2,0 4,0 2,1 3,2 6,3 6,-2 11,-3 16,-3 6,-1 10,-1 15,-1zm-204 0c6,0 13,1 19,1 7,1 15,2 25,4 10,-2 19,-3 24,-4 6,0 11,-1 16,-1l0 5c-11,1 -17,4 -21,11 -4,6 -5,20 -5,43l0 26 0 68c0,23 2,38 5,45 4,6 12,9 23,10l0 5c-5,-1 -12,-1 -19,-2 -7,-1 -14,-2 -23,-3 -9,1 -17,2 -24,3 -7,1 -14,1 -20,2l0 -5c12,-1 20,-4 24,-10 4,-7 6,-22 6,-47l0 -23 0 -66c0,-25 -2,-41 -6,-47 -4,-6 -12,-10 -24,-10l0 -5z"/>
  </g>
 </g>
</svg>
