<?xml version="1.0" encoding="UTF-8"?>
<!DOCTYPE svg PUBLIC "-//W3C//DTD SVG 1.1//EN" "http://www.w3.org/Graphics/SVG/1.1/DTD/svg11.dtd">
<!-- Creator: CorelDRAW X7 -->
<svg xmlns="http://www.w3.org/2000/svg" xml:space="preserve" width="54.394mm" height="22.4101mm" version="1.1" style="shape-rendering:geometricPrecision; text-rendering:geometricPrecision; image-rendering:optimizeQuality; fill-rule:evenodd; clip-rule:evenodd"
viewBox="0 0 1114 459"
 xmlns:xlink="http://www.w3.org/1999/xlink">
 <defs>
  <style type="text/css">
   <![CDATA[
    .fil0 {fill:#FEFEFE}
   ]]>
  </style>
 </defs>
 <g id="Layer_x0020_1">
  <metadata id="CorelCorpID_0Corel-Layer"/>
  <g id="_1616628338800">
   <path class="fil0" d="M684 189l0 165 54 0c1,-20 -2,-160 1,-164 -2,-20 13,-51 39,-55 15,-2 28,2 38,8 9,5 18,15 22,26 4,11 3,30 3,44 0,14 -1,138 0,142l55 0c1,-7 0,-149 0,-169 1,-19 10,-34 25,-44 8,-4 16,-7 27,-7 23,-2 35,10 43,24 10,17 8,37 8,59 0,46 0,91 0,137l55 0c1,-41 0,-83 0,-125 0,-19 1,-41 -2,-59 -3,-17 -9,-33 -18,-45 -8,-11 -18,-21 -32,-29 -29,-17 -70,-21 -100,-6 -13,7 -20,14 -30,24 -1,2 -2,3 -4,4l-9 -10c-11,-11 -23,-19 -39,-24 -41,-12 -93,5 -117,41 -5,9 -9,17 -13,28 -3,7 -7,27 -6,35z"/>
   <path class="fil0" d="M425 355l54 0c0,-4 0,-138 0,-141 0,-27 0,-40 14,-57 11,-11 27,-21 50,-21 24,0 38,11 48,22 14,16 16,29 16,55 0,7 -1,138 0,142l54 0c0,-5 0,-111 0,-119 0,-37 2,-68 -20,-99 -14,-21 -36,-42 -68,-51 -17,-4 -37,-4 -54,0 -25,6 -34,17 -40,20l0 -106 -54 0c0,2 -1,351 0,355z"/>
   <path class="fil0" d="M127 132c13,-1 26,0 37,4 16,6 21,13 31,22 1,1 3,3 4,5 26,33 24,78 -1,109 -11,13 -28,27 -54,30 -30,2 -55,-9 -72,-32 -25,-33 -24,-78 1,-108 14,-17 32,-27 54,-30zm-5 -53c-21,2 -37,8 -52,17 -6,3 -10,6 -15,10 -2,1 -3,3 -5,4 -11,10 -23,23 -31,37 -34,60 -21,132 28,174 6,6 11,10 19,15 40,24 95,25 135,1 13,-7 19,-12 29,-22l8 -9c9,-10 20,-27 25,-43 14,-36 10,-78 -8,-112 -7,-12 -13,-20 -22,-30 -12,-13 -31,-27 -51,-34 -18,-7 -39,-10 -60,-8z"/>
   <path class="fil0" d="M405 355l1 -48c-9,-1 -17,0 -27,-2 -30,-6 -30,-29 -30,-55 0,-38 0,-76 0,-114l56 0 1 -51 -57 0 0 -85 -53 0c-1,7 -1,227 -1,233 0,27 -2,53 9,78 6,13 16,23 28,30 20,11 50,15 73,14z"/>
   <path class="fil0" d="M998 444l55 0c0,-17 1,-36 0,-52l-55 0 0 52z"/>
   <polygon class="fil0" points="772,444 827,444 827,392 772,392 "/>
   <polygon class="fil0" points="849,444 905,444 905,392 850,392 "/>
   <polygon class="fil0" points="924,444 979,444 979,392 924,392 "/>
   <path class="fil0" d="M160 396c12,-2 22,6 24,16 2,12 -7,22 -17,23 -27,5 -34,-34 -7,-39zm31 63c1,-9 0,-21 0,-30 0,-9 1,-19 -3,-26 -7,-11 -24,-20 -40,-9 -13,8 -17,26 -5,39 4,5 11,9 20,9 13,0 17,-6 21,-8l0 25 7 0z"/>
   <path class="fil0" d="M1074 41c18,-2 32,11 34,26 2,19 -11,33 -27,35 -18,2 -32,-12 -34,-28 -2,-18 12,-31 27,-33zm-1 -5c-10,1 -18,5 -23,13 -6,7 -10,15 -8,27 2,18 19,34 40,31 19,-3 34,-19 31,-41 -2,-18 -19,-33 -40,-30z"/>
   <path class="fil0" d="M485 419c-2,-12 7,-21 17,-23 12,-2 22,6 23,16 2,12 -6,22 -16,23 -12,2 -22,-6 -24,-16zm41 15l0 7 7 0c0,-9 0,-18 0,-27 -1,-22 -30,-35 -48,-16 -8,7 -10,19 -5,30 7,12 24,18 37,11 4,-2 6,-4 9,-5z"/>
   <path class="fil0" d="M270 419c-5,-27 36,-32 40,-7 2,12 -7,22 -17,23 -11,2 -22,-6 -23,-16zm40 14l0 8 8 0c0,-9 0,-18 0,-27 -1,-15 -15,-26 -30,-25 -23,1 -36,30 -16,47 4,4 12,7 20,6 10,-1 14,-5 18,-9z"/>
   <path class="fil0" d="M618 396c12,-2 22,7 23,17 2,11 -7,21 -17,22 -27,4 -33,-36 -6,-39zm-25 22c1,14 15,25 31,24 14,-1 26,-13 24,-29 -1,-14 -14,-25 -30,-24 -14,1 -26,14 -25,29z"/>
   <path class="fil0" d="M472 426l-8 0c-6,8 -14,11 -24,9 -9,-2 -16,-10 -16,-19 0,-22 31,-28 40,-10l8 0c-3,-11 -17,-19 -32,-17 -12,3 -23,12 -23,26 -1,14 10,24 22,27 8,1 15,0 21,-3 5,-2 11,-8 12,-13z"/>
   <path class="fil0" d="M659 441l8 0c0,-10 -1,-21 0,-31 1,-19 31,-19 33,0 1,9 0,21 0,31l7 0c0,-8 1,-30 -1,-36 -7,-21 -38,-21 -45,-1 -3,7 -2,29 -2,37z"/>
   <path class="fil0" d="M250 391l-7 -1c0,10 1,21 0,31 -1,19 -31,19 -33,0 -1,-9 0,-21 0,-31l-7 0c-1,8 -1,30 1,37 2,8 11,15 22,15 12,0 20,-6 23,-15 2,-6 1,-28 1,-36z"/>
   <path class="fil0" d="M1072 56c6,0 14,-1 14,6 1,7 -8,6 -14,6l0 -12zm15 17c0,0 0,-1 0,-1l3 -1c1,0 1,0 2,-2 1,-1 2,-2 3,-4 1,-6 -1,-10 -4,-12 -6,-3 -21,-3 -28,-3l0 41 8 0 1 -17 6 0 8 17 9 0 -8 -18z"/>
   <path class="fil0" d="M719 426c0,10 9,18 21,16 8,-2 16,-11 12,-21 -5,-11 -18,-8 -23,-14 -4,-6 3,-15 12,-10 2,1 2,2 3,6l7 0c1,-10 -11,-17 -21,-13 -9,4 -13,14 -5,23 6,6 22,3 20,15 0,5 -5,8 -11,8 -7,-1 -7,-7 -8,-10l-7 0z"/>
   <path class="fil0" d="M374 390c0,-8 5,-11 14,-11l0 -7c-20,1 -21,11 -21,25 0,14 0,29 0,44l7 0 0 -44 14 0 0 -7 -14 0z"/>
   <path class="fil0" d="M564 436c-10,0 -13,-4 -13,-13 0,-9 0,-18 1,-26l12 0 0 -7 -13 0 0 -17 -7 0c0,14 0,29 0,44 0,14 -1,24 20,25l0 -6z"/>
   <polygon class="fil0" points="329,441 336,441 336,372 329,372 329,375 329,433 329,438 "/>
   <polygon class="fil0" points="348,441 350,441 355,441 355,438 355,398 355,396 355,390 348,390 "/>
   <polygon class="fil0" points="574,441 581,441 581,390 574,390 "/>
   <polygon class="fil0" points="398,441 405,441 405,390 398,390 398,439 "/>
   <path class="fil0" d="M739 190c-3,4 0,144 -1,164l-54 0 0 -165c-2,3 -1,107 -1,124 0,8 -1,37 0,42l55 0c1,-4 1,-110 1,-124 0,-13 0,-28 0,-41z"/>
   <polygon class="fil0" points="398,384 405,384 405,372 398,372 "/>
   <polygon class="fil0" points="348,384 355,384 355,373 348,372 "/>
   <polygon class="fil0" points="574,384 581,384 581,372 574,372 "/>
  </g>
 </g>
</svg>
