<?xml version="1.0" encoding="iso-8859-1"?>
<!-- Generator: Adobe Illustrator 19.0.0, SVG Export Plug-In . SVG Version: 6.00 Build 0)  -->
<svg version="1.1" id="Capa_1" xmlns="http://www.w3.org/2000/svg" xmlns:xlink="http://www.w3.org/1999/xlink" x="0px" y="0px"
	 viewBox="0 0 512 512" style="enable-background:new 0 0 512 512;" xml:space="preserve">
<g>
	<g>
		<path d="M511.812,124.067c-0.004-0.086-0.006-0.172-0.013-0.257c-0.026-0.323-0.069-0.642-0.136-0.955
			c-0.011-0.05-0.027-0.098-0.038-0.147c-0.064-0.273-0.145-0.541-0.239-0.805c-0.029-0.082-0.058-0.164-0.091-0.245
			c-0.12-0.302-0.253-0.598-0.411-0.882c-0.012-0.022-0.027-0.042-0.04-0.064c-0.152-0.267-0.324-0.521-0.508-0.769
			c-0.052-0.07-0.105-0.138-0.159-0.206c-0.21-0.262-0.431-0.515-0.676-0.749L386.59,2.065c-0.001-0.001-0.002-0.001-0.002-0.001
			c-0.24-0.228-0.497-0.432-0.761-0.624c-0.064-0.046-0.127-0.092-0.192-0.136c-0.264-0.18-0.536-0.346-0.819-0.49
			c-0.035-0.018-0.071-0.031-0.106-0.048c-0.259-0.126-0.525-0.235-0.797-0.331c-0.071-0.025-0.14-0.051-0.212-0.073
			c-0.3-0.096-0.606-0.176-0.917-0.234c-0.046-0.009-0.092-0.012-0.138-0.02c-0.276-0.046-0.556-0.074-0.837-0.089
			c-0.074-0.004-0.147-0.009-0.221-0.011C381.534,0.007,381.479,0,381.424,0h-231.84c-6.888,0-12.492,5.604-12.492,12.492V87.26
			H62.726c-6.888,0-12.492,5.604-12.492,12.492v82.774c0,6.888,5.604,12.492,12.492,12.492h74.366v28.467H12.662
			c-6.888,0-12.492,5.604-12.492,12.492v189.295c0,6.888,5.604,12.492,12.492,12.492h124.431v61.744
			c0,6.888,5.604,12.492,12.492,12.492h50.996c4.139,0,7.495-3.355,7.495-7.495c0-4.14-3.356-7.495-7.495-7.495h-48.497v-59.246
			h236.415c6.888,0,12.492-5.604,12.492-12.492V235.977c0-6.888-5.604-12.492-12.492-12.492H152.083v-28.467h58.04
			c6.888,0,12.492-5.604,12.492-12.492V99.752c0-6.888-5.604-12.492-12.492-12.492h-58.04V14.99h221.846v104.432
			c0,6.888,5.604,12.492,12.492,12.492H496.84v82.713c0,4.14,3.356,7.495,7.495,7.495c4.139,0,7.495-3.355,7.495-7.495v-90.208
			C511.83,124.301,511.817,124.185,511.812,124.067z M385.999,422.774H144.704c-0.039,0-0.077-0.006-0.116-0.006
			s-0.077,0.005-0.116,0.006H15.16V249.659l182.02,95.122c1.066,0.556,2.233,0.835,3.4,0.835s2.333-0.279,3.4-0.835l182.019-95.122
			V422.774z M375.112,238.475l-174.532,91.21l-174.533-91.21H375.112z M207.624,102.251v77.777H65.225v-77.777H207.624z
			 M388.919,116.924V24.97l96.662,91.954H388.919z"/>
	</g>
</g>
<g>
	<g>
		<path d="M504.335,260.828c-4.139,0-7.495,3.355-7.495,7.495v224.19c0,2.084-0.117,3.527-0.252,4.497H254.336
			c-4.139,0-7.495,3.355-7.495,7.495c0,4.14,3.356,7.495,7.495,7.495h245.002c5.699,0,12.492-3.381,12.492-19.487v-224.19
			C511.83,264.183,508.474,260.828,504.335,260.828z"/>
	</g>
</g>
<g>
</g>
<g>
</g>
<g>
</g>
<g>
</g>
<g>
</g>
<g>
</g>
<g>
</g>
<g>
</g>
<g>
</g>
<g>
</g>
<g>
</g>
<g>
</g>
<g>
</g>
<g>
</g>
<g>
</g>
</svg>
