<svg height="480pt" viewBox="0 0 480 480" width="480pt" xmlns="http://www.w3.org/2000/svg"><path d="m88 376c-22.089844 0-40-17.910156-40-40s17.910156-40 40-40 40 17.910156 40 40c-.027344 22.082031-17.917969 39.972656-40 40zm0-64c-13.253906 0-24 10.746094-24 24s10.746094 24 24 24 24-10.746094 24-24-10.746094-24-24-24zm0 0"/><path d="m160 480h-144v-56c.027344-22.082031 17.917969-39.972656 40-40h64c22.082031.027344 39.972656 17.917969 40 40zm-128-16h112v-40c0-13.253906-10.746094-24-24-24h-64c-13.253906 0-24 10.746094-24 24zm0 0"/><path d="m240 376c-22.089844 0-40-17.910156-40-40s17.910156-40 40-40 40 17.910156 40 40c-.027344 22.082031-17.917969 39.972656-40 40zm0-64c-13.253906 0-24 10.746094-24 24s10.746094 24 24 24 24-10.746094 24-24-10.746094-24-24-24zm0 0"/><path d="m312 480h-144v-56c.027344-22.082031 17.917969-39.972656 40-40h64c22.082031.027344 39.972656 17.917969 40 40zm-128-16h112v-40c0-13.253906-10.746094-24-24-24h-64c-13.253906 0-24 10.746094-24 24zm0 0"/><path d="m392 376c-22.089844 0-40-17.910156-40-40s17.910156-40 40-40 40 17.910156 40 40c-.027344 22.082031-17.917969 39.972656-40 40zm0-64c-13.253906 0-24 10.746094-24 24s10.746094 24 24 24 24-10.746094 24-24-10.746094-24-24-24zm0 0"/><path d="m464 480h-144v-56c.027344-22.082031 17.917969-39.972656 40-40h64c22.082031.027344 39.972656 17.917969 40 40zm-128-16h112v-40c0-13.253906-10.746094-24-24-24h-64c-13.253906 0-24 10.746094-24 24zm0 0"/><path d="m480 336h-40v-16h24v-304h-448v304h24v16h-40v-336h480zm0 0"/><path d="m104 264h344v16h-344zm0 0"/><path d="m80 256h16v32h-16zm0 0"/><path d="m32 264h40v16h-40zm0 0"/><path d="m184 221.679688v-171.359376l152.320312 85.679688zm16-144v116.640624l103.679688-58.320312zm0 0"/><path d="m136 320h56v16h-56zm0 0"/><path d="m288 320h56v16h-56zm0 0"/></svg>