<svg id="Layer_1" enable-background="new 0 0 512 512" height="512" viewBox="0 0 512 512" width="512" xmlns="http://www.w3.org/2000/svg"><g><path d="m281.297 360.93c4.143 0 7.5-3.358 7.5-7.5s-3.357-7.5-7.5-7.5h-50.594c-4.143 0-7.5 3.358-7.5 7.5s3.357 7.5 7.5 7.5z"/><path d="m480.787 19.376h-96.481c-4.143 0-7.5 3.358-7.5 7.5s3.357 7.5 7.5 7.5h96.481c8.939 0 16.213 7.273 16.213 16.213v265.974h-482v-265.974c0-8.94 7.273-16.213 16.213-16.213h318.093c4.143 0 7.5-3.358 7.5-7.5s-3.357-7.5-7.5-7.5h-318.093c-17.211 0-31.213 14.002-31.213 31.213v308.761c0 17.211 14.002 31.213 31.213 31.213h71.801c4.143 0 7.5-3.358 7.5-7.5s-3.357-7.5-7.5-7.5h-71.801c-8.94 0-16.213-7.273-16.213-16.213v-27.787h482v27.787c0 8.94-7.273 16.213-16.213 16.213h-343.103c-4.143 0-7.5 3.358-7.5 7.5s3.357 7.5 7.5 7.5h47.205l-7.517 43.442c-9.43.904-18.712 1.975-27.823 3.213-23.82 3.234-41.783 23.829-41.783 47.906 0 2.245 1.005 4.371 2.739 5.796 1.735 1.425 4.02 1.998 6.218 1.561 41.255-8.172 89.416-12.492 139.277-12.492s98.022 4.32 139.278 12.492c.483.096.972.143 1.457.143 1.722 0 3.407-.593 4.76-1.704 1.735-1.425 2.74-3.551 2.74-5.796 0-24.077-17.963-44.672-41.783-47.906-9.112-1.237-18.393-2.308-27.823-3.212l-7.517-43.443h153.674c17.211 0 31.213-14.002 31.213-31.213v-308.761c.001-17.211-14.001-31.213-31.212-31.213zm-92.879 456.456c-39.813-7.104-85.161-10.843-131.908-10.843-46.748 0-92.096 3.738-131.907 10.843 3.61-12.36 14.229-21.953 27.474-23.751 32.856-4.461 67.992-6.723 104.434-6.723 36.439 0 71.576 2.262 104.435 6.723 13.244 1.799 23.862 11.391 27.472 23.751zm-68.731-43.149c-20.491-1.546-41.615-2.325-63.177-2.325s-42.685.779-63.176 2.324l7.287-42.12h111.779z"/><path d="m233.64 106.051h-25.851l-21.717-42.684c-1.279-2.515-3.862-4.099-6.685-4.099s-5.405 1.584-6.685 4.099l-35.394 69.565-29.867-58.705c-1.279-2.515-3.862-4.099-6.685-4.099s-5.405 1.584-6.685 4.099l-16.19 31.823h-25.85c-4.143 0-7.5 3.358-7.5 7.5s3.357 7.5 7.5 7.5h30.45c2.822 0 5.405-1.584 6.685-4.099l11.592-22.783 29.867 58.705c1.279 2.515 3.862 4.099 6.685 4.099s5.405-1.584 6.685-4.099l35.394-69.566 17.118 33.645c1.279 2.515 3.862 4.099 6.685 4.099h30.449c4.143 0 7.5-3.358 7.5-7.5s-3.359-7.5-7.501-7.5z"/><path d="m233.64 183.435h-178.672c-4.143 0-7.5 3.358-7.5 7.5s3.357 7.5 7.5 7.5h178.672c4.143 0 7.5-3.358 7.5-7.5s-3.358-7.5-7.5-7.5z"/><path d="m54.968 243.435h163.615c4.143 0 7.5-3.358 7.5-7.5s-3.357-7.5-7.5-7.5h-163.615c-4.143 0-7.5 3.358-7.5 7.5s3.357 7.5 7.5 7.5z"/><path d="m54.968 288.363h178.672c4.143 0 7.5-3.358 7.5-7.5s-3.357-7.5-7.5-7.5h-178.672c-4.143 0-7.5 3.358-7.5 7.5s3.357 7.5 7.5 7.5z"/><path d="m458.734 183.47h-29.214c-4.143 0-7.5 3.358-7.5 7.5s3.357 7.5 7.5 7.5h29.215c4.143 0 7.5-3.358 7.5-7.5s-3.358-7.5-7.501-7.5z"/><path d="m394.417 183.47h-114.354c-4.143 0-7.5 3.358-7.5 7.5s3.357 7.5 7.5 7.5h114.354c4.143 0 7.5-3.358 7.5-7.5s-3.357-7.5-7.5-7.5z"/><path d="m280.063 273.399c-4.143 0-7.5 3.358-7.5 7.5s3.357 7.5 7.5 7.5h163.615c4.143 0 7.5-3.358 7.5-7.5s-3.357-7.5-7.5-7.5z"/><path d="m272.563 235.97c0 4.142 3.357 7.5 7.5 7.5h178.672c4.143 0 7.5-3.358 7.5-7.5s-3.357-7.5-7.5-7.5h-178.672c-4.143 0-7.5 3.358-7.5 7.5z"/><path d="m466.234 86.563c0-4.142-3.357-7.5-7.5-7.5h-38.025c-4.143 0-7.5 3.358-7.5 7.5v62.909c0 4.142 3.357 7.5 7.5 7.5h38.025c4.143 0 7.5-3.358 7.5-7.5zm-15 55.409h-23.025v-47.909h23.025z"/><path d="m388.771 110.518h-38.025c-4.143 0-7.5 3.358-7.5 7.5v31.455c0 4.142 3.357 7.5 7.5 7.5h38.025c4.143 0 7.5-3.358 7.5-7.5v-31.455c0-4.142-3.358-7.5-7.5-7.5zm-7.5 31.454h-23.025v-16.455h23.025z"/><path d="m281.297 156.972h38.025c4.143 0 7.5-3.358 7.5-7.5v-82.704c0-4.142-3.357-7.5-7.5-7.5h-38.025c-4.143 0-7.5 3.358-7.5 7.5v82.704c0 4.142 3.357 7.5 7.5 7.5zm7.5-82.704h23.025v67.704h-23.025z"/></g></svg>