<svg height="630pt" viewBox="-19 -121 630.66623 630" width="630pt" xmlns="http://www.w3.org/2000/svg"><path d="m585.691406 141.921875c5.621094-4.222656 7.207032-11.976563 3.703125-18.074219l-40.058593-67.378906c-3.992188-6.636719-11.050782-8.746094-17.257813-5.183594l-43.101563 19.835938c-9.710937-7.128906-20.164062-13.179688-31.175781-18.050782l-4.351562-47.925781-.140625-.601562c-1.53125-6.484375-6.902344-11.027344-13.054688-11.027344h-78.242187c-6.863281 0-12.890625 5.445313-13.230469 11.777344l-2.523438 27.917969h-293.890624c-26.273438.039062-48.464844 19.511718-51.910157 45.554687-.4179685 1.261719-.550781 2.597656-.3749998 3.914063-.0546874.960937-.0820312 1.929687-.0820312 2.902343v204.46875c-.0078125 12.167969 4.234375 23.960938 12 33.324219.660156 1.21875 1.59375 2.261719 2.742188 3.042969 9.839843 10.226562 23.429687 16.007812 37.625 16h292.074218l2.554688 28.070312.144531.597657c1.527344 6.484374 6.894531 11.023437 13.046875 11.023437h78.25c6.851562 0 12.882812-5.4375 13.222656-11.773437l4.332032-47.78125c11.109374-4.703126 21.605468-10.75 31.25-18l43.167968 19.863281.449219.191406c6.164063 2.429687 13.683594-.035156 16.628906-5.382813l39.125-67.355468c3.617188-6.117188 2.011719-13.984375-3.707031-18.203125l-36.308594-27.65625c2.019532-12.019531 2.023438-24.28125.011719-36.300781l38.886719-27.648438zm-533.324218-91.246094h305.457031c16.367187.023438 30.527343 11.402344 34.082031 27.378907l-167 141.632812c-11.375 9.703125-28.109375 9.707031-39.492188.019531l-167.152343-141.535156c3.503906-16.035156 17.695312-27.472656 34.105469-27.496094zm357.824218 69.941407c33.390625 4.5 58.339844 32.394531 58.339844 67.199218 0 34.800782-24.949219 62.695313-58.332031 67.199219zm-377.75 198.066406 91.234375-93.320313c3.324219-3.457031 3.238281-8.945312-.1875-12.292969-3.425781-3.351562-8.914062-3.3125-12.296875.082032l-90.171875 92.234375c-2.34375-4.769531-3.558593-10.019531-3.554687-15.335938v-189.671875l156.671875 132.65625c17.886719 15.230469 44.191406 15.21875 62.066406-.023437l156.527344-132.761719v189.800781c.003906 5.335938-1.222657 10.609375-3.59375 15.394531l-90.714844-92.304687c-3.382813-3.441406-8.914063-3.492187-12.355469-.109375-3.4375 3.382812-3.480468 8.90625-.105468 12.347656l91.734374 93.335938c-5.828124 4.066406-12.761718 6.242187-19.871093 6.234375h-305.457031c-7.128907.011719-14.082032-2.175781-19.925782-6.265625zm495.382813-157.039063 1.144531 8.042969c1.003906 5.992188 1.570312 12.050781 1.683594 18.128906-.113282 6.070313-.675782 12.125-1.679688 18.109375l-1.121094 7.757813 42.117188 32.082031-35.585938 61.253906-49.722656-22.878906-6.4375 5.265625c-7.988281 6.535156-18.253906 12.457031-31.390625 18.089844l-7.292969 3.117187-4.898437 54.027344h-70.640625l-2.039062-22.410156c12.703124-1 24.605468-6.613281 33.453124-15.785157 1.148438-.777343 2.09375-1.828124 2.753907-3.050781 7.78125-9.367187 12.039062-21.171875 12.023437-33.351562v-17.429688c43.203125-4.597656 75.804688-40.183593 75.804688-84.796875 0-44.617187-32.601563-80.203125-75.796875-84.796875v-17.4375c0-1.007812-.035157-1.996093-.09375-2.996093.183593-1.359376.054687-2.742188-.394531-4.042969-3.253907-23.722657-22.160157-42.234375-45.945313-44.988281l2.042969-22.574219h70.644531l4.902344 54.023437 7.304687 3.121094c11.324219 4.816406 22.007813 11.007812 31.824219 18.429688l6.347656 4.765624 49.402344-22.722656 36.378906 61.195313zm0 0"/></svg>