<?xml version="1.0" encoding="iso-8859-1"?>
<!-- Generator: Adobe Illustrator 19.0.0, SVG Export Plug-In . SVG Version: 6.00 Build 0)  -->
<svg version="1.1" id="Capa_1" xmlns="http://www.w3.org/2000/svg" xmlns:xlink="http://www.w3.org/1999/xlink" x="0px" y="0px"
	 viewBox="0 0 512 512" style="enable-background:new 0 0 512 512;" xml:space="preserve">
<g>
	<g>
		<g>
			<path d="M96.243,80c-4.8,0-8,3.2-8,8s3.2,8,8,8h8c4.8,0,8-3.2,8-8s-3.2-8-8-8H96.243z"/>
			<path d="M128.243,80c-4.8,0-8,3.2-8,8s3.2,8,8,8h8c4.8,0,8-3.2,8-8s-3.2-8-8-8H128.243z"/>
			<path d="M64.243,96h8c4.8,0,8-3.2,8-8s-3.2-8-8-8h-8c-4.8,0-8,3.2-8,8S59.443,96,64.243,96z"/>
			<path d="M232.243,328h-8c-4.8,0-8,3.2-8,8s3.2,8,8,8h8c4.8,0,8-3.2,8-8S237.043,328,232.243,328z"/>
			<path d="M200.243,344c4.8,0,8-3.2,8-8s-3.2-8-8-8h-8c-4.8,0-8,3.2-8,8s3.2,8,8,8H200.243z"/>
			<path d="M406.643,257.6c-7.2-0.8-14.4-1.6-22.4-1.6V88c0-2.4-0.8-4-2.4-5.6l-80-80c-1.6-1.6-3.2-2.4-5.6-2.4h-288
				c-4.8,0-8,3.2-8,8v496c0,4,3.2,8,8,8h368c0.8,0,1.6,0,2.4-0.8c1.6,0,4,0,5.6,0c61.6,0,114.4-44.8,125.6-105.6
				C521.843,336,476.243,269.6,406.643,257.6z M304.243,27.2l52.8,52.8h-52.8V27.2z M16.243,496V16h272v72c0,4.8,3.2,8,8,8h72v160.8
				c-56,7.2-99.2,48.8-108.8,104.8c-10.4,55.2,16.8,110.4,62.4,134.4H16.243z M493.843,403.2c-9.6,53.6-56,92.8-109.6,92.8
				c-2.4,0-5.6,0-8,0c-4,0-8-0.8-11.2-1.6c-60.8-10.4-100.8-68.8-90.4-129.6c8.8-51.2,51.2-88.8,101.6-92.8c2.4,0,4.8,0,8,0
				c6.4,0,12.8,0.8,19.2,1.6C464.243,284,504.243,342.4,493.843,403.2z"/>
			<path d="M216.243,448h-152c-4.8,0-8,3.2-8,8s3.2,8,8,8h152c4.8,0,8-3.2,8-8S221.043,448,216.243,448z"/>
			<path d="M64.243,64h104c4.8,0,8-3.2,8-8s-3.2-8-8-8h-104c-4.8,0-8,3.2-8,8S59.443,64,64.243,64z"/>
			<path d="M64.243,152h256c4.8,0,8-3.2,8-8s-3.2-8-8-8h-256c-4.8,0-8,3.2-8,8S59.443,152,64.243,152z"/>
			<path d="M64.243,184h256c4.8,0,8-3.2,8-8s-3.2-8-8-8h-256c-4.8,0-8,3.2-8,8S59.443,184,64.243,184z"/>
			<path d="M64.243,216h256c4.8,0,8-3.2,8-8s-3.2-8-8-8h-256c-4.8,0-8,3.2-8,8S59.443,216,64.243,216z"/>
			<path d="M64.243,248h256c4.8,0,8-3.2,8-8s-3.2-8-8-8h-256c-4.8,0-8,3.2-8,8S59.443,248,64.243,248z"/>
			<path d="M64.243,280h224c4.8,0,8-3.2,8-8s-3.2-8-8-8h-224c-4.8,0-8,3.2-8,8S59.443,280,64.243,280z"/>
			<path d="M264.243,304c0-4.8-3.2-8-8-8h-192c-4.8,0-8,3.2-8,8s3.2,8,8,8h192C261.043,312,264.243,308.8,264.243,304z"/>
			<path d="M64.243,344h104c4.8,0,8-3.2,8-8s-3.2-8-8-8h-104c-4.8,0-8,3.2-8,8S59.443,344,64.243,344z"/>
			<path d="M232.243,360h-168c-4.8,0-8,3.2-8,8s3.2,8,8,8h168c4.8,0,8-3.2,8-8S237.043,360,232.243,360z"/>
			<path d="M232.243,392h-168c-4.8,0-8,3.2-8,8s3.2,8,8,8h168c4.8,0,8-3.2,8-8S237.043,392,232.243,392z"/>
			<path d="M435.443,323.2l-91.2,89.6l-26.4-26.4c-3.2-3.2-8-3.2-11.2,0s-3.2,8,0,11.2l32,32c1.6,1.6,4,2.4,5.6,2.4
				c2.4,0,4-0.8,5.6-2.4l96.8-95.2c3.2-3.2,3.2-8,0-11.2S438.643,320,435.443,323.2z"/>
		</g>
	</g>
</g>
<g>
</g>
<g>
</g>
<g>
</g>
<g>
</g>
<g>
</g>
<g>
</g>
<g>
</g>
<g>
</g>
<g>
</g>
<g>
</g>
<g>
</g>
<g>
</g>
<g>
</g>
<g>
</g>
<g>
</g>
</svg>
