<?xml version="1.0" encoding="utf-8"?>
<!-- Generator: Adobe Illustrator 21.0.0, SVG Export Plug-In . SVG Version: 6.00 Build 0)  -->
<svg version="1.1" id="Payment_logos" xmlns="http://www.w3.org/2000/svg" xmlns:xlink="http://www.w3.org/1999/xlink" x="0px"
	 y="0px" viewBox="0 0 640 64" style="enable-background:new 0 0 640 64;" xml:space="preserve">
<style type="text/css">
	.st0{fill:#0E4595;}
	.st1{fill:#F2AE14;}
	.st2{fill:#7673C0;}
	.st3{fill:#EB001B;}
	.st4{fill:#00A1DF;}
	.st5{fill:#FF5F00;}
	.st6{fill:#F79E1B;}
	.st7{fill:#004A97;}
	.st8{fill:#FFFFFF;}
	.st9{fill:#0B1015;}
	.st10{fill:#E88137;}
	.st11{fill:url(#SVGID_1_);}
	.st12{fill:url(#SVGID_2_);}
	.st13{fill:url(#SVGID_3_);}
	.st14{fill:url(#C_1_);}
	.st15{fill:url(#J_1_);}
</style>
<title>payment-logos</title>
<g id="Visa">
	<g id="visa-2">
		<path id="Shape" class="st0" d="M240.5,45.2l4.5-26.1h7.1l-4.5,26.1H240.5z"/>
		<path id="path13" class="st0" d="M273.4,19.7c-2-0.8-4.2-1.1-6.4-1.1c-7.1,0-12,3.5-12.1,8.6c0,3.8,3.5,5.8,6.2,7.1
			c2.7,1.3,3.7,2.1,3.7,3.2c0,1.8-2.2,2.5-4.3,2.5c-2.3,0.1-4.6-0.4-6.7-1.3l-0.9-0.4l-1,5.8c2.5,0.9,5.2,1.4,7.9,1.4
			c7.5,0,12.3-3.5,12.4-8.9c0-3-1.9-5.2-6-7.1c-2.5-1.2-4-2-4-3.2c0-1.1,1.3-2.3,4-2.3c1.9,0,3.6,0.3,5.3,1l0.7,0.3L273.4,19.7"/>
		<path id="Path" class="st0" d="M291.7,19.1h-5.5c-1.7,0-3,0.4-3.7,2.2l-10.6,23.9h7.5c0,0,1.3-3.2,1.5-4h9.1
			c0.3,0.9,0.8,3.9,0.8,3.9h6.6L291.7,19.1z M282.9,35.9c0.6-1.5,2.9-7.3,2.9-7.3s0.6-1.5,0.9-2.5l0.5,2.3l1.6,7.5H282.9L282.9,35.9
			z"/>
		<path id="path16" class="st0" d="M234.4,19.1l-7,17.9l-0.8-3.6c-1.3-4.2-5.3-8.7-9.9-11l6.4,22.8h7.5l11.2-26L234.4,19.1"/>
		<path id="path18" class="st1" d="M220.9,19.1h-11.5l-0.1,0.5c8.9,2.2,14.8,7.4,17.3,13.7l-2.5-12
			C223.7,19.7,222.5,19.1,220.9,19.1"/>
	</g>
</g>
<g id="Maestro">
	<g>
		<path d="M130.3,51.7V49c0.1-0.8-0.6-1.6-1.5-1.7c-0.1,0-0.2,0-0.2,0c-0.6-0.1-1.2,0.2-1.5,0.7c-0.3-0.5-0.8-0.7-1.4-0.7
			c-0.5,0-1,0.2-1.2,0.7v-0.5h-0.9v4.2h0.9v-2.4c-0.1-0.5,0.3-1,0.8-1.1c0.1,0,0.2,0,0.2,0c0.6,0,0.9,0.4,0.9,1.1v2.3h0.9v-2.3
			c-0.1-0.6,0.3-1.1,0.8-1.1c0.1,0,0.1,0,0.2,0c0.7,0,0.9,0.4,0.9,1.1v2.3h1.1C130.3,51.6,130.3,51.7,130.3,51.7z M135.5,49.7v-2.1
			h-0.9v0.5c-0.3-0.4-0.8-0.7-1.3-0.6c-1.2,0-2.2,1-2.2,2.2s1,2.2,2.2,2.2c0.5,0,1-0.2,1.3-0.6v0.5h0.9V49.7z M132.1,49.7
			c0-0.7,0.7-1.2,1.3-1.2c0.7,0,1.2,0.7,1.2,1.3c0,0.7-0.6,1.2-1.2,1.2C132.7,51,132.1,50.4,132.1,49.7L132.1,49.7 M155.1,47.4
			c0.3,0,0.6,0.1,0.9,0.2c0.2,0.1,0.5,0.2,0.7,0.5c0.2,0.2,0.3,0.4,0.5,0.7c0.2,0.6,0.2,1.2,0,1.7c-0.1,0.2-0.2,0.5-0.5,0.7
			c-0.2,0.2-0.4,0.3-0.7,0.5c-0.6,0.2-1.2,0.2-1.8,0c-0.2-0.1-0.5-0.2-0.7-0.5c-0.2-0.2-0.3-0.4-0.5-0.7c-0.2-0.6-0.2-1.2,0-1.7
			c0.1-0.2,0.2-0.5,0.5-0.7c0.2-0.2,0.4-0.3,0.7-0.5C154.5,47.5,154.8,47.4,155.1,47.4 M155.1,48.2c-0.2,0-0.3,0-0.5,0.1
			s-0.3,0.2-0.4,0.2c-0.1,0.1-0.2,0.2-0.2,0.4c-0.2,0.3-0.2,0.7,0,1.1c0.1,0.2,0.2,0.3,0.2,0.4s0.2,0.2,0.4,0.2
			c0.3,0.2,0.7,0.2,1.1,0s0.6-0.4,0.7-0.7c0.2-0.3,0.2-0.7,0-1.1s-0.4-0.6-0.7-0.7C155.5,48.3,155.3,48.2,155.1,48.2 M140.5,49.6
			c0.1-1.1-0.7-2.1-1.8-2.2c-0.1,0-0.1,0-0.2,0c-1.2,0-2.2,1-2.2,2.2s1,2.2,2.2,2.2l0,0c0.7,0,1.2-0.2,1.7-0.6l-0.4-0.7
			c-0.3,0.2-0.7,0.4-1.2,0.4c-0.7,0.1-1.2-0.4-1.2-1h3.2C140.5,49.8,140.5,49.7,140.5,49.6 M137.3,49.2c0-0.6,0.5-1.1,1.1-1
			c0.6,0,1.1,0.4,1.1,1H137.3z M144.3,48.6c-0.4-0.2-0.8-0.3-1.3-0.3s-0.8,0.2-0.8,0.5s0.3,0.3,0.7,0.4l0.4,0.1
			c0.9,0.2,1.5,0.5,1.5,1.2s-0.7,1.4-1.9,1.4c-0.7,0-1.2-0.2-1.8-0.6l0.4-0.7c0.4,0.3,0.9,0.5,1.4,0.4c0.7,0,1-0.2,1-0.5
			s-0.2-0.3-0.7-0.4l-0.4-0.1c-0.9-0.2-1.4-0.6-1.4-1.2c0-0.8,0.7-1.3,1.7-1.3c0.6,0,1.2,0.2,1.7,0.4L144.3,48.6z M148.7,48.4h-1.5
			v1.9c0,0.4,0.2,0.7,0.6,0.7c0.2,0,0.6-0.1,0.8-0.2l0.2,0.7c-0.3,0.2-0.7,0.3-1.2,0.3c-1.1,0-1.4-0.6-1.4-1.6v-1.9h-0.7v-0.8h0.8
			v-1.2h0.9v1.2h1.5V48.4z M152,47.4c0.2,0,0.4,0,0.7,0.1l-0.2,0.8c-0.2-0.1-0.4-0.1-0.6-0.1c-0.6,0-0.9,0.4-0.9,1.1v2.3h-0.9v-4.2
			h0.9v0.5C151.1,47.7,151.5,47.4,152,47.4 M158.3,51.1c0.1,0,0.1,0,0.2,0c0.1,0.1,0.2,0.1,0.2,0.2c0,0.1,0,0.1,0,0.2s0,0.1,0,0.2
			s-0.1,0.1-0.1,0.2c0,0-0.1,0.1-0.2,0.1s-0.1,0-0.2,0s-0.1,0-0.2,0s-0.1-0.1-0.2-0.1c0,0-0.1-0.1-0.1-0.2c0-0.1,0-0.1,0-0.2
			c0-0.1,0-0.1,0-0.2s0.1-0.1,0.1-0.2c0,0,0.1-0.1,0.2-0.1C158.2,51.1,158.2,51.1,158.3,51.1 M158.3,51.8c0.1,0,0.1,0,0.2,0
			c0.1-0.1,0.2-0.2,0.2-0.3s0-0.1,0-0.2c0,0,0-0.1-0.1-0.1l-0.1-0.1c-0.1,0-0.1,0-0.2,0c-0.2,0-0.2,0.1-0.3,0.2
			c-0.1,0.1,0,0.2,0.1,0.3C158.1,51.8,158.2,51.9,158.3,51.8 M158.3,51.3L158.3,51.3l0.2,0.1v0.1h-0.1l0.2,0.2h-0.2l-0.1-0.2l0,0
			v0.2h-0.1L158.3,51.3L158.3,51.3z M158.2,51.4L158.2,51.4L158.2,51.4l0.2,0.1v-0.1l0,0H158.2L158.2,51.4z"/>
		<rect x="133.6" y="15.4" class="st2" width="13.9" height="24.9"/>
		<path class="st3" d="M134.4,27.9c0-4.9,2.2-9.5,6.1-12.5c-6.9-5.4-16.9-4.2-22.3,2.7S114,35,120.9,40.4c5.7,4.5,13.9,4.5,19.6,0
			C136.7,37.3,134.4,32.8,134.4,27.9"/>
		<path class="st4" d="M164.7,37.7v-0.5h0.2v-0.1h-0.5v0.1h0.2v0.5H164.7z M165.7,37.7v-0.6h-0.2l-0.2,0.4l-0.2-0.4h-0.2v0.6h0.1
			v-0.5l0.2,0.4h0.1l0.2-0.4v0.5H165.7z"/>
		<path class="st4" d="M166.2,27.9c0,8.7-7.1,15.9-15.9,15.9c-3.6,0-7-1.2-9.8-3.4c6.9-5.4,8.1-15.4,2.7-22.3
			c-0.7-1-1.7-1.9-2.7-2.7c6.9-5.4,16.9-4.2,22.3,2.7C165,20.9,166.2,24.3,166.2,27.9"/>
	</g>
</g>
<g id="Mastercard">
	<g>
		<path id="_Compound_Path_" d="M11.4,51.8v-2.7c0.1-0.8-0.6-1.6-1.5-1.7c-0.1,0-0.2,0-0.2,0c-0.6,0-1.2,0.2-1.5,0.7
			c-0.3-0.5-0.8-0.7-1.4-0.7c-0.5,0-0.9,0.2-1.2,0.7v-0.5H4.7v4.2h0.9v-2.3c-0.1-0.6,0.3-1.1,0.8-1.1c0.1,0,0.2,0,0.2,0
			c0.6,0,0.9,0.4,0.9,1.1v2.3h0.9v-2.3c-0.1-0.6,0.3-1.1,0.8-1.1c0.1,0,0.1,0,0.2,0c0.7,0,0.9,0.4,0.9,1.1v2.3H11.4z M25.1,47.5
			h-1.5v-1.2h-0.9v1.2h-0.8v0.8h0.8v1.9c0,1,0.3,1.6,1.4,1.6c0.4,0,0.8-0.1,1.2-0.3l-0.2-0.7C24.9,51,24.6,51,24.3,51
			c-0.4,0-0.6-0.2-0.6-0.7v-1.9h1.6L25.1,47.5L25.1,47.5z M32.9,47.4c-0.4,0-0.9,0.2-1.1,0.6v-0.5h-0.9v4.2h0.9v-2.4
			c0-0.7,0.3-1.1,0.9-1.1c0.2,0,0.4,0,0.6,0.1l0.2-0.8C33.3,47.4,33.1,47.4,32.9,47.4L32.9,47.4z M21.1,47.9
			c-0.5-0.3-1.1-0.5-1.7-0.4c-1.1,0-1.7,0.5-1.7,1.3c0,0.7,0.5,1.1,1.4,1.2l0.4,0.1c0.5,0.1,0.7,0.2,0.7,0.4s-0.3,0.5-1,0.5
			c-0.5,0-1-0.2-1.4-0.4l-0.4,0.7c0.5,0.4,1.2,0.6,1.8,0.6c1.2,0,1.9-0.6,1.9-1.4s-0.6-1.2-1.5-1.2l-0.4-0.1
			c-0.4-0.1-0.7-0.2-0.7-0.4s0.3-0.5,0.8-0.5s0.9,0.2,1.3,0.3L21.1,47.9z M45.6,47.4c-0.4,0-0.9,0.2-1.1,0.6v-0.5h-0.9v4.2h0.9v-2.4
			c0-0.7,0.3-1.1,0.9-1.1c0.2,0,0.4,0,0.6,0.1l0.2-0.8C46,47.4,45.8,47.4,45.6,47.4L45.6,47.4z M33.8,49.6c-0.1,1.2,0.9,2.2,2.1,2.2
			c0.1,0,0.2,0,0.2,0c0.6,0,1.1-0.2,1.5-0.5l-0.4-0.7c-0.3,0.2-0.7,0.4-1.1,0.4c-0.7-0.1-1.3-0.7-1.2-1.4s0.6-1.2,1.2-1.2
			c0.4,0,0.7,0.2,1.1,0.4l0.4-0.7c-0.4-0.3-1-0.5-1.5-0.5C34.9,47.4,33.9,48.4,33.8,49.6L33.8,49.6L33.8,49.6z M42.4,49.6v-2.2h-0.9
			v0.5c-0.3-0.4-0.8-0.7-1.3-0.6c-1.2,0.1-2.2,1.2-2.1,2.4c0.1,1.1,0.9,1.9,2.1,2.1c0.5,0,1-0.2,1.3-0.6v0.5h0.9V49.6z M38.9,49.6
			c0.1-0.7,0.7-1.2,1.3-1.2s1.2,0.7,1.2,1.3c0,0.7-0.6,1.2-1.2,1.2C39.5,50.9,38.9,50.3,38.9,49.6C38.9,49.7,38.9,49.7,38.9,49.6z
			 M27.9,47.4c-1.2,0-2.2,1-2.2,2.2s1,2.2,2.2,2.2c0.7,0,1.2-0.2,1.7-0.6l-0.4-0.7c-0.3,0.2-0.7,0.4-1.2,0.4c-0.7,0.1-1.2-0.4-1.2-1
			h3.1c0-0.1,0-0.2,0-0.3c0.1-1.1-0.7-2.1-1.8-2.2C28.1,47.4,28,47.4,27.9,47.4L27.9,47.4z M27.9,48.2c0.6,0,1.1,0.4,1.1,1l0,0h-2.3
			C26.8,48.7,27.3,48.2,27.9,48.2L27.9,48.2z M50.8,49.7v-3.8h-0.9v2.2c-0.3-0.4-0.8-0.7-1.3-0.6c-1.2,0.1-2.2,1.2-2.1,2.4
			c0.1,1.1,0.9,1.9,2.1,2.1c0.5,0,1-0.2,1.3-0.6v0.5h0.9V49.7z M47.5,49.7c0.1-0.7,0.7-1.2,1.3-1.2c0.7,0.1,1.2,0.7,1.2,1.3
			c0,0.7-0.6,1.2-1.2,1.2C48,51,47.5,50.4,47.5,49.7L47.5,49.7z M16.6,49.7v-2.2h-0.9V48c-0.3-0.4-0.8-0.7-1.3-0.6
			c-1.2,0.1-2.2,1.2-2.1,2.4c0.1,1.1,0.9,1.9,2.1,2.1c0.5,0,1-0.2,1.3-0.6v0.5h0.9V49.7z M13.2,49.7c0.1-0.7,0.7-1.2,1.3-1.2
			c0.7,0.1,1.2,0.7,1.2,1.3c0,0.7-0.6,1.2-1.2,1.2S13.2,50.5,13.2,49.7L13.2,49.7L13.2,49.7z"/>
		<g id="_Group_">
			<rect x="20.8" y="15.5" class="st5" width="13.8" height="24.9"/>
			<path id="_Path_" class="st3" d="M21.6,27.9c0-4.9,2.2-9.4,6-12.4c-6.9-5.4-16.8-4.2-22.2,2.7S1.2,35,8.1,40.5
				c5.7,4.6,13.8,4.6,19.6,0C23.8,37.3,21.6,32.8,21.6,27.9z"/>
			<path class="st6" d="M53.3,27.9c0,8.8-7.1,15.8-15.8,15.8c-3.6,0-7-1.2-9.8-3.4c6.9-5.4,8-15.4,2.7-22.3c-0.7-1-1.7-1.9-2.7-2.7
				c6.9-5.4,16.8-4.2,22.2,2.7C52.1,20.9,53.3,24.3,53.3,27.9L53.3,27.9z"/>
		</g>
	</g>
</g>
<g id="Page-1_2_">
	<g id="diners-club-logo">
		<g id="Diners-Club-Copy" transform="translate(28.000000, 8.000000)">
			<path id="Shape_5_" class="st7" d="M455.3,44c11.5,0.1,21.8-8.9,21.8-19.4c0-12.4-10.3-20.6-21.8-20.6h-9.7
				C434.4,4,425,12.2,425,24.6c0,10.5,9.4,19.4,20.6,19.4H455.3L455.3,44L455.3,44L455.3,44z"/>
			<path id="Shape_4_" class="st8" d="M448.8,35.3V12.7c4.4,1.7,7.5,6.1,7.5,11.3C456.3,29.1,453.2,33.5,448.8,35.3 M432.5,24
				c0-5.1,3.1-9.5,7.5-11.3v22.5C435.6,33.5,432.5,29.1,432.5,24 M445,5.2c-10.4,0-18.8,8.4-18.8,18.8s8.4,18.8,18.8,18.8
				s18.8-8.4,18.8-18.8C463.8,13.6,455.4,5.2,445,5.2"/>
		</g>
	</g>
</g>
<g id="Page-1_3_">
	<g id="discover-logo">
		<g id="Discover-Copy" transform="translate(15.000000, 19.000000)">
			<g id="Group" transform="translate(0.500000, -0.500000)">
				<path id="Fill-236" class="st9" d="M536.4,6.4h-4.1v14.2h4c2.1,0,3.7-0.5,5-1.6c1.6-1.3,2.6-3.4,2.6-5.5
					C543.9,9.3,540.8,6.4,536.4,6.4L536.4,6.4L536.4,6.4L536.4,6.4z M539.8,16.9c-0.9,0.8-2.1,1.1-4,1.1H535V9h0.8
					c1.9,0,3.1,0.3,4,1.1c1,0.8,1.6,2.1,1.6,3.4C541.4,14.8,540.8,16.1,539.8,16.9L539.8,16.9z"/>
				<path id="Fill-237" class="st9" d="M545.3,6.4h2.6v14.2h-2.6l0,0V6.4L545.3,6.4z"/>
				<path id="Fill-238" class="st9" d="M554.4,11.9c-1.5-0.6-2-1-2-1.7c0-0.9,0.8-1.5,1.9-1.5c0.8,0,1.4,0.3,2.1,1.1l1.3-1.8
					c-1.1-1-2.4-1.5-3.9-1.5c-2.3,0-4.1,1.7-4.1,3.9c0,1.9,0.8,2.9,3.2,3.8c1,0.4,1.5,0.6,1.8,0.8c0.5,0.3,0.8,0.8,0.8,1.4
					c0,1.1-0.8,1.9-2,1.9c-1.2,0-2.2-0.6-2.8-1.8l-1.6,1.7c1.2,1.8,2.6,2.6,4.5,2.6c2.7,0,4.5-1.8,4.5-4.5
					C558.3,14,557.3,13,554.4,11.9"/>
				<path id="Fill-239" class="st9" d="M559.6,13.5c0,4,3.1,7.1,7.1,7.1c1.1,0,2.1-0.2,3.3-0.8v-3.1c-1,1.1-2,1.5-3.2,1.5
					c-2.6,0-4.5-1.9-4.5-4.7c0-2.6,1.9-4.7,4.4-4.7c1.2,0,2.2,0.4,3.3,1.5V7.2c-1.1-0.6-2.1-0.8-3.2-0.8
					C562.8,6.4,559.6,9.5,559.6,13.5"/>
				<path id="Fill-240" class="st9" d="M591.8,15.7l-3.6-9.3h-2.9l5.7,14.2h1.4l5.8-14.2h-2.8L591.8,15.7"/>
				<path id="Fill-241" class="st9" d="M599.7,20.6h7.8v-2.4h-5v-3.8h4.8V12h-4.8V8.8h5V6.4h-7.8V20.6"/>
				<path id="Fill-242" class="st9" d="M619.2,10.6c0-2.7-1.8-4.2-5-4.2h-4.1v14.2h2.8v-5.7h0.4l3.8,5.7h3.4l-4.5-6
					C617.9,14.2,619.2,12.8,619.2,10.6C619.2,10.6,619.2,12.8,619.2,10.6L619.2,10.6L619.2,10.6z M613.4,12.9h-0.9V9h0.9
					c1.9,0,2.9,0.7,2.9,1.9C616.4,12.2,615.4,12.9,613.4,12.9L613.4,12.9z"/>
				<path id="Oval-1" class="st10" d="M578.3,20.6c3.9,0,7.1-3.2,7.1-7.1s-3.2-7.1-7.1-7.1c-3.9,0-7.1,3.2-7.1,7.1
					S574.3,20.6,578.3,20.6z"/>
			</g>
		</g>
	</g>
</g>
<g id="JCB_Logo">
	
		<linearGradient id="SVGID_1_" gradientUnits="userSpaceOnUse" x1="376.9794" y1="32.1" x2="381.3617" y2="32.1" gradientTransform="matrix(1 0 0 -1 0 66)">
		<stop  offset="0" style="stop-color:#50B031"/>
		<stop  offset="1" style="stop-color:#55B330"/>
	</linearGradient>
	<path class="st11" d="M377,32.6c1,0,2,0,3,0c0.1,0,0.2,0,0.3,0l0,0c1.3,0.3,1.3,2.3,0,2.6l0,0c-0.1,0-0.2,0-0.3,0c-1,0-2,0-3,0
		V32.6L377,32.6L377,32.6L377,32.6z"/>
	
		<linearGradient id="SVGID_2_" gradientUnits="userSpaceOnUse" x1="376.9794" y1="36.15" x2="381.0462" y2="36.15" gradientTransform="matrix(1 0 0 -1 0 66)">
		<stop  offset="0" style="stop-color:#50B031"/>
		<stop  offset="1" style="stop-color:#55B330"/>
	</linearGradient>
	<path class="st12" d="M381,29.6c0.2,0.7-0.3,1.4-1,1.5c-0.1,0-0.2,0-0.3,0c-0.9,0-1.8,0-2.7,0v-2.5c0.9,0,1.8,0,2.8,0l0,0
		c0.1,0,0.2,0,0.2,0l0,0C380.5,28.7,380.9,29.1,381,29.6C381,29.6,381,29.5,381,29.6L381,29.6L381,29.6z"/>
	
		<linearGradient id="SVGID_3_" gradientUnits="userSpaceOnUse" x1="-175.2304" y1="413.9717" x2="-174.319" y2="413.9717" gradientTransform="matrix(14.0438 0 0 33.5536 2835.3296 -13858.2393)">
		<stop  offset="0" style="stop-color:#50B031"/>
		<stop  offset="1" style="stop-color:#55B330"/>
	</linearGradient>
	<path class="st13" d="M387.2,16.7L387.2,16.7c0,8.3,0,16.7,0,25c0,2.4-1.2,4.5-3.5,5.3c-1.4,0.5-2.9,0.3-4.3,0.3c-1.7,0-3.3,0-5,0
		V36.9c1.9,0,3.8,0,5.6,0c1.8,0,4.7,0.4,5.6-1.7c0.8-2-1.2-3.2-2.8-3.3v-0.1c1.5-0.2,2.8-1.5,2.2-3.1c-0.4-1.1-1.6-1.5-2.6-1.6
		c-1.7-0.2-3.4,0-5.1,0c-1,0-2,0-2.9,0v-5.3c0-0.4,0-0.7,0.1-1c1-4.8,6.2-4.1,9.9-4.1C385.3,16.7,386.3,16.7,387.2,16.7L387.2,16.7
		L387.2,16.7L387.2,16.7L387.2,16.7z"/>
	
		<linearGradient id="C_1_" gradientUnits="userSpaceOnUse" x1="-175.1272" y1="413.9716" x2="-174.2157" y2="413.9716" gradientTransform="matrix(14.0429 0 0 33.5536 2819.1433 -13858.2393)">
		<stop  offset="0" style="stop-color:#DF0237"/>
		<stop  offset="1" style="stop-color:#E30138"/>
	</linearGradient>
	<path id="C" class="st14" d="M359.8,28.5v-6.7c0-2.8,2.3-5,5-5.1c1.7-0.1,3.4,0,5,0c0.9,0,1.9,0,2.8,0c0,8.3,0,16.6,0,24.9
		c0,2.4-1.1,4.6-3.5,5.4c-1.4,0.5-2.9,0.3-4.4,0.3c-1.6,0-3.3,0-4.9,0V35.5c2.3,1.9,6.1,1.9,8.9,1.5c0.8-0.1,1.7-0.3,2.5-0.5v-2.2
		c-1.9,0.9-4.5,1.7-6.6,0.7c-1.1-0.5-1.7-1.5-1.9-2.7c0-0.3,0-0.6,0-0.9c0.3-3.4,4.1-3.4,6.6-2.7c0.6,0.2,1.3,0.4,1.9,0.7v-2.2
		c-2.8-0.7-6-1-8.8-0.2C361.5,27.5,360.6,27.9,359.8,28.5z"/>
	
		<linearGradient id="J_1_" gradientUnits="userSpaceOnUse" x1="-175.0294" y1="413.9695" x2="-174.1094" y2="413.9695" gradientTransform="matrix(14.0423 0 0 33.5536 2803.0166 -13858.2393)">
		<stop  offset="0" style="stop-color:#016AB7"/>
		<stop  offset="1" style="stop-color:#006DBA"/>
	</linearGradient>
	<path id="J" class="st15" d="M345.3,34.4c-0.3-0.1-0.1-1.3-0.1-1.6c0-1.2,0-2.5,0-3.7c0-2.3,0-4.6,0-7s1.4-4.6,3.8-5.2
		c1.3-0.4,2.9-0.2,4.3-0.2s2.9-0.2,4.4,0c0.5,0.1,0.3-0.1,0.4,0.3c0.1,0.6,0,1.3,0,1.9c0,2.3,0,4.6,0,7c0,4.9,0,9.9,0,14.8
		c0,1.4,0,2.8-0.7,4.1c-0.5,0.8-1.3,1.5-2.2,1.9c-1.3,0.7-2.8,0.5-4.3,0.5c-1.4,0-2.9,0-4.3,0c-0.3,0-0.8,0.1-1.1,0
		c-0.2-0.1-0.2,0-0.3-0.1c-0.1-0.2,0-0.9,0-1.1c0-2.6,0-5.2,0-7.7c0-0.6,0-1.2,0-1.8c1.8,0.5,3.7,0.6,5.5,0.6c1.9,0,4.2-0.2,5.5-1.8
		c0.8-0.9,0.8-2.1,0.8-3.3c0-1.5,0.2-3.1,0-4.6c-0.1-0.4,0.1-0.3-0.3-0.4c-0.2,0-0.5,0-0.7,0c-0.5,0-0.9,0-1.4,0s-0.9,0-1.4,0
		c-0.1,0-0.6-0.1-0.7,0s0,1,0,1.2c0,1.5,0,3,0,4.5c0,0.9-0.3,1.8-1.1,2.3c-1.5,1-3.9,0.2-5.5-0.4C345.7,34.6,345.5,34.5,345.3,34.4
		L345.3,34.4L345.3,34.4z"/>
</g>
</svg>
