<svg id="Capa_1" enable-background="new 0 0 512 512" height="512" viewBox="0 0 512 512" width="512" xmlns="http://www.w3.org/2000/svg"><g><path d="m463.281 307.375c-3.959-1.227-8.158.991-9.381 4.949-1.224 3.957.992 8.157 4.949 9.381 20.209 6.251 33.787 24.671 33.787 45.835v72.78c0 31.253-25.431 56.68-56.69 56.68h-316.003c2.367-1.842 4.634-3.843 6.788-5.999 13.538-13.55 20.994-31.549 20.994-50.681v-72.78c0-26.445 21.515-47.96 47.96-47.96h232.41c4.142 0 7.5-3.358 7.5-7.5s-3.358-7.5-7.5-7.5h-48.83v-241.62c0-34.716-28.244-62.96-62.96-62.96h-248.98c-34.716 0-62.96 28.244-62.96 62.96v377.36c0 39.524 32.155 71.68 71.68 71.68h359.9c39.53 0 71.69-32.156 71.69-71.68v-72.78c0-27.781-17.825-51.959-44.354-60.165zm-387.236 189.625c-31.253 0-56.68-25.427-56.68-56.68v-377.36c0-26.445 21.515-47.96 47.96-47.96h248.98c26.445 0 47.96 21.515 47.96 47.96v241.62h-168.58c-32.177 0-58.776 24.269-62.498 55.46h-77.91c-4.142 0-7.5 3.358-7.5 7.5s3.358 7.5 7.5 7.5h77.447v32.388h-77.446c-4.142 0-7.5 3.358-7.5 7.5s3.358 7.5 7.5 7.5h77.447v17.892c0 15.128-5.897 29.362-16.605 40.079-10.697 10.705-24.929 16.601-40.075 16.601z"/><path d="m61.643 188.776c2.292 3.961 3.596 9.772 4.977 15.924 2.508 11.171 5.35 23.833 15.96 29.973 2.809 1.624 5.763 2.515 8.79 2.899v44.248c0 6.502 3.88 12.312 9.886 14.799 6.006 2.488 12.859 1.124 17.458-3.476l13.372-13.372c.403-.401 1.058-.401 1.452-.008l13.38 13.38c3.074 3.074 7.154 4.703 11.316 4.703 2.067 0 4.154-.402 6.148-1.228 6.007-2.488 9.888-8.297 9.888-14.798v-44.243c3.024-.385 5.974-1.282 8.781-2.905 10.607-6.138 13.454-18.799 15.965-29.97 1.382-6.149 2.688-11.958 4.981-15.917 2.142-3.703 6.396-7.57 10.902-11.664 8.604-7.818 18.355-16.68 18.355-29.431 0-12.754-9.755-21.616-18.362-29.434-4.503-4.091-8.756-7.954-10.898-11.655-1.917-3.311-3.186-8.125-4.271-12.835-.93-4.037-4.957-6.553-8.993-5.625-4.036.93-6.554 4.956-5.625 8.992 1.558 6.762 3.159 12.239 5.907 16.983 3.31 5.718 8.639 10.56 13.793 15.241 6.612 6.006 13.448 12.217 13.448 18.332 0 6.113-6.834 12.324-13.443 18.33-5.156 4.686-10.489 9.531-13.797 15.252-3.442 5.943-5.064 13.161-6.633 20.141-1.926 8.567-3.917 17.426-8.841 20.275-4.619 2.671-13.109.063-21.321-2.458-6.998-2.148-14.234-4.37-21.405-4.37-7.166 0-14.4 2.221-21.396 4.369-8.215 2.522-16.71 5.13-21.328 2.46-4.923-2.849-6.912-11.708-8.835-20.274-1.567-6.982-3.188-14.202-6.63-20.151-3.31-5.718-8.639-10.56-13.793-15.242-6.611-6.006-13.448-12.217-13.448-18.332s6.837-12.325 13.448-18.332c5.154-4.682 10.483-9.523 13.793-15.242 3.441-5.948 5.062-13.168 6.629-20.15 1.923-8.567 3.912-17.426 8.833-20.273 4.62-2.671 13.115-.063 21.33 2.459 6.996 2.148 14.23 4.369 21.396 4.369 7.173 0 14.409-2.222 21.408-4.37 8.111-2.49 16.498-5.066 21.141-2.56 3.647 1.969 8.195.607 10.162-3.038s.607-8.195-3.038-10.162c-10.167-5.487-22.121-1.818-32.667 1.42-5.94 1.824-12.083 3.71-17.005 3.71-4.915 0-11.055-1.885-16.994-3.708-10.763-3.304-22.962-7.049-33.243-1.104-10.608 6.138-13.45 18.8-15.958 29.972-1.381 6.152-2.685 11.962-4.977 15.923-2.141 3.698-6.394 7.562-10.896 11.652-8.607 7.819-18.362 16.68-18.362 29.434s9.755 21.616 18.362 29.435c4.505 4.091 8.758 7.955 10.898 11.652zm54.178 44.792c5.938-1.823 12.079-3.708 16.994-3.708 4.92 0 11.063 1.886 17.002 3.709 3.06.94 6.237 1.914 9.453 2.692v45.558c0 .221 0 .68-.628.94-.631.261-.96-.065-1.118-.223l-13.388-13.388c-6.242-6.223-16.398-6.222-22.648.008l-13.38 13.38c-.158.157-.486.483-1.111.224-.626-.259-.626-.72-.626-.941v-45.569c3.213-.777 6.391-1.743 9.45-2.682z"/><path d="m132.817 94.15c-29.522 0-53.54 24.018-53.54 53.54s24.018 53.54 53.54 53.54 53.541-24.018 53.541-53.54-24.019-53.54-53.541-53.54zm0 92.081c-21.251 0-38.54-17.289-38.54-38.54s17.289-38.54 38.54-38.54 38.541 17.289 38.541 38.54-17.29 38.54-38.541 38.54z"/><path d="m251.63 109.15h84.947c4.142 0 7.5-3.358 7.5-7.5s-3.358-7.5-7.5-7.5h-84.947c-4.142 0-7.5 3.358-7.5 7.5s3.358 7.5 7.5 7.5z"/><path d="m251.63 155.19h84.947c4.142 0 7.5-3.357 7.5-7.5 0-4.142-3.358-7.5-7.5-7.5h-84.947c-4.142 0-7.5 3.358-7.5 7.5 0 4.143 3.358 7.5 7.5 7.5z"/><path d="m251.63 201.231h84.947c4.142 0 7.5-3.358 7.5-7.5s-3.358-7.5-7.5-7.5h-84.947c-4.142 0-7.5 3.358-7.5 7.5s3.358 7.5 7.5 7.5z"/><path d="m251.63 248.124h84.947c4.142 0 7.5-3.358 7.5-7.5s-3.358-7.5-7.5-7.5h-84.947c-4.142 0-7.5 3.358-7.5 7.5s3.358 7.5 7.5 7.5z"/></g></svg>