<svg id="NewYear-day" enable-background="new 0 0 300 300" height="512" viewBox="0 0 300 300" width="512" xmlns="http://www.w3.org/2000/svg"><g><circle cx="44" cy="44" r="4"/><circle cx="60" cy="44" r="4"/><circle cx="76" cy="44" r="4"/><path d="m153.266 159.793 6.734-2.242v46.449h-4c-2.211 0-4 1.789-4 4s1.789 4 4 4h16c2.211 0 4-1.789 4-4s-1.789-4-4-4h-4v-52c0-1.285-.617-2.492-1.66-3.246-1.047-.754-2.387-.965-3.605-.547l-12 4c-2.094.695-3.227 2.961-2.527 5.059.698 2.093 2.94 3.23 5.058 2.527z"/><path d="m243.527 64h-51.527v-8c0-2.211-1.789-4-4-4s-4 1.789-4 4v8h-48v-8c0-2.211-1.789-4-4-4s-4 1.789-4 4v8h-51.525c-9.084 0-16.475 7.391-16.475 16.473v163.055c0 9.081 7.391 16.472 16.475 16.472h167.053c9.082 0 16.473-7.391 16.473-16.473v-163.054c-.001-9.082-7.392-16.473-16.474-16.473zm-167.052 8h51.525v13.109c-2.381 1.386-4 3.937-4 6.891 0 4.418 3.582 8 8 8s8-3.582 8-8c0-2.954-1.619-5.505-4-6.891v-13.109h48v13.109c-2.381 1.386-4 3.937-4 6.891 0 4.418 3.582 8 8 8s8-3.582 8-8c0-2.954-1.619-5.505-4-6.891v-13.109h51.527c4.672 0 8.473 3.801 8.473 8.473v31.527h-184v-31.527c0-4.672 3.801-8.473 8.475-8.473zm7.525 48h152v110.062c0 3.273-2.664 5.938-5.938 5.938h-140.126c-3.273 0-5.936-2.664-5.936-5.938zm159.527 132h-167.052c-4.674 0-8.475-3.801-8.475-8.473v-123.527h8v110.062c0 7.684 6.252 13.938 13.936 13.938h140.127c7.684 0 13.938-6.254 13.938-13.938v-110.062h8v123.527c-.001 4.672-3.802 8.473-8.474 8.473z"/></g></svg>