<svg id="Layer_1_1_" enable-background="new 0 0 64 64" height="512" viewBox="0 0 64 64" width="512" xmlns="http://www.w3.org/2000/svg"><path d="m13.60645 62h2.82812c.26562 0 .51953-.10547.70703-.29297l10.6084-10.60644c1.16797-1.1709 1.16797-3.07324-.00098-4.24219-.52777-.52826-1.23993-.79938-1.96375-.83514-.03058-.72504-.31244-1.44153-.86438-1.99396-.52765-.52765-1.23987-.79926-1.96393-.83521-.03088-.72461-.31293-1.44067-.86517-1.99292-.24652-.24652-.53766-.42914-.84668-.56836l5.08887-5.08887c1.16992-1.16992 1.16992-3.07227.00098-4.24219-1.13184-1.13184-3.10938-1.13379-4.24316 0l-8.94397 8.94397-6.01599.66833c-.22559.02539-.43652.12598-.59668.28711l-4.24219 4.24219c-.1875.18751-.29297.44142-.29297.70704v4.24316c0 .26562.10547.51953.29297.70703l10.60645 10.60645c.18749.1875.4414.29297.70703.29297zm-9.60645-15.43555 3.70117-3.70117 3.1825-.35339-2.22644 2.22644 1.41406 1.41406 13.43457-13.43457c.38086-.37695 1.03711-.37695 1.41406 0 .38965.38965.38965 1.02441 0 1.41406l-10.60644 10.60645 1.41406 1.41406 3.53711-3.53516c.37695-.37793 1.03418-.37793 1.41309 0 .18848.18945.29297.44043.29297.70703s-.10449.51758-.29297.70703l-3.53516 3.53613 1.41406 1.41406 3.53516-3.53613c.37988-.37695 1.03809-.37793 1.41406 0 .38965.39062.38965 1.02441 0 1.41504l-3.53516 3.53516 1.41406 1.41406 3.53516-3.53516c.38965-.38965 1.02344-.3916 1.41504 0 .38965.38965.38965 1.02441 0 1.41406l-10.31445 10.31349h-2l-10.02051-10.02051z"/><path d="m34 33c1.6543 0 3-1.3457 3-3v-12.64844l3.78125-4.72656c.1416-.17773.21875-.39746.21875-.625v-6c0-.26562-.10547-.51953-.29297-.70703l-3-3c-.1875-.1875-.44141-.29297-.70703-.29297h-15c-.26562 0-.51953.10547-.70703.29297l-2 2c-.1875.1875-.29297.44141-.29297.70703v15c0 1.6543 1.3457 3 3 3 .77112 0 1.46802-.30054 2-.78027.53198.47973 1.22888.78027 2 .78027s1.46802-.30054 2-.78027c.53198.47973 1.22888.78027 2 .78027.35236 0 .68567-.0722 1-.18427v7.18427c0 1.6543 1.3457 3 3 3zm-4-12c-.55176 0-1-.44824-1-1v-5h-2v5c0 .55176-.44824 1-1 1s-1-.44824-1-1v-5h-2v5c0 .55176-.44824 1-1 1s-1-.44824-1-1v-14.58594l1.41406-1.41406h14.17188l2.41406 2.41406v5.23535l-2 2.49951v-3.14892h-2v19c0 .55176-.44824 1-1 1s-1-.44824-1-1v-10-5h-2v5c0 .55176-.44824 1-1 1z"/><path d="m51.10059 36.25c-1.1709-1.16895-3.0752-1.16797-4.24219.00098-.52936.52936-.82587 1.22473-.86383 1.96686-.71497.03705-1.41992.31683-1.96527.86127-.52911.52911-.8255 1.22406-.86371 1.96661-.71478.03723-1.41943.3175-1.96442.86249-.24567.24567-.43353.53143-.57886.83618l-5.07837-5.07837c-1.1709-1.1709-3.07324-1.16797-4.24219-.00098-.56641.56641-.87891 1.32031-.87891 2.12207 0 .80078.3125 1.55469.87891 2.12109l8.94397 8.94397.66833 6.01599c.02539.22559.12598.43652.28711.59668l4.24219 4.24219c.18751.1875.44142.29297.70704.29297h4.24316c.26562 0 .51953-.10547.70703-.29297l10.60645-10.60645c.1875-.18749.29297-.4414.29297-.70703v-2.82812c0-.26562-.10547-.51953-.29297-.70703zm8.89941 13.72949-10.02051 10.02051h-3.41504l-3.70117-3.70117-.35339-3.1825 2.22644 2.22644 1.41406-1.41406-13.43457-13.43457c-.18848-.18945-.29297-.44043-.29297-.70703 0-.26758.10352-.51758.29297-.70703.39062-.39062 1.02344-.39062 1.41406 0l10.60645 10.60645 1.41406-1.41406-3.53516-3.53711c-.18945-.18848-.29297-.43848-.29297-.70605 0-.2666.10449-.51758.29297-.70703.37891-.37695 1.03516-.37695 1.41406 0l3.53613 3.53516 1.41406-1.41406-3.53613-3.53516c-.18848-.18945-.29297-.44043-.29297-.70703 0-.26758.10352-.51855.29297-.70703.39258-.39062 1.02637-.38965 1.41504 0l3.53516 3.53516 1.41406-1.41406-3.53516-3.53516c-.38965-.39062-.38965-1.02441 0-1.41504.39062-.38867 1.02344-.38867 1.41406 0l10.31349 10.31443z"/><path d="m10.2959 19.58496 1.73633.99414c.30566-.5332.63867-1.06348.98926-1.57422l-1.64844-1.13281c-.38184.55566-.74414 1.13281-1.07715 1.71289z"/><path d="m7.01465 31.14453 1.99805.06641c.02051-.61914.06641-1.24316.13672-1.85449l-1.98633-.22852c-.07715.66602-.12696 1.34375-.14844 2.0166z"/><path d="m7.47363 27.13086 1.96289.38672c.11914-.60742.26562-1.21582.43359-1.80762l-1.92383-.54688c-.18261.64454-.34179 1.30665-.47265 1.96778z"/><path d="m16.93359 12.04883c-.53418.40332-1.06055.83496-1.56348 1.28418l1.33203 1.49219c.46191-.41309.94531-.80957 1.43652-1.18066z"/><path d="m9.94922 38.56152c-.17676-.59277-.33008-1.19922-.45703-1.80176l-1.95703.41016c.1377.65723.30469 1.31738.49707 1.96191z"/><path d="m7.02734 33.16309c.03027.67285.08887 1.35059.17285 2.01465l1.98438-.25195c-.07812-.61133-.13184-1.23438-.15918-1.85254z"/><path d="m8.57715 23.24219 1.87305.70117c.21484-.5752.45801-1.15234.72266-1.71484l-1.81056-.84961c-.2871.61035-.55078 1.23828-.78515 1.86328z"/><path d="m15.36328 16.11914-1.44531-1.38281c-.46387.48535-.91406.99609-1.33691 1.51758l1.55273 1.25977c.38965-.4795.80273-.94923 1.22949-1.39454z"/><path d="m38.59863 54.03906c-.5752.17188-1.16797.32422-1.7627.45215l.41992 1.95508c.64551-.13867 1.29102-.30371 1.91699-.49121z"/><path d="m35.04297 54.80078c-.59766.07812-1.20801.13477-1.81348.16699l.10742 1.99805c.65625-.03613 1.31836-.09668 1.96777-.18262z"/><path d="m25.49805 56.14453c.63672.1709 1.28613.31836 1.92871.4375l.36523-1.9668c-.5918-.10938-1.18945-.24512-1.77637-.40234z"/><path d="m31.35938 56.99219.04883-2c-.60547-.01465-1.21582-.05371-1.81543-.11621l-.20898 1.98828c.65331.06836 1.31737.11133 1.97558.12793z"/><path d="m54.22363 37.94727 1.93164.51562c.17285-.64844.32129-1.31055.44043-1.9668l-1.9668-.35742c-.11035.60352-.24706 1.21192-.40527 1.8086z"/><path d="m43.14941 9.61816-.89453 1.78906c.55273.27637 1.09863.57715 1.62402.89453l1.03516-1.71094c-.57129-.34569-1.16504-.67284-1.76465-.97265z"/><path d="m53.96094 25.14062c.18164.58203.34375 1.18457.47949 1.78906l1.95117-.43945c-.14844-.65723-.32422-1.3125-.52246-1.94727z"/><path d="m54.77344 28.75391c.08594.60352.14844 1.22363.18555 1.84375l1.99609-.12109c-.04004-.67188-.1084-1.34668-.20117-2.00391z"/><path d="m56.99512 32.49121-2-.03906c-.01172.61719-.04883 1.24023-.1084 1.85254l1.99023.19531c.06543-.66406.1045-1.33984.11817-2.00879z"/><path d="m48.18164 12.94238c-.50781-.43164-1.04199-.84961-1.58691-1.24219l-1.16797 1.62305c.50098.36133.99219.74512 1.45801 1.14258z"/><path d="m48.25 15.72363c.4375.43652.86035.89453 1.25879 1.36035l1.52148-1.29688c-.43262-.50781-.89258-1.00488-1.36816-1.47949z"/><path d="m52.5752 21.70801c.27441.54785.53125 1.11621.7627 1.6875l1.85352-.74805c-.25098-.62207-.5293-1.24023-.8291-1.83594z"/><path d="m50.65332 18.54199c.35938.49707.70508 1.01758 1.02539 1.54492l1.70898-1.03906c-.34766-.57227-.72266-1.13672-1.11328-1.67773z"/></svg>