<svg id="light" enable-background="new 0 0 24 24" height="512" viewBox="0 0 24 24" width="512" xmlns="http://www.w3.org/2000/svg"><g><path d="m12 5c-1.4 0-2.5-1.1-2.5-2.5s1.1-2.5 2.5-2.5 2.5 1.1 2.5 2.5-1.1 2.5-2.5 2.5zm0-4c-.8 0-1.5.7-1.5 1.5s.7 1.5 1.5 1.5 1.5-.7 1.5-1.5-.7-1.5-1.5-1.5z"/></g><g><path d="m16.5 10c-.3 0-.5-.2-.5-.5v-1c0-.8-.7-1.5-1.5-1.5h-5c-.8 0-1.5.7-1.5 1.5v1c0 .3-.2.5-.5.5s-.5-.2-.5-.5v-1c0-1.4 1.1-2.5 2.5-2.5h5c1.4 0 2.5 1.1 2.5 2.5v1c0 .3-.2.5-.5.5z"/></g><g><path d="m5 19c-1.4 0-2.5-1.1-2.5-2.5s1.1-2.5 2.5-2.5 2.5 1.1 2.5 2.5-1.1 2.5-2.5 2.5zm0-4c-.8 0-1.5.7-1.5 1.5s.7 1.5 1.5 1.5 1.5-.7 1.5-1.5-.7-1.5-1.5-1.5z"/></g><g><path d="m9.5 24c-.3 0-.5-.2-.5-.5v-1c0-.8-.7-1.5-1.5-1.5h-5c-.8 0-1.5.7-1.5 1.5v1c0 .3-.2.5-.5.5s-.5-.2-.5-.5v-1c0-1.4 1.1-2.5 2.5-2.5h5c1.4 0 2.5 1.1 2.5 2.5v1c0 .3-.2.5-.5.5z"/></g><g><path d="m19 19c-1.4 0-2.5-1.1-2.5-2.5s1.1-2.5 2.5-2.5 2.5 1.1 2.5 2.5-1.1 2.5-2.5 2.5zm0-4c-.8 0-1.5.7-1.5 1.5s.7 1.5 1.5 1.5 1.5-.7 1.5-1.5-.7-1.5-1.5-1.5z"/></g><g><path d="m23.5 24c-.3 0-.5-.2-.5-.5v-1c0-.8-.7-1.5-1.5-1.5h-5c-.8 0-1.5.7-1.5 1.5v1c0 .3-.2.5-.5.5s-.5-.2-.5-.5v-1c0-1.4 1.1-2.5 2.5-2.5h5c1.4 0 2.5 1.1 2.5 2.5v1c0 .3-.2.5-.5.5z"/></g><g><path d="m2.5 12.5c-.3 0-.5-.2-.5-.5 0-3.9 2.3-7.4 5.8-9.1.3-.1.5 0 .7.2.1.3 0 .5-.2.7-3.3 1.5-5.3 4.7-5.3 8.2 0 .3-.2.5-.5.5z"/></g><g><path d="m21.5 12.5c-.3 0-.5-.2-.5-.5 0-3.5-2-6.7-5.2-8.2-.3-.1-.4-.4-.2-.7.1-.2.4-.4.7-.2 3.4 1.7 5.7 5.2 5.7 9.1 0 .3-.2.5-.5.5z"/></g><g><path d="m12 22c-.4 0-.7 0-1-.1-.3 0-.5-.3-.4-.5 0-.3.3-.5.5-.4.6.1 1.3.1 1.9 0 .3 0 .5.2.6.4s-.2.5-.4.6c-.5 0-.8 0-1.2 0z"/></g></svg>