<?xml version="1.0" encoding="iso-8859-1"?>
<!-- Generator: Adobe Illustrator 19.0.0, SVG Export Plug-In . SVG Version: 6.00 Build 0)  -->
<svg version="1.1" id="Capa_1" xmlns="http://www.w3.org/2000/svg" xmlns:xlink="http://www.w3.org/1999/xlink" x="0px" y="0px"
	 viewBox="0 0 480 480" style="enable-background:new 0 0 480 480;" xml:space="preserve">
<g>
	<g>
		<path d="M472,184c-2.231-2.489-4.955-4.486-8-5.864V72c0-13.255-10.745-24-24-24h-283.72l-29.6-44.44
			C125.192,1.328,122.683-0.008,120,0H40C26.746,0,16,10.745,16,24v154.136c-9.477,4.28-15.12,14.176-13.976,24.512l28.448,256
			c1.349,12.153,11.62,21.349,23.848,21.352h371.36c12.228-0.003,22.499-9.199,23.848-21.352l28.448-256
			C478.726,195.865,476.553,189.084,472,184z M32,24c0-4.418,3.582-8,8-8h75.72l29.6,44.44c1.489,2.232,3.997,3.568,6.68,3.56h288
			c4.418,0,8,3.582,8,8v104h-10.24l-30.176-90.528c-1.088-3.266-4.142-5.469-7.584-5.472H80c-3.442,0.003-6.496,2.206-7.584,5.472
			L42.24,176H32V24z M404.896,128l5.336,16H69.768l5.336-16H404.896z M80.432,112l5.336-16h308.464l5.336,16H80.432z M415.568,160
			l5.328,16H59.104l5.328-16H415.568z M462.072,200.88l-28.472,256c-0.448,4.05-3.869,7.116-7.944,7.12H54.32
			c-4.075-0.004-7.496-3.07-7.944-7.12l-28.448-256c-0.486-4.391,2.68-8.345,7.071-8.831c0.29-0.032,0.581-0.048,0.873-0.049
			h428.256c4.418,0.004,7.997,3.589,7.993,8.007C462.121,200.299,462.105,200.59,462.072,200.88z"/>
	</g>
</g>
<g>
</g>
<g>
</g>
<g>
</g>
<g>
</g>
<g>
</g>
<g>
</g>
<g>
</g>
<g>
</g>
<g>
</g>
<g>
</g>
<g>
</g>
<g>
</g>
<g>
</g>
<g>
</g>
<g>
</g>
</svg>
