<?xml version="1.0" encoding="UTF-8"?>
<!DOCTYPE svg PUBLIC "-//W3C//DTD SVG 1.1//EN" "http://www.w3.org/Graphics/SVG/1.1/DTD/svg11.dtd">
<!-- Creator: CorelDRAW X7 -->
<svg xmlns="http://www.w3.org/2000/svg" xml:space="preserve" width="177.535mm" height="97.3575mm" version="1.1" style="shape-rendering:geometricPrecision; text-rendering:geometricPrecision; image-rendering:optimizeQuality; fill-rule:evenodd; clip-rule:evenodd"
viewBox="0 0 18083 9916"
 xmlns:xlink="http://www.w3.org/1999/xlink">
 <defs>
  <style type="text/css">
   <![CDATA[
    .fil0 {fill:#FEFEFE}
   ]]>
  </style>
 </defs>
 <g id="Layer_x0020_1">
  <metadata id="CorelCorpID_0Corel-Layer"/>
  <path class="fil0" d="M10499 4613c293,-69 631,67 809,204 494,381 594,1293 -67,1731 -607,403 -1402,3 -1555,-707 -68,-314 37,-616 183,-826 156,-223 369,-341 630,-402zm-8621 268c45,198 449,189 388,-94 -18,-87 -131,-167 -251,-142 -82,17 -164,123 -137,236zm8744 575c83,-32 170,49 201,98 56,86 9,186 -55,213 -198,81 -357,-231 -146,-311zm-789 267c72,474 420,865 957,849 801,-24 1070,-1065 500,-1576 -99,-88 -130,-120 -276,-180 -106,-43 -247,-86 -372,-77 -122,8 -263,48 -363,97 -288,142 -502,513 -446,887zm-8097 467c-17,-56 173,-602 216,-719 35,-98 52,-208 106,-230 26,181 8,464 24,669 6,75 59,280 -13,306 -50,19 -297,-8 -333,-26zm492 -953c75,30 162,256 272,403 47,63 86,128 136,197 36,50 124,160 127,220 -54,30 -207,91 -275,107 -95,23 -102,-101 -131,-248 -22,-113 -46,-223 -66,-330 -19,-101 -61,-250 -63,-349zm-1150 606c17,-41 149,-153 182,-183 77,-70 512,-508 568,-523l-304 616c-28,59 -112,276 -175,280 -52,3 -249,-149 -271,-190zm1293 -794c94,2 762,395 934,460 -2,49 -74,115 -119,168 -40,49 -87,121 -141,149 -81,-30 -220,-231 -265,-278l-170 -192c-54,-69 -234,-229 -239,-307zm-710 -65c-63,73 -391,264 -561,409 -51,43 -72,51 -116,84 -116,85 -139,156 -214,11 -143,-277 -105,-224 274,-333 109,-32 542,-178 617,-171zm839 -116c57,-32 649,-99 767,-115 132,-18 273,-76 255,115 -8,95 -54,263 -76,364 -66,10 -397,-134 -482,-167l-417 -156c-47,-22 -44,-39 -47,-41zm-518 -320c354,-85 487,446 177,527 -230,59 -462,-186 -338,-416 34,-64 89,-93 161,-111zm-321 213c-158,59 -554,99 -752,131 -254,41 -321,88 -320,-49 0,-90 10,-329 39,-398 74,-10 440,113 540,142 69,21 477,126 493,174zm-895 -630c-1,-51 12,-62 35,-93 152,-205 182,-346 295,-200 118,151 576,638 578,672 -30,-4 -71,-38 -99,-56 -118,-76 -702,-249 -809,-323zm1515 379c9,-80 127,-285 167,-362 338,-671 234,-710 543,-452 165,138 264,50 -272,486 -82,67 -368,316 -438,328zm-965 -964c67,-57 198,-141 327,-123 39,96 251,911 231,982 -65,-69 -85,-124 -142,-198 -56,-75 -94,-147 -143,-218 -41,-61 -273,-378 -273,-443zm727 721c0,-269 -72,-729 -68,-843 3,-72 28,-77 94,-74 408,18 393,41 280,288l-169 556c-44,143 -38,211 -115,240 -27,-65 -22,-93 -22,-167zm-136 -1023c-444,62 -745,178 -1037,518 -133,155 -213,284 -286,488 -398,1107 480,2171 1631,2075 447,-38 757,-229 1016,-537 135,-160 228,-261 305,-470 154,-415 106,-896 -107,-1274 -74,-130 -232,-346 -346,-429 -165,-121 -286,-208 -490,-284 -192,-71 -466,-118 -686,-87zm14806 2554l-167 -521 302 187 -103 366 -32 -32zm-322 -1079l18 100c3,1 6,1 9,1l47 98 4 5 672 355 6 141c-144,473 -363,627 -343,725 6,34 59,129 73,157 40,83 130,233 103,338 -58,29 -166,20 -242,11 -115,-12 -134,-12 -158,-125 -13,-59 -31,-169 -50,-217 -31,-75 -124,-50 -193,-78 -49,-44 44,-179 11,-368 -12,-69 -54,-290 -97,-324 -79,52 -128,210 -111,327 16,105 92,288 87,379 -68,8 -306,56 -347,-18 -57,-104 88,-21 -24,-348 -63,-184 -27,-191 48,-328 51,-93 94,-188 153,-287 61,-103 166,-149 35,-276 -68,-66 -136,-185 -253,-167 -133,20 -67,66 -376,70 -141,2 -288,1 -428,-12 -111,-11 -310,-66 -400,-46 -81,101 -115,239 -140,393 -56,350 -115,288 135,543l128 141c65,73 203,219 203,356l-118 42c11,45 132,141 165,191 71,107 -25,224 -138,193 -110,-31 -550,-644 -678,-793 -269,-312 -37,-312 -91,-528 -48,4 -128,106 -169,144 -91,88 -57,115 -10,215 37,80 66,135 120,200 42,50 152,123 99,214 -63,112 -260,-5 -305,-90 -31,-60 -117,-253 -175,-295 -50,31 -52,108 -68,174 -17,70 -27,130 -40,201 -26,141 -65,293 -5,427 23,52 82,105 19,163 -40,38 -149,37 -202,17 -123,-46 -89,-306 -86,-416 12,-485 -75,-475 179,-804 65,-84 127,-205 157,-336 26,-111 75,-342 -21,-403 -64,48 -46,166 -51,261 -9,170 -23,396 -144,526 -34,36 -164,141 -223,92 -50,-72 -10,-128 7,-212 27,-128 34,-671 -21,-736 -42,-49 -1013,-42 -1024,-36 -106,113 42,137 -177,246 -4,175 165,335 6,696 -39,88 -100,190 -144,282 -146,305 -199,551 -533,752 -196,118 -429,173 -701,152 -434,-34 -798,-359 -952,-759 -144,-378 -66,-863 206,-1163 42,-46 72,-63 77,-134 -66,-99 -301,-210 -432,-271 -91,-41 -448,-187 -544,-144 -65,28 -253,330 -278,426 -34,130 -19,156 -113,238 -68,59 -133,79 -206,152 -126,125 -202,262 -303,405 -207,294 -123,200 -172,535 -54,363 -465,337 -521,-12 -25,-159 40,-208 37,-315 -509,-37 -1485,524 -1700,517 -118,-4 -108,-157 -454,-300 -389,-161 -942,-270 -1379,-334 -232,-34 -114,194 -622,614 -173,144 -427,267 -657,332 -277,80 -624,68 -906,4 -1031,-233 -1750,-1331 -1462,-2386 114,-420 422,-933 758,-1206 81,-66 194,-132 316,-179 81,-32 351,-86 387,-107 100,-59 -3,-282 134,-359 160,-91 234,107 307,156 53,-37 225,-194 232,-252 18,-144 -69,-311 72,-416 127,-95 265,-29 345,77 113,151 71,323 122,384 142,40 420,-57 526,23 51,37 82,148 56,218 -23,65 -108,107 -126,157 157,39 282,272 349,255 5,-112 -253,-826 -304,-952 -64,-157 -152,-309 -198,-443 -63,-179 -32,-411 101,-480 113,-29 389,411 508,482 56,-46 69,-170 58,-262 -24,-191 -224,-659 -212,-791 12,-130 173,-48 209,-1 117,153 173,467 492,524 275,50 893,-113 1061,-250 64,-52 98,-109 162,-171 59,-57 150,-86 119,-202 -33,-123 -37,-158 25,-267 201,-354 573,13 435,247 -91,152 60,220 229,359 230,190 556,345 883,465 213,78 322,81 501,-53 338,-253 378,-391 501,-500 40,-35 202,-176 209,-32 5,96 -174,437 -146,520 83,64 291,44 339,134 43,82 -10,111 -51,156 -37,41 -63,91 -102,139 -37,46 -62,67 -108,119l-214 253c-59,73 -67,181 -83,282 -7,51 -16,44 -30,86 -23,72 -23,126 -37,203 -48,269 -102,562 -75,861 13,138 74,290 -26,386 -50,48 -75,81 -66,174 4,43 27,165 51,190 31,46 130,16 186,27 73,14 100,58 166,-14 110,-120 206,-240 369,-312 223,-98 198,-91 365,-314 262,-348 657,-770 962,-1083 44,-45 66,-81 157,-75 133,9 270,38 401,52 463,50 960,27 758,524 -22,54 -63,114 -75,155 -26,93 32,73 36,182 10,213 93,272 -6,367 -67,65 -197,140 -241,208 12,50 210,243 256,272 60,37 418,40 513,25 46,-94 38,-149 53,-266 24,-190 68,-368 119,-551 39,-138 55,-159 209,-138 64,88 46,123 24,248 -47,275 -138,516 138,668 179,98 617,76 846,67 113,-4 132,-46 191,-107 128,-131 203,-147 292,-322 128,-251 177,-441 465,-455 149,-7 118,-58 229,-82 160,-34 474,47 570,14 25,-48 -22,-369 -19,-468 6,-189 62,-253 109,-402 25,-83 0,-617 525,-304 11,79 -13,114 -4,212 12,126 -46,102 -48,187 -2,49 48,120 62,166 67,220 -56,432 125,554 39,25 103,50 132,97 47,78 -12,112 -7,180 170,-8 255,-116 333,-243 153,-248 321,-465 578,-599 90,-47 136,-52 249,-25 124,31 119,-27 184,-80 52,-6 85,1 134,-1 162,-5 154,-61 267,125l402 693c177,314 -11,295 -52,375 -21,187 20,205 -131,249 -124,-71 -283,-134 -376,-211 -119,-138 -302,-307 -421,-444 -167,449 -185,662 -152,1061 -27,11 -20,13 -29,26 5,5 14,10 24,14l-319 208 -75 123zm-10471 863c130,-35 319,-1 492,-56 203,-63 304,-169 359,-166 10,34 -1,353 -12,381 -30,80 -193,96 -284,128 -159,55 -513,232 -564,228 -2,-103 -6,-454 9,-515zm956 -273c98,-27 251,-15 352,-49 67,-23 234,-108 302,-100 10,75 -8,226 -18,306 -12,104 -33,158 -115,185 -78,27 -461,99 -522,88 -17,-53 -15,-371 1,-430zm-6622 -468c-60,-532 171,-1062 439,-1337 527,-540 1278,-692 1989,-395 189,79 270,134 419,249 37,29 90,68 122,103 319,357 528,667 594,1193 66,533 -184,1056 -455,1333 -56,57 -281,260 -360,307 -51,30 -94,42 -152,73 -626,337 -1506,152 -2006,-339 -286,-281 -527,-638 -590,-1187zm8776 -616c14,-95 128,-216 211,-232 70,-13 300,50 376,71 116,33 208,94 301,141 55,28 215,148 223,199 14,91 -126,229 -195,214 -38,-9 -326,-197 -426,-244 -217,-101 -392,-109 -490,-149zm1306 -810c58,24 146,190 186,251 84,128 183,242 273,382 87,135 -66,396 -136,434 -209,113 -107,-81 -84,-178 73,-306 -119,-175 -272,-587 -55,-147 -63,-202 33,-302zm814 60c28,47 27,9 28,71 -63,51 -339,283 -402,292 -43,-35 -240,-327 -300,-418 -86,-131 -81,-53 -103,-114 41,-32 62,-90 127,-69 63,20 227,318 268,381 255,10 241,-146 382,-143zm-896 -153c6,-194 244,-370 427,-432 140,-47 224,-60 298,65 195,333 170,321 70,408 -32,28 -73,65 -117,98 -257,192 -151,-354 -463,-333 -71,5 -107,24 -138,79 -35,59 -38,68 -77,115zm-976 571c16,-71 353,-474 423,-569l285 -368c169,-215 171,-257 393,-212 64,13 230,16 271,41 -54,36 -133,57 -194,92 -170,98 -322,310 -337,508 -12,161 50,556 124,722 51,115 42,89 -14,181 -72,-18 -156,-95 -209,-134 -257,-187 -442,-213 -742,-261zm716 -1348c53,-46 92,36 96,70 7,64 -33,84 -69,122l-348 453c-34,50 -59,79 -87,115 -30,37 -46,63 -80,106 -50,62 -120,161 -173,228l-689 900c-106,165 -64,226 -99,305 -37,85 -151,110 -216,180 -157,171 -319,354 -434,557 -127,223 -111,292 -120,490 -4,93 -78,204 -197,168 -85,-25 -149,-162 -126,-275 20,-99 78,-204 125,-277 54,-82 107,-143 167,-234 153,-233 407,-434 451,-737 26,-173 178,-328 315,-471 40,-41 68,-56 106,-96l690 -805c15,-17 25,-33 40,-53l648 -746zm-5849 2176c-10,-165 -51,-358 -113,-507 -24,-59 -84,-157 -90,-214 52,-67 155,-76 206,-153 64,-94 -116,-772 -142,-899 -38,-192 -89,-391 -148,-574 -30,-91 -136,-494 -203,-523 -100,-30 -171,61 -237,-26 -26,-34 -66,-143 -83,-197 -88,-264 -137,-212 -23,-399 45,15 228,227 271,282 144,183 154,296 458,-13 186,-189 147,-123 404,-143 74,-6 154,-18 229,-34 147,-30 270,-89 413,-139 280,-99 394,-308 589,-507 38,-38 133,-97 145,-137 21,-74 -40,-138 -48,-212 -16,-137 166,-311 247,-117 92,222 -169,220 9,407l548 546c651,525 1076,337 1241,402 68,26 226,238 224,301 -94,31 -169,-33 -223,60 -40,69 -76,360 -91,453l-186 1169c-52,379 225,86 255,573 7,117 -17,140 -57,211 -257,457 -127,631 -319,759 -103,68 -302,98 -436,103 -106,4 -183,-19 -256,32 -55,38 -97,75 -154,114 -176,118 -421,180 -642,110 -67,-21 -147,-60 -225,-30 -75,28 -147,143 -428,54 -184,-59 -224,-173 -310,-219 -174,-95 -361,35 -672,-146 -49,-28 -136,-61 -174,-93 -5,-86 28,-177 21,-294z"/>
  <path class="fil0" d="M7502 2211c-22,177 -52,356 -89,517 -18,81 -28,182 -66,245 -103,172 -185,366 -453,469 -51,19 -184,62 -245,66 -78,6 -67,-14 -63,-94l18 -763c1,-742 -158,-636 540,-682 97,-6 206,-23 293,16 108,48 78,118 65,226zm-3429 -270c118,-92 91,-45 253,-36 746,39 666,-67 681,372 8,228 44,437 46,655l20 677c-203,-1 -397,12 -541,-122 -97,-90 -69,-31 -159,-174 -158,-251 -327,-1093 -300,-1372zm2180 67c37,121 13,1169 13,1391 0,335 66,365 -245,449 -190,51 -472,28 -598,-76 -93,-76 -1,-147 5,-265 4,-103 -5,-232 -8,-336 -10,-303 -16,-729 -38,-1028 -12,-175 -33,-145 173,-143 172,1 558,-20 698,8zm-1310 -184c-10,4 -201,-13 -229,-30 -49,-31 3,-159 12,-212 26,-158 89,-132 341,-222 138,-50 262,-106 382,-176 155,-90 239,-198 346,-199 398,-2 315,137 738,370 431,237 419,162 429,416 4,121 -28,126 -151,126l-151 -15c0,-105 60,-206 -13,-310 -156,-221 -413,-79 -458,73 -43,149 56,206 49,269l-831 -23c-4,-49 118,-97 75,-301 -44,-206 -338,-312 -495,-94 -86,119 -10,243 -44,328zm-362 -10c-147,54 -413,-56 -556,14 -91,80 -59,210 -36,337 20,111 36,236 54,357 58,401 166,950 546,1123 112,51 218,64 353,69 200,7 173,45 256,162 119,-5 69,-57 148,-27 110,41 58,113 423,93 596,-32 392,-73 574,-122 35,38 28,55 80,68 111,-130 40,-245 248,-280 271,-44 520,-172 672,-399 172,-257 166,-543 211,-737 33,-146 135,-495 14,-555 -104,-52 -425,-19 -471,-58 -44,-38 -37,-160 -47,-224 -20,-125 -18,-111 -116,-162 -144,-77 -714,-438 -800,-548 -52,-66 -59,-330 -256,-248 -87,36 -93,74 -132,149 -57,110 -529,368 -658,423 -116,49 -317,81 -390,144 -102,89 -84,273 -117,421z"/>
  <path class="fil0" d="M5155 5017c240,-51 83,-514 154,-716 49,1 217,152 391,4 155,-133 188,32 376,46 148,11 196,-94 273,-63 62,130 -59,700 34,839 181,-36 35,-754 160,-834 65,-33 313,79 415,93 156,21 351,-18 442,-98 9,-217 -294,-160 -537,-166 -225,-5 -465,-12 -694,-22 -559,-23 -1127,-16 -1682,-54 -92,-6 -224,-28 -274,70 -74,145 343,228 488,209 169,-23 185,-96 236,-115 81,-31 177,62 176,164 0,100 -9,226 -14,334 -6,149 -27,220 56,309z"/>
  <path class="fil0" d="M51 7249c38,2 77,4 117,8 41,4 83,10 126,18 5,-2 10,-4 17,-5 53,-17 87,-25 102,-25 15,0 27,6 38,17 11,11 26,38 45,78 108,226 211,434 308,623 97,189 190,363 279,522 114,-230 250,-520 408,-867 54,-121 92,-205 116,-254l4 -10c30,-64 60,-97 91,-97 8,0 20,2 34,5 15,3 31,7 49,13 42,-7 82,-13 119,-17 37,-5 72,-7 106,-9l0 36c-70,3 -115,17 -136,42 -22,25 -32,100 -32,225 0,48 0,84 0,107 0,24 1,46 2,66l19 537c8,229 25,369 51,420 27,51 76,76 148,76l9 0 0 36c-45,-2 -92,-5 -140,-11 -48,-4 -97,-12 -148,-20 -51,8 -100,16 -147,20 -47,6 -92,9 -135,11l-1 -36c67,0 112,-16 135,-49 24,-33 35,-111 35,-234 0,-75 0,-128 0,-159 -1,-32 -1,-59 -2,-82l-10 -425c0,-10 -2,-53 -6,-127 -4,-75 -7,-140 -9,-197 -135,282 -257,542 -365,779 -108,237 -186,414 -233,530l-43 0c-100,-217 -205,-433 -312,-649 -108,-215 -219,-430 -334,-644 -14,208 -24,399 -31,572 -8,173 -11,300 -11,380 0,131 13,214 41,250 28,35 83,53 166,55l0 36c-37,0 -78,-3 -121,-9 -44,-5 -91,-14 -142,-25 -40,9 -82,16 -126,21 -43,6 -87,10 -132,13l0 -36c60,-6 102,-17 127,-34 24,-17 43,-49 56,-95 7,-26 13,-59 19,-101 5,-41 11,-111 18,-208 15,-175 26,-321 32,-438 7,-118 10,-211 10,-279l0 -41c0,-124 -13,-201 -38,-228 -27,-27 -84,-43 -173,-49l0 -36zm2156 0c39,1 82,4 128,10 46,6 96,14 151,24 69,-12 151,-20 245,-26 95,-5 215,-8 362,-8 88,0 141,3 161,9 20,7 29,18 29,36 0,8 -1,16 -5,23 -4,8 -13,19 -26,34 5,37 9,69 11,95 3,26 4,50 4,71l0 63 -44 0c-8,-96 -34,-161 -77,-195 -42,-34 -135,-51 -277,-51l-242 0c-2,34 -3,69 -3,105 -1,37 -2,86 -2,148l0 118 0 252 241 0c134,0 218,-9 250,-26 32,-18 52,-52 59,-103l42 0c-2,27 -5,54 -11,82 -5,28 -12,56 -21,85 9,32 15,63 19,92 4,30 6,59 6,86l-44 0c-4,-54 -22,-91 -52,-111 -31,-19 -107,-29 -230,-29l-36 0 -223 0 0 353c0,158 14,252 40,279 26,28 98,42 215,42 186,0 310,-20 371,-62 63,-41 105,-120 127,-236l44 0c-4,54 -11,103 -22,146 -11,42 -24,81 -41,116 6,15 11,28 13,37 2,9 4,18 4,25 0,25 -11,41 -34,50 -22,9 -69,14 -140,14 -14,0 -41,-1 -81,-2 -40,0 -73,-1 -100,-1 -117,0 -217,-2 -302,-8 -85,-5 -159,-14 -223,-26 -47,9 -95,17 -143,23 -48,5 -95,9 -143,11l0 -36c83,0 138,-23 167,-69 29,-45 43,-169 43,-372l0 -40c0,-3 0,-15 1,-38 1,-22 1,-43 1,-61l0 -312c0,-9 0,-29 -1,-61 -1,-32 -1,-60 -1,-83 0,-199 -14,-322 -43,-367 -28,-44 -84,-68 -167,-70l0 -36zm1336 -47l42 0 0 7c0,15 14,25 41,31 27,6 91,9 192,9l100 0 314 0 316 0 99 0c102,0 166,-3 193,-9 28,-6 41,-16 41,-31l0 -7 42 0c0,25 -1,49 -3,72 -2,24 -5,48 -10,73 14,45 25,87 33,126 7,39 11,76 11,111l-48 1c-24,-171 -170,-261 -440,-269 -4,0 -7,0 -9,-1l-113 1c-4,80 -6,165 -8,253 -2,88 -3,187 -3,297l0 386c0,144 3,244 9,299 5,56 15,99 28,127 12,25 35,44 69,58 33,13 80,20 138,22l0 36c-50,0 -103,-3 -159,-9 -57,-5 -119,-14 -186,-25 -70,11 -132,20 -189,25 -56,6 -108,9 -157,9l-1 -35c62,-2 110,-10 143,-23 33,-13 55,-32 68,-58 12,-28 21,-69 26,-125 5,-56 8,-154 8,-296l0 -79 0 -312c0,-155 -1,-270 -3,-344 -1,-75 -5,-143 -8,-206l-110 -1c-192,0 -312,17 -358,51 -46,33 -77,106 -92,219l-50 -1c2,-38 7,-76 14,-115 8,-39 18,-80 30,-121 -3,-21 -6,-43 -7,-66 -2,-22 -3,-49 -3,-80zm2355 840c155,278 280,467 375,567 94,100 189,149 282,149l19 0 0 36c-33,4 -59,6 -76,7 -18,1 -35,2 -52,2 -73,0 -133,-6 -180,-18 -46,-12 -89,-33 -129,-61 -42,-29 -85,-72 -128,-129 -43,-57 -102,-151 -176,-282 -9,-17 -21,-40 -37,-69 -52,-98 -108,-147 -168,-147 -7,0 -25,0 -51,-1 -28,-1 -62,-3 -103,-5l-1 259c0,179 14,291 43,337 29,46 85,70 170,72l-1 35c-43,-2 -90,-5 -140,-11 -50,-4 -108,-12 -173,-23 -67,11 -125,19 -175,23 -50,6 -95,9 -137,11l0 -36c85,-2 141,-27 170,-73 28,-45 42,-159 42,-340l0 -167 0 -490c0,-174 -14,-284 -43,-330 -29,-46 -85,-70 -169,-73l0 -36c40,1 82,4 127,9 44,6 94,14 148,25 59,-14 116,-24 170,-30 54,-7 106,-10 157,-10 170,0 301,34 393,102 91,68 137,165 137,290 0,88 -24,167 -74,236 -50,68 -123,125 -220,171zm-425 -15c31,5 60,7 86,10 27,2 50,3 69,3 115,0 202,-29 261,-87 58,-59 87,-146 87,-261 0,-121 -33,-216 -100,-284 -67,-68 -159,-102 -278,-102 -22,0 -43,1 -62,2 -19,2 -38,4 -57,8 -2,54 -4,110 -4,167 -2,57 -2,114 -2,171l0 373zm1910 736c164,0 296,-68 395,-203 100,-135 150,-315 150,-540 0,-224 -50,-403 -150,-538 -99,-134 -231,-201 -395,-201 -163,0 -295,67 -394,201 -99,134 -148,313 -148,538 0,226 50,406 149,541 99,134 230,202 393,202zm789 -743c0,229 -75,420 -226,572 -150,152 -338,228 -563,228 -224,0 -412,-76 -561,-228 -150,-152 -225,-343 -225,-572 0,-228 75,-418 225,-569 149,-152 337,-227 561,-227 225,0 413,76 563,227 151,152 226,341 226,569zm697 50l20 -47c21,3 39,6 56,8 17,2 33,2 49,2 102,0 183,-31 242,-92 59,-63 89,-147 89,-255 0,-127 -36,-223 -108,-287 -72,-65 -179,-97 -320,-97 -17,0 -37,1 -59,3 -21,1 -46,4 -73,8 -1,30 -2,75 -3,135 0,61 -1,129 -1,206l0 653c0,122 3,208 8,257 5,49 14,87 26,113 11,24 31,42 62,55 30,12 78,21 142,26l-1 36c-58,-2 -114,-6 -170,-11 -57,-6 -113,-14 -169,-23 -64,10 -121,17 -171,23 -51,6 -98,9 -142,11l0 -36c84,-2 140,-26 169,-72 29,-46 43,-159 43,-341l0 -167 0 -478c0,-181 -15,-295 -44,-341 -29,-47 -85,-71 -168,-74l0 -36c46,2 92,6 137,11 45,6 90,13 136,23 72,-14 139,-25 200,-31 62,-6 125,-9 188,-9 174,0 308,34 402,101 94,68 141,164 141,289 0,131 -50,239 -148,325 -99,86 -224,128 -374,128 -37,0 -67,-1 -91,-4 -25,-3 -47,-7 -68,-12zm1615 693c164,0 296,-68 395,-203 100,-135 150,-315 150,-540 0,-224 -50,-403 -150,-538 -99,-134 -231,-201 -395,-201 -163,0 -295,67 -394,201 -99,134 -148,313 -148,538 0,226 49,406 149,541 99,134 230,202 393,202zm789 -743c0,229 -76,420 -226,572 -150,152 -338,228 -563,228 -225,0 -412,-76 -562,-228 -149,-152 -224,-343 -224,-572 0,-228 75,-418 224,-569 150,-152 337,-227 562,-227 225,0 413,76 563,227 150,152 226,341 226,569zm174 -771c42,2 88,6 137,11 50,5 108,13 176,23 64,-10 121,-17 172,-23 50,-5 97,-9 140,-11l1 36c-84,3 -140,26 -168,70 -29,45 -43,151 -43,319l0 193 0 519c0,158 13,251 39,279 26,28 96,42 209,42 185,0 308,-20 370,-62 62,-41 104,-120 126,-236l45 0c-5,52 -13,100 -23,143 -11,43 -24,83 -41,119 0,1 1,2 1,4 12,28 18,47 18,58 0,25 -12,41 -35,50 -23,9 -71,14 -143,14 -14,0 -42,-1 -81,-2 -40,0 -73,-1 -99,-1 -123,0 -224,-2 -304,-8 -80,-5 -151,-14 -212,-26 -47,9 -94,17 -142,23 -48,5 -96,9 -143,11l0 -36c82,0 138,-23 167,-69 28,-45 42,-169 42,-372l0 -40c0,-3 1,-15 1,-38 1,-22 2,-42 2,-61l0 -311c0,-10 -1,-30 -2,-61 0,-32 -1,-60 -1,-83 0,-200 -14,-322 -42,-366 -28,-45 -84,-69 -167,-71l0 -37zm1313 0c44,2 92,6 143,11 51,6 108,13 171,23 67,-10 125,-18 174,-23 50,-5 96,-9 138,-11l0 36c-83,2 -139,26 -167,70 -29,45 -43,151 -43,321l0 192 0 488c0,174 14,284 43,330 28,46 84,70 167,72l0 36c-42,-2 -89,-5 -139,-11 -50,-4 -108,-12 -173,-23 -68,11 -127,19 -177,23 -49,6 -95,9 -137,11l-1 -36c84,-2 141,-27 170,-73 29,-45 43,-156 43,-329l0 -181 0 -487c0,-174 -14,-284 -43,-330 -29,-46 -86,-70 -170,-73l1 -36zm780 -47l43 0 0 7c0,15 13,25 41,31 26,6 91,9 192,9l99 0 314 0 316 0 100 0c101,0 165,-3 193,-9 27,-6 40,-16 40,-31l0 -7 43 0c0,25 -1,49 -3,72 -2,24 -6,48 -11,73 15,45 26,87 33,126 7,39 11,76 12,111l-49 1c-23,-171 -170,-261 -439,-269 -5,0 -8,0 -10,-1l-113 1c-3,80 -6,165 -8,253 -1,88 -2,187 -2,297l0 386c0,144 3,244 8,299 6,56 15,99 28,127 13,25 36,44 69,58 34,13 80,20 139,22l0 36c-50,0 -104,-3 -160,-9 -57,-5 -119,-14 -186,-25 -69,11 -132,20 -188,25 -57,6 -109,9 -157,9l-2 -35c63,-2 110,-10 143,-23 33,-13 56,-32 68,-58 12,-28 21,-69 27,-125 5,-56 7,-154 7,-296l0 -79 0 -312c0,-155 0,-270 -2,-344 -2,-75 -5,-143 -9,-206l-110 -1c-192,0 -311,17 -358,51 -46,33 -77,106 -92,219l-50 -1c2,-38 7,-76 15,-115 7,-39 17,-80 30,-121 -4,-21 -6,-43 -8,-66 -2,-22 -3,-49 -3,-80zm1980 294c-40,95 -80,194 -121,297 -40,102 -80,208 -120,316 54,1 105,2 153,3 48,0 93,0 132,0 51,0 89,0 116,0 27,-1 52,-2 76,-3 -38,-102 -76,-205 -116,-307 -38,-103 -79,-205 -120,-306zm30 -272l68 0 300 769c100,254 169,424 206,512 38,88 65,144 83,170 17,24 40,43 70,57 29,13 67,22 112,26l0 36c-41,-2 -86,-5 -133,-11 -49,-4 -106,-12 -172,-23 -59,11 -115,19 -166,25 -51,6 -98,9 -142,9l0 -37c53,-2 94,-10 120,-24 27,-15 40,-36 40,-65 0,-21 -9,-62 -26,-122 -17,-60 -42,-134 -73,-223l-54 -145c-38,-1 -87,-2 -146,-3 -59,-1 -95,-2 -110,-2 -28,0 -85,1 -172,2 -43,1 -77,2 -102,3l-40 101c-40,104 -69,187 -88,250 -19,63 -28,108 -28,133 0,33 11,56 34,71 23,14 63,22 118,24l0 37c-36,-2 -74,-5 -116,-11 -42,-4 -91,-12 -148,-23 -59,11 -109,19 -152,23 -43,6 -81,9 -116,11l0 -37c45,-2 83,-9 113,-21 30,-12 57,-30 79,-55 37,-39 129,-237 279,-594l42 -98 320 -765zm812 25c39,2 78,4 118,8 40,4 79,10 119,18 26,-9 47,-15 61,-19 15,-3 27,-5 36,-5 31,0 168,143 409,430 242,286 474,548 698,786l0 -374c0,-283 -4,-470 -10,-560 -7,-90 -19,-149 -37,-176 -13,-20 -32,-36 -55,-47 -24,-11 -57,-19 -102,-25l2 -36c33,2 69,6 109,11 39,5 86,13 140,23 55,-10 100,-17 136,-22 35,-5 68,-9 97,-12l0 36c-51,7 -86,17 -106,31 -20,15 -35,42 -45,81 -13,52 -23,151 -31,294 -7,145 -11,315 -11,510l0 525c0,2 1,13 2,33 2,20 4,40 4,61l-72 -11c-281,-334 -506,-597 -676,-789 -169,-192 -323,-360 -462,-504l0 460c0,195 2,345 8,451 5,106 13,179 25,219 10,34 30,60 62,79 31,19 74,30 127,33l0 36c-38,0 -79,-3 -123,-9 -44,-5 -92,-14 -144,-25 -57,11 -105,19 -143,23 -38,6 -73,9 -105,11l0 -35c80,-1 134,-32 162,-93 28,-61 42,-220 42,-478l0 -106 0 -406c0,-172 -16,-279 -49,-323 -33,-44 -95,-66 -186,-68l0 -36z"/>
  <path class="fil0" d="M390 9378l13 4c-1,6 -3,13 -5,19 -3,7 -6,14 -10,20 2,15 4,28 5,40 1,12 2,22 2,32l-17 0c-4,-33 -17,-58 -38,-76 -20,-18 -48,-26 -81,-26 -30,0 -54,8 -73,26 -19,17 -28,39 -28,66 0,26 8,48 25,66 17,18 51,39 103,62 57,26 94,50 113,72 19,22 29,50 29,82 0,45 -17,82 -50,109 -33,28 -78,42 -133,42 -26,0 -53,-5 -83,-14 -29,-10 -46,-14 -49,-14 -5,0 -8,1 -12,3 -3,2 -5,5 -6,9l-14 -3c2,-8 4,-16 7,-24 3,-8 6,-15 10,-23 -2,-14 -4,-27 -5,-39 -1,-12 -2,-24 -2,-34l16 0c6,38 22,68 47,89 26,21 58,32 97,32 33,0 61,-10 82,-28 22,-19 33,-42 33,-71 0,-28 -8,-52 -23,-70 -16,-18 -54,-41 -114,-68 -50,-23 -84,-45 -103,-67 -19,-22 -28,-48 -28,-80 0,-41 15,-76 46,-102 30,-27 70,-40 119,-40 24,0 48,2 73,7 25,5 38,8 40,8 4,0 7,-1 9,-2 2,-1 3,-3 5,-7zm588 10l13 5c-3,10 -6,19 -8,27 -3,7 -6,14 -10,21 1,12 1,22 2,30 0,8 0,14 0,19 0,3 0,9 0,19 -1,9 -1,16 -1,21l-15 0c-3,-47 -16,-82 -42,-105 -26,-23 -63,-35 -113,-35 -67,0 -120,22 -159,66 -38,44 -57,104 -57,182 0,79 20,142 61,188 40,46 95,69 164,69 48,0 85,-9 112,-29 27,-19 42,-47 45,-84l17 0c-1,10 -2,21 -4,32 -2,12 -5,24 -9,36 2,5 3,9 3,14 1,4 1,9 1,15 -22,12 -48,21 -77,28 -30,6 -62,9 -97,9 -92,0 -165,-24 -219,-72 -53,-48 -80,-112 -80,-194 0,-84 28,-151 83,-202 54,-50 127,-76 217,-76 34,0 69,4 105,12 35,8 54,12 55,12 4,0 6,-1 8,-2 2,-1 4,-3 5,-6zm66 -8c15,0 31,2 48,3 17,2 37,5 59,8 23,-3 43,-6 60,-8 17,-1 32,-3 47,-3l0 12c-28,1 -48,9 -57,24 -10,15 -15,51 -15,109l0 66 1 31c20,0 41,0 62,0 21,0 48,0 80,0 37,0 66,0 89,0 22,0 44,0 65,0l0 -89c0,-61 -4,-100 -14,-116 -10,-15 -29,-24 -58,-25l0 -12c15,0 31,2 48,3 17,2 37,5 59,8 22,-3 41,-6 58,-7 18,-2 34,-4 48,-4l0 12c-28,1 -47,9 -57,24 -10,16 -14,53 -14,112l0 63 0 167c0,60 4,97 14,113 10,16 29,24 57,24l0 13c-14,-1 -29,-2 -46,-4 -17,-2 -37,-4 -60,-8 -22,4 -42,6 -59,8 -17,2 -33,3 -48,4l0 -12c29,-1 48,-10 58,-25 10,-16 14,-55 14,-118l0 -56 0 -51c-21,0 -50,0 -86,-1 -37,0 -60,0 -69,0 -9,0 -29,0 -62,0 -33,1 -60,1 -80,1l0 112c0,60 5,97 15,113 10,16 29,24 57,25l0 12c-15,-1 -30,-2 -47,-4 -17,-2 -37,-4 -60,-8 -22,3 -42,6 -59,8 -17,2 -33,3 -48,4l0 -13c29,0 48,-9 58,-24 10,-16 15,-55 15,-117l0 -57 0 -164c0,-62 -5,-100 -15,-116 -10,-16 -29,-24 -58,-25l0 -12zm909 517c56,0 101,-23 135,-69 34,-46 51,-108 51,-185 0,-76 -17,-138 -51,-184 -34,-46 -79,-68 -135,-68 -56,0 -101,22 -134,68 -34,46 -51,107 -51,184 0,77 17,139 51,185 34,46 79,69 134,69zm270 -254c0,78 -26,143 -78,195 -51,52 -115,78 -192,78 -77,0 -141,-26 -192,-78 -51,-52 -77,-117 -77,-195 0,-78 26,-143 77,-194 51,-52 115,-78 192,-78 77,0 141,26 192,78 52,52 78,116 78,194zm333 254c56,0 101,-23 135,-69 35,-46 52,-108 52,-185 0,-76 -17,-138 -52,-184 -34,-46 -79,-68 -135,-68 -55,0 -100,22 -134,68 -34,46 -51,107 -51,184 0,77 17,139 51,185 34,46 79,69 134,69zm270 -254c0,78 -26,143 -77,195 -52,52 -116,78 -193,78 -76,0 -140,-26 -191,-78 -52,-52 -77,-117 -77,-195 0,-78 25,-143 77,-194 51,-52 115,-78 191,-78 77,0 141,26 193,78 51,52 77,116 77,194zm59 -263c15,0 30,2 47,3 17,2 37,5 60,8 22,-3 42,-6 59,-7 17,-2 33,-4 48,-4l0 12c-28,1 -47,9 -57,24 -10,15 -15,51 -15,109l0 66 0 177c0,54 5,86 14,95 9,10 32,15 71,15 63,0 105,-7 126,-21 22,-14 36,-41 43,-81l16 0c-2,18 -5,34 -8,49 -4,14 -8,28 -14,41 0,0 0,0 0,1 4,9 6,16 6,20 0,8 -4,14 -11,17 -8,3 -25,4 -49,4 -5,0 -15,0 -28,0 -14,0 -25,0 -34,0 -42,0 -76,-1 -104,-3 -27,-2 -51,-5 -72,-9 -16,3 -32,6 -49,8 -16,2 -32,3 -49,4l0 -13c29,0 48,-8 57,-23 10,-16 15,-58 15,-127l0 -14c0,-1 0,-5 0,-13 1,-8 1,-15 1,-21l0 -106c0,-3 0,-10 -1,-21 0,-11 0,-20 0,-28 0,-69 -5,-110 -14,-126 -10,-15 -29,-23 -58,-24l0 -12zm933 517c56,0 101,-23 135,-69 34,-46 51,-108 51,-185 0,-76 -17,-138 -51,-184 -34,-46 -79,-68 -135,-68 -56,0 -101,22 -135,68 -34,46 -51,107 -51,184 0,77 17,139 51,185 34,46 79,69 135,69zm269 -254c0,78 -25,143 -77,195 -51,52 -115,78 -192,78 -77,0 -141,-26 -192,-78 -51,-52 -77,-117 -77,-195 0,-78 26,-143 77,-194 51,-52 115,-78 192,-78 77,0 141,26 192,78 52,52 77,116 77,194zm60 -263c13,0 28,1 43,3 16,2 33,5 52,8 24,-4 53,-7 85,-9 32,-1 71,-2 116,-2l21 0c24,0 39,1 45,3 6,2 9,6 9,12 0,3 0,5 -2,8 -1,3 -4,6 -9,11 2,13 3,24 4,33 1,9 1,17 1,24 0,2 0,5 0,10 0,5 0,9 0,12l-15 0c-2,-33 -11,-55 -26,-67 -14,-12 -46,-17 -95,-17l-86 0c0,11 -1,23 -1,36 0,12 0,29 0,50l0 40 0 91 82 0c46,0 74,-3 85,-9 11,-6 18,-18 20,-35l15 0c-1,9 -2,18 -4,28 -2,9 -4,19 -7,29 3,13 5,25 7,34 1,10 2,19 2,27l-16 0c-1,-19 -7,-32 -18,-38 -10,-7 -36,-10 -78,-10l-12 0 -76 0 0 55 0 43c0,65 5,105 15,121 10,16 29,24 59,24l5 0 0 13c-16,-1 -33,-2 -52,-3 -18,-2 -39,-5 -62,-9 -22,3 -42,6 -59,8 -18,2 -34,3 -48,4l0 -13c28,0 47,-8 57,-23 10,-16 14,-58 14,-127l0 -14c0,-1 1,-5 1,-13 0,-8 0,-15 0,-21l0 -106c0,-3 0,-10 0,-21 0,-11 -1,-21 -1,-29 0,-68 -4,-110 -14,-125 -10,-15 -29,-23 -57,-24l0 -12zm782 325c0,47 0,83 2,107 1,25 3,41 6,47 4,11 13,19 25,24 13,5 29,8 50,8 38,0 69,-11 90,-32 22,-21 33,-50 33,-88 0,-44 -14,-77 -41,-99 -27,-23 -67,-34 -121,-34 -5,0 -12,0 -19,1 -7,0 -16,1 -25,2l0 64zm130 -83l0 5c50,6 88,20 115,44 27,24 41,55 41,92 0,47 -18,83 -53,109 -35,26 -84,39 -146,39 -19,0 -38,-2 -58,-4 -21,-2 -42,-6 -66,-11 -23,4 -43,6 -60,8 -16,2 -31,3 -45,4l0 -13c28,0 48,-9 58,-24 9,-16 14,-55 14,-117l0 -57 0 -163c0,-62 -5,-101 -15,-117 -10,-16 -29,-24 -57,-25l0 -12c14,0 30,2 46,4 16,1 34,4 54,7 24,-5 46,-8 65,-11 20,-2 37,-3 53,-3 54,0 95,10 125,32 29,21 44,51 44,89 0,31 -10,58 -31,80 -20,22 -48,37 -84,44zm-130 -4c10,1 19,1 27,2 8,0 14,0 20,0 43,0 75,-9 96,-27 21,-19 32,-47 32,-84 0,-37 -11,-65 -32,-85 -20,-19 -51,-28 -91,-28 -10,0 -19,0 -27,1 -8,1 -15,3 -22,5 -1,16 -2,34 -3,52 0,18 0,38 0,59l0 105zm341 -238c14,0 29,2 46,3 17,2 37,5 60,8 27,-3 48,-6 63,-8 14,-1 27,-2 39,-3l0 12c-16,2 -29,5 -38,10 -9,4 -15,11 -18,19 -4,11 -7,31 -9,59 -2,29 -3,67 -3,116 0,58 2,104 6,136 5,32 12,57 23,76 13,24 31,42 54,54 23,12 51,18 83,18 63,0 107,-20 134,-59 27,-39 40,-107 40,-204l0 -85c0,-59 -5,-97 -15,-113 -9,-16 -29,-25 -58,-27l0 -12c14,0 29,2 44,4 14,2 29,4 43,7 16,-3 31,-6 45,-8 14,-2 27,-3 39,-3l0 12c-27,1 -44,9 -53,24 -9,14 -13,53 -13,116l0 29 0 63c0,102 -18,176 -53,223 -36,46 -92,69 -169,69 -45,0 -83,-7 -115,-21 -31,-13 -55,-34 -71,-61 -12,-20 -20,-44 -26,-72 -5,-27 -7,-65 -7,-114l0 -121c0,-59 -5,-96 -15,-111 -9,-15 -28,-23 -56,-24l0 -12zm951 -2l13 4c-1,6 -3,13 -5,19 -3,7 -6,14 -10,20 3,15 4,28 5,40 1,12 2,22 2,32l-17 0c-4,-33 -17,-58 -37,-76 -21,-18 -49,-26 -82,-26 -30,0 -54,8 -73,26 -19,17 -28,39 -28,66 0,26 8,48 25,66 17,18 52,39 103,62 57,26 94,50 114,72 19,22 28,50 28,82 0,45 -17,82 -50,109 -33,28 -78,42 -133,42 -26,0 -53,-5 -82,-14 -30,-10 -46,-14 -50,-14 -5,0 -8,1 -12,3 -3,2 -5,5 -6,9l-14 -3c2,-8 4,-16 7,-24 3,-8 6,-15 11,-23 -3,-14 -5,-27 -6,-39 -1,-12 -2,-24 -2,-34l16 0c6,38 22,68 47,89 26,21 58,32 97,32 34,0 61,-10 83,-28 21,-19 32,-42 32,-71 0,-28 -8,-52 -23,-70 -16,-18 -54,-41 -114,-68 -50,-23 -84,-45 -103,-67 -19,-22 -28,-48 -28,-80 0,-41 15,-76 46,-102 31,-27 70,-40 119,-40 24,0 48,2 73,7 25,5 38,8 40,8 4,0 7,-1 9,-2 2,-1 3,-3 5,-7zm115 2c15,0 31,2 49,4 17,1 37,4 58,7 23,-3 43,-6 59,-8 17,-1 33,-3 47,-3l0 12c-28,1 -47,9 -57,24 -9,15 -14,52 -14,109l0 66 0 167c0,59 5,97 14,113 10,15 29,23 57,24l0 13c-14,-1 -30,-2 -47,-4 -17,-2 -37,-4 -59,-8 -23,4 -43,6 -60,8 -17,2 -33,3 -47,4l-1 -13c29,-1 48,-9 58,-25 10,-15 15,-53 15,-112l0 -62 0 -166c0,-60 -5,-97 -15,-113 -10,-16 -29,-24 -58,-25l1 -12zm265 0c13,0 27,1 40,2 14,2 27,4 41,6 9,-3 16,-5 21,-6 5,-1 9,-2 12,-2 11,0 57,49 140,147 82,98 162,188 238,269l0 -128c0,-97 -1,-161 -3,-191 -3,-31 -7,-51 -13,-61 -4,-6 -11,-12 -19,-16 -8,-3 -19,-6 -34,-8l0 -12c11,0 24,2 37,3 14,2 30,5 48,8 19,-3 35,-6 47,-7 12,-2 23,-3 33,-4l0 12c-17,2 -29,6 -36,11 -7,5 -12,14 -16,27 -4,18 -8,52 -10,101 -3,49 -4,107 -4,174l0 179c0,1 0,5 1,11 0,7 1,14 1,21l-25 -4c-96,-114 -173,-203 -231,-269 -57,-66 -110,-123 -157,-172l0 157c0,67 0,118 2,154 2,36 5,61 9,75 3,12 10,21 21,27 11,6 25,10 44,11l0 13c-14,-1 -28,-2 -43,-3 -15,-2 -31,-5 -49,-9 -19,4 -35,6 -49,8 -13,2 -25,3 -35,4l0 -12c27,-1 45,-11 55,-32 9,-21 14,-75 14,-164l0 -36 0 -139c0,-58 -5,-95 -17,-110 -11,-15 -32,-23 -63,-23l0 -12zm634 0c14,0 28,1 44,3 16,2 33,5 52,8 23,-4 51,-7 83,-9 33,-1 74,-2 124,-2 30,0 48,1 55,3 7,2 10,6 10,12 0,3 0,5 -2,8 -1,3 -4,6 -9,11 2,13 3,24 4,33 1,9 1,17 1,24l0 22 -15 0c-2,-33 -11,-55 -26,-67 -14,-12 -46,-17 -94,-17l-83 0c-1,11 -1,23 -1,36 -1,12 -1,29 -1,50l0 40 0 87 82 0c46,0 75,-3 86,-9 11,-6 18,-18 20,-36l14 0c0,10 -1,19 -3,29 -2,9 -5,19 -8,29 3,10 6,21 7,31 1,10 2,20 2,29l-15 0c-2,-18 -7,-31 -18,-37 -10,-7 -36,-10 -78,-10l-13 0 -76 0 0 120c0,54 5,86 14,96 9,9 33,14 73,14 64,0 106,-7 127,-21 21,-14 36,-41 43,-81l16 0c-2,18 -4,35 -8,50 -4,14 -8,28 -14,40 2,5 4,9 4,12 1,3 2,6 2,9 0,8 -4,14 -12,17 -8,3 -23,4 -48,4 -5,0 -14,0 -27,0 -14,0 -25,0 -34,0 -40,0 -75,-1 -104,-3 -29,-2 -54,-5 -76,-9 -16,3 -32,6 -49,8 -16,2 -32,3 -49,4l0 -13c29,0 48,-8 57,-23 10,-16 15,-58 15,-127l0 -14c0,-1 0,-5 0,-13 1,-8 1,-15 1,-21l0 -107c0,-3 0,-10 -1,-20 0,-11 0,-21 0,-29 0,-68 -5,-110 -14,-125 -10,-15 -29,-23 -58,-24l0 -12zm795 -2l13 4c-1,6 -3,13 -5,19 -3,7 -6,14 -9,20 2,15 3,28 4,40 2,12 2,22 2,32l-17 0c-4,-33 -16,-58 -37,-76 -21,-18 -48,-26 -82,-26 -30,0 -54,8 -73,26 -18,17 -28,39 -28,66 0,26 9,48 25,66 17,18 52,39 103,62 57,26 95,50 114,72 19,22 28,50 28,82 0,45 -16,82 -50,109 -33,28 -78,42 -133,42 -25,0 -53,-5 -82,-14 -30,-10 -46,-14 -50,-14 -4,0 -8,1 -11,3 -3,2 -6,5 -7,9l-14 -3c2,-8 5,-16 7,-24 3,-8 7,-15 11,-23 -3,-14 -4,-27 -6,-39 -1,-12 -1,-24 -1,-34l15 0c6,38 22,68 48,89 25,21 57,32 96,32 34,0 61,-10 83,-28 21,-19 32,-42 32,-71 0,-28 -8,-52 -23,-70 -16,-18 -53,-41 -114,-68 -49,-23 -84,-45 -103,-67 -19,-22 -28,-48 -28,-80 0,-41 15,-76 46,-102 31,-27 70,-40 119,-40 24,0 49,2 73,7 25,5 39,8 40,8 4,0 7,-1 9,-2 2,-1 4,-3 5,-7zm442 0l13 4c-1,6 -3,13 -5,19 -3,7 -6,14 -10,20 2,15 4,28 5,40 1,12 2,22 2,32l-17 0c-4,-33 -17,-58 -38,-76 -20,-18 -48,-26 -81,-26 -30,0 -54,8 -73,26 -19,17 -28,39 -28,66 0,26 8,48 25,66 17,18 51,39 103,62 57,26 94,50 113,72 19,22 29,50 29,82 0,45 -17,82 -50,109 -33,28 -78,42 -133,42 -26,0 -53,-5 -83,-14 -29,-10 -46,-14 -49,-14 -5,0 -8,1 -12,3 -3,2 -5,5 -6,9l-14 -3c2,-8 4,-16 7,-24 3,-8 6,-15 10,-23 -2,-14 -4,-27 -5,-39 -1,-12 -2,-24 -2,-34l16 0c6,38 22,68 47,89 26,21 58,32 97,32 33,0 61,-10 82,-28 22,-19 33,-42 33,-71 0,-28 -8,-52 -23,-70 -16,-18 -54,-41 -114,-68 -50,-23 -84,-45 -103,-67 -19,-22 -28,-48 -28,-80 0,-41 15,-76 46,-102 30,-27 70,-40 119,-40 24,0 48,2 73,7 25,5 38,8 40,8 4,0 7,-1 9,-2 2,-1 3,-3 5,-7z"/>
  <path class="fil0" d="M9017 9464c-14,33 -28,66 -42,101 -13,35 -27,71 -41,108 19,1 36,1 53,1 16,0 31,0 45,0 17,0 30,0 39,0 9,0 18,0 26,-1 -13,-35 -26,-69 -39,-105 -14,-35 -27,-70 -41,-104zm10 -93l23 0 103 263c34,87 57,145 70,175 13,30 22,49 28,58 6,8 14,15 24,19 10,5 23,8 39,9l0 13c-14,-1 -30,-2 -46,-4 -16,-2 -36,-4 -59,-8 -20,4 -39,6 -56,8 -18,2 -34,3 -49,4l0 -13c18,-1 32,-4 41,-8 9,-5 14,-13 14,-22 0,-8 -3,-22 -9,-42 -6,-21 -14,-46 -25,-76l-19 -50c-13,0 -29,-1 -49,-1 -20,0 -33,-1 -38,-1 -9,0 -29,1 -59,1 -14,0 -26,1 -35,1l-13 34c-14,36 -24,64 -30,86 -7,22 -10,37 -10,45 0,12 4,20 12,25 8,4 21,7 40,8l0 13c-12,-1 -25,-2 -40,-4 -14,-2 -31,-4 -50,-8 -20,4 -38,6 -52,8 -15,2 -28,3 -40,4l0 -13c16,-1 28,-3 39,-7 10,-4 19,-11 27,-19 12,-13 44,-81 95,-203l14 -34 110 -261zm277 9c14,0 27,1 41,2 13,2 27,4 40,6 9,-3 16,-5 21,-6 5,-1 9,-2 12,-2 11,0 58,49 140,147 83,98 162,188 239,269l0 -128c0,-97 -2,-161 -4,-191 -2,-31 -6,-51 -12,-61 -5,-6 -11,-12 -19,-16 -8,-3 -20,-6 -35,-8l0 -12c12,0 24,2 38,3 13,2 29,5 48,8 18,-3 34,-6 46,-7 12,-2 23,-3 33,-4l0 12c-17,2 -29,6 -36,11 -7,5 -12,14 -15,27 -5,18 -8,52 -11,101 -2,49 -4,107 -4,174l0 179c0,1 1,5 1,11 1,7 1,14 2,21l-25 -4c-96,-114 -173,-203 -231,-269 -58,-66 -111,-123 -158,-172l0 157c0,67 1,118 3,154 1,36 4,61 8,75 4,12 11,21 21,27 11,6 26,10 44,11l0 13c-13,-1 -27,-2 -42,-3 -15,-2 -32,-5 -49,-9 -20,4 -36,6 -49,8 -13,2 -25,3 -36,4l0 -12c27,-1 46,-11 55,-32 10,-21 15,-75 15,-164l0 -36 0 -139c0,-58 -6,-95 -17,-110 -11,-15 -33,-23 -64,-23l0 -12zm741 516c-22,4 -42,6 -59,8 -17,2 -33,3 -47,4l0 -13c28,0 48,-9 58,-24 9,-16 14,-55 14,-117l0 -57 0 -164c0,-62 -5,-101 -14,-116 -10,-16 -30,-24 -58,-25l0 -12c15,0 30,2 47,3 17,2 37,5 59,8 22,-4 44,-8 66,-10 22,-2 44,-4 66,-4 102,0 180,24 236,72 56,47 84,114 84,199 0,81 -27,145 -82,193 -55,48 -128,72 -221,72 -37,0 -86,-6 -148,-17 0,0 -1,0 -1,0zm36 -199c0,45 0,82 1,111 1,28 2,45 4,51 3,11 13,19 31,25 17,6 40,9 68,9 74,0 131,-20 171,-61 40,-41 60,-100 60,-175 0,-84 -22,-149 -65,-193 -44,-45 -106,-68 -188,-68 -14,0 -27,1 -40,2 -14,2 -26,4 -38,6 -2,22 -3,46 -3,71 -1,26 -1,64 -1,115l0 107zm704 -317c13,0 27,1 40,2 14,2 29,4 43,6 2,0 4,-1 6,-1 18,-6 30,-9 35,-9 5,0 9,2 13,6 4,4 9,13 15,27 37,77 72,148 106,213 33,64 64,124 95,178 39,-79 85,-178 139,-296 19,-41 32,-70 40,-87l1 -3c10,-22 21,-34 31,-34 3,0 7,1 12,2 5,1 11,3 17,4 14,-2 28,-4 40,-5 13,-2 25,-3 36,-3l0 12c-23,1 -39,6 -46,14 -7,9 -11,34 -11,77 0,17 0,29 0,37 0,8 1,16 1,22l6 184c3,78 9,126 18,143 9,18 26,26 51,26l2 0 0 13c-15,-1 -31,-2 -47,-4 -17,-2 -34,-4 -51,-7 -17,3 -34,5 -50,7 -16,2 -32,3 -46,4l-1 -13c23,0 39,-5 47,-17 8,-11 12,-38 12,-80 0,-25 -1,-43 -1,-54 0,-11 0,-20 0,-28l-4 -145c0,-4 0,-18 -2,-44 -1,-25 -2,-47 -3,-67 -46,97 -87,185 -124,266 -37,81 -64,142 -80,182l-15 0c-34,-75 -70,-149 -107,-222 -36,-74 -74,-147 -113,-220 -5,71 -9,136 -11,195 -3,59 -4,103 -4,130 0,45 5,73 14,85 10,12 29,19 57,19l0 13c-13,-1 -27,-2 -42,-3 -14,-2 -30,-5 -48,-9 -14,3 -28,5 -43,7 -15,2 -30,3 -45,5l0 -13c20,-2 35,-6 43,-11 9,-6 15,-17 19,-33 3,-9 5,-20 7,-34 2,-14 4,-38 6,-72 5,-59 9,-109 11,-149 2,-40 4,-72 4,-95l0 -14c0,-43 -5,-69 -14,-78 -9,-10 -28,-15 -59,-17l0 -12zm958 84c-14,33 -28,66 -41,101 -14,35 -28,71 -42,108 19,1 36,1 53,1 16,0 31,0 45,0 17,0 30,0 39,0 9,0 18,0 26,-1 -13,-35 -26,-69 -39,-105 -13,-35 -27,-70 -41,-104zm10 -93l23 0 103 263c34,87 57,145 70,175 13,30 22,49 28,58 6,8 14,15 24,19 10,5 23,8 39,9l0 13c-14,-1 -30,-2 -46,-4 -16,-2 -36,-4 -59,-8 -20,4 -39,6 -56,8 -18,2 -34,3 -49,4l0 -13c18,-1 32,-4 41,-8 9,-5 14,-13 14,-22 0,-8 -3,-22 -9,-42 -6,-21 -14,-46 -25,-76l-18 -50c-13,0 -30,-1 -50,-1 -20,0 -33,-1 -38,-1 -9,0 -29,1 -59,1 -14,0 -26,1 -35,1l-13 34c-14,36 -24,64 -30,86 -7,22 -10,37 -10,45 0,12 4,20 12,25 8,4 21,7 40,8l0 13c-12,-1 -25,-2 -39,-4 -15,-2 -32,-4 -51,-8 -20,4 -37,6 -52,8 -15,2 -28,3 -40,4l0 -13c16,-1 29,-3 39,-7 10,-4 19,-11 27,-19 12,-13 44,-81 95,-203l14 -34 110 -261zm277 9c14,0 27,1 41,2 13,2 27,4 40,6 9,-3 16,-5 21,-6 5,-1 10,-2 13,-2 10,0 57,49 139,147 83,98 162,188 239,269l0 -128c0,-97 -1,-161 -4,-191 -2,-31 -6,-51 -12,-61 -5,-6 -11,-12 -19,-16 -8,-3 -20,-6 -35,-8l1 -12c11,0 23,2 37,3 13,2 29,5 48,8 18,-3 34,-6 46,-7 12,-2 23,-3 33,-4l0 12c-17,2 -29,6 -36,11 -7,5 -12,14 -15,27 -5,18 -8,52 -11,101 -2,49 -4,107 -4,174l0 179c0,1 1,5 1,11 1,7 1,14 2,21l-25 -4c-96,-114 -173,-203 -231,-269 -58,-66 -111,-123 -158,-172l0 157c0,67 1,118 3,154 1,36 4,61 8,75 4,12 11,21 21,27 11,6 26,10 44,11l0 13c-13,-1 -27,-2 -42,-3 -15,-2 -32,-5 -49,-9 -20,4 -36,6 -49,8 -13,2 -25,3 -36,4l0 -12c27,-1 46,-11 55,-32 10,-21 15,-75 15,-164l0 -36 0 -139c0,-58 -6,-95 -17,-110 -11,-15 -33,-23 -64,-23l0 -12zm856 84c-14,33 -28,66 -42,101 -13,35 -27,71 -41,108 19,1 36,1 53,1 16,0 31,0 45,0 17,0 30,0 39,0 9,0 18,0 26,-1 -13,-35 -26,-69 -39,-105 -14,-35 -27,-70 -41,-104zm10 -93l23 0 103 263c34,87 57,145 70,175 13,30 22,49 28,58 6,8 14,15 24,19 10,5 23,8 39,9l0 13c-14,-1 -30,-2 -46,-4 -17,-2 -36,-4 -59,-8 -20,4 -39,6 -56,8 -18,2 -34,3 -49,4l0 -13c18,-1 32,-4 41,-8 9,-5 14,-13 14,-22 0,-8 -3,-22 -9,-42 -6,-21 -14,-46 -25,-76l-19 -50c-13,0 -29,-1 -49,-1 -21,0 -33,-1 -38,-1 -9,0 -29,1 -59,1 -15,0 -26,1 -35,1l-13 34c-14,36 -24,64 -30,86 -7,22 -10,37 -10,45 0,12 4,20 12,25 8,4 21,7 40,8l0 13c-12,-1 -25,-2 -40,-4 -14,-2 -31,-4 -50,-8 -20,4 -38,6 -52,8 -15,2 -28,3 -40,4l0 -13c16,-1 28,-3 39,-7 10,-4 19,-11 27,-19 12,-13 44,-81 95,-203l14 -34 110 -261zm750 17l12 5c-2,8 -5,16 -8,24 -3,8 -6,15 -11,22 0,4 1,12 1,23 1,12 1,21 1,28 0,2 0,6 0,13 -1,6 -1,15 -2,27l-15 0c-1,-46 -15,-82 -40,-105 -26,-23 -63,-35 -113,-35 -68,0 -120,22 -158,66 -37,44 -55,105 -55,185 0,78 21,140 63,186 42,46 99,69 171,69 20,0 38,-2 54,-5 16,-3 27,-7 34,-12 4,-3 6,-6 7,-12 2,-5 2,-15 2,-30l0 -10 0 -51c0,-36 -4,-59 -14,-69 -9,-10 -28,-16 -58,-18l0 -12c15,0 31,1 49,3 17,2 37,5 59,8 18,-3 34,-6 50,-8 15,-2 28,-3 38,-3l0 12c-21,1 -36,7 -43,17 -8,10 -11,36 -11,79l0 4 0 50c0,12 1,19 3,22 3,3 7,5 13,5l0 11c-32,13 -66,23 -100,29 -34,7 -67,10 -99,10 -92,0 -165,-24 -220,-73 -54,-49 -81,-114 -81,-195 0,-84 27,-151 81,-201 54,-50 127,-75 219,-75 33,0 67,4 102,12 35,7 53,11 54,11 4,0 8,0 10,-1 2,-1 3,-3 5,-6zm108 -8c14,0 28,1 44,3 16,2 33,5 52,8 23,-4 51,-7 83,-9 33,-1 74,-2 124,-2 30,0 48,1 55,3 7,2 10,6 10,12 0,3 0,5 -2,8 -1,3 -4,6 -9,11 2,13 3,24 4,33 1,9 1,17 1,24l0 22 -15 0c-2,-33 -11,-55 -26,-67 -14,-12 -46,-17 -94,-17l-83 0c-1,11 -1,23 -1,36 -1,12 -1,29 -1,50l0 40 0 87 82 0c46,0 75,-3 86,-9 11,-6 18,-18 20,-36l14 0c0,10 -1,19 -3,29 -2,9 -5,19 -8,29 3,10 6,21 7,31 1,10 2,20 2,29l-15 0c-2,-18 -7,-31 -18,-37 -10,-7 -36,-10 -78,-10l-13 0 -76 0 0 120c0,54 5,86 14,96 9,9 33,14 73,14 64,0 106,-7 127,-21 21,-14 36,-41 43,-81l16 0c-2,18 -4,35 -8,50 -4,14 -8,28 -14,40 2,5 4,9 4,12 1,3 2,6 2,9 0,8 -4,14 -12,17 -8,3 -23,4 -48,4 -5,0 -14,0 -27,0 -14,0 -25,0 -34,0 -40,0 -75,-1 -104,-3 -29,-2 -54,-5 -76,-9 -16,3 -32,6 -49,8 -16,2 -32,3 -49,4l0 -13c29,0 48,-8 57,-23 10,-16 15,-58 15,-127l0 -14c0,-1 0,-5 0,-13 1,-8 1,-15 1,-21l0 -107c0,-3 0,-10 -1,-20 0,-11 0,-21 0,-29 0,-68 -5,-110 -14,-125 -10,-15 -29,-23 -58,-24l0 -12zm476 0c13,0 27,1 40,2 14,2 29,4 43,6 2,0 4,-1 6,-1 18,-6 30,-9 35,-9 5,0 9,2 13,6 4,4 9,13 15,27 37,77 72,148 106,213 33,64 64,124 95,178 39,-79 85,-178 139,-296 19,-41 32,-70 40,-87l1 -3c10,-22 21,-34 31,-34 3,0 7,1 12,2 5,1 11,3 17,4 14,-2 28,-4 40,-5 13,-2 25,-3 36,-3l0 12c-23,1 -39,6 -46,14 -7,9 -11,34 -11,77 0,17 0,29 0,37 0,8 1,16 1,22l6 184c3,78 9,126 18,143 9,18 26,26 51,26l2 0 0 13c-15,-1 -31,-2 -47,-4 -17,-2 -34,-4 -51,-7 -17,3 -34,5 -50,7 -16,2 -32,3 -46,4l-1 -13c23,0 39,-5 47,-17 8,-11 12,-38 12,-80 0,-25 -1,-43 -1,-54 0,-11 0,-20 0,-28l-4 -145c0,-4 0,-18 -2,-44 -1,-25 -2,-47 -3,-67 -46,97 -87,185 -124,266 -37,81 -64,142 -80,182l-15 0c-34,-75 -70,-149 -106,-222 -37,-74 -75,-147 -114,-220 -5,71 -9,136 -11,195 -3,59 -4,103 -4,130 0,45 5,73 14,85 10,12 29,19 57,19l0 13c-13,-1 -27,-2 -41,-3 -15,-2 -31,-5 -49,-9 -14,3 -28,5 -43,7 -15,2 -30,3 -45,5l0 -13c21,-2 35,-6 43,-11 9,-6 15,-17 19,-33 3,-9 5,-20 7,-34 2,-14 4,-38 6,-72 5,-59 9,-109 11,-149 2,-40 4,-72 4,-95l0 -14c0,-43 -5,-69 -14,-78 -9,-10 -28,-15 -59,-17l0 -12zm737 0c13,0 28,1 44,3 15,2 33,5 51,8 24,-4 52,-7 84,-9 32,-1 73,-2 124,-2 30,0 48,1 55,3 6,2 10,6 10,12 0,3 -1,5 -2,8 -2,3 -4,6 -9,11 2,13 3,24 4,33 1,9 1,17 1,24l0 22 -15 0c-3,-33 -11,-55 -26,-67 -15,-12 -46,-17 -95,-17l-83 0c0,11 -1,23 -1,36 0,12 0,29 0,50l0 40 0 87 82 0c46,0 74,-3 86,-9 11,-6 17,-18 20,-36l14 0c-1,10 -2,19 -4,29 -2,9 -4,19 -7,29 3,10 5,21 7,31 1,10 2,20 2,29l-15 0c-2,-18 -8,-31 -18,-37 -11,-7 -37,-10 -79,-10l-12 0 -76 0 0 120c0,54 4,86 13,96 9,9 34,14 74,14 63,0 106,-7 127,-21 21,-14 35,-41 43,-81l15 0c-1,18 -4,35 -7,50 -4,14 -9,28 -14,40 2,5 3,9 4,12 1,3 1,6 1,9 0,8 -4,14 -11,17 -8,3 -24,4 -48,4 -5,0 -14,0 -28,0 -14,0 -25,0 -34,0 -40,0 -74,-1 -103,-3 -29,-2 -55,-5 -76,-9 -16,3 -33,6 -49,8 -16,2 -33,3 -49,4l0 -13c28,0 47,-8 57,-23 10,-16 15,-58 15,-127l0 -14c0,-1 0,-5 0,-13 0,-8 0,-15 0,-21l0 -107c0,-3 0,-10 0,-20 0,-11 0,-21 0,-29 0,-68 -5,-110 -15,-125 -9,-15 -29,-23 -57,-24l0 -12zm455 0c13,0 27,1 40,2 14,2 27,4 41,6 9,-3 16,-5 21,-6 5,-1 9,-2 12,-2 11,0 57,49 140,147 83,98 162,188 238,269l0 -128c0,-97 -1,-161 -3,-191 -3,-31 -7,-51 -13,-61 -4,-6 -11,-12 -19,-16 -8,-3 -19,-6 -34,-8l0 -12c12,0 24,2 38,3 13,2 29,5 47,8 19,-3 35,-6 47,-7 12,-2 23,-3 33,-4l0 12c-17,2 -29,6 -36,11 -7,5 -12,14 -15,27 -5,18 -8,52 -11,101 -3,49 -4,107 -4,174l0 179c0,1 0,5 1,11 1,7 1,14 1,21l-24 -4c-97,-114 -173,-203 -231,-269 -58,-66 -111,-123 -158,-172l0 157c0,67 1,118 2,154 2,36 5,61 9,75 3,12 10,21 21,27 11,6 25,10 44,11l0 13c-13,-1 -28,-2 -43,-3 -15,-2 -31,-5 -49,-9 -19,4 -35,6 -48,8 -13,2 -25,3 -36,4l0 -12c27,-1 46,-11 55,-32 10,-21 14,-75 14,-164l0 -36 0 -139c0,-58 -5,-95 -16,-110 -12,-15 -33,-23 -64,-23l0 -12z"/>
  <path class="fil0" d="M16050 9364l14 0 0 2c0,5 5,9 14,11 10,2 32,3 66,3l34 0 107 0 108 0 34 0c35,0 57,-1 66,-3 10,-2 14,-6 14,-11l0 -2 15 0c0,8 -1,16 -1,24 -1,8 -2,17 -4,25 5,15 9,30 11,43 3,13 4,26 4,38l-16 0c-8,-58 -58,-89 -151,-92 -1,0 -2,0 -3,0l-38 0c-2,28 -2,57 -3,87 -1,30 -1,64 -1,102l0 131c0,49 1,84 3,103 2,19 5,33 9,43 5,8 13,15 24,20 12,4 27,7 47,7l0 13c-17,-1 -35,-2 -54,-3 -20,-2 -41,-5 -64,-9 -23,4 -45,7 -64,9 -19,1 -37,2 -54,3l0 -12c21,-1 37,-4 49,-8 11,-5 19,-11 23,-20 4,-10 7,-24 9,-43 2,-19 3,-53 3,-101l0 -27 0 -106c0,-53 -1,-93 -1,-118 -1,-26 -2,-49 -3,-71l-38 0c-66,0 -106,6 -122,18 -16,11 -26,36 -32,74l-17 0c1,-13 3,-26 5,-39 3,-14 6,-27 11,-42 -2,-7 -3,-14 -3,-22 -1,-8 -1,-17 -1,-27zm719 16c14,0 30,2 46,3 17,2 37,5 60,8 27,-3 48,-6 63,-8 14,-1 28,-2 39,-3l0 12c-16,2 -28,5 -38,10 -9,4 -15,11 -18,19 -4,11 -7,31 -9,59 -2,29 -3,67 -3,116 0,58 2,104 7,136 4,32 12,57 22,76 13,24 31,42 55,54 23,12 50,18 82,18 63,0 107,-20 134,-59 27,-39 40,-107 40,-204l0 -85c0,-59 -5,-97 -14,-113 -10,-16 -30,-25 -59,-27l0 -12c15,0 29,2 44,4 14,2 29,4 44,7 15,-3 30,-6 44,-8 14,-2 27,-3 39,-3l0 12c-26,1 -44,9 -53,24 -9,14 -13,53 -13,116l0 29 0 63c0,102 -18,176 -53,223 -36,46 -92,69 -169,69 -45,0 -83,-7 -114,-21 -32,-13 -56,-34 -72,-61 -12,-20 -20,-44 -25,-72 -6,-27 -8,-65 -8,-114l0 -121c0,-59 -5,-96 -15,-111 -9,-15 -28,-23 -56,-24l0 -12zm1124 0l0 12c-42,0 -95,33 -157,97l-2 1 -108 112 98 135c45,62 83,104 113,126 30,22 62,33 96,33 1,0 3,0 6,0 3,-1 5,-1 6,-1l0 13c-15,2 -29,4 -42,5 -13,1 -24,2 -32,2 -31,0 -57,-5 -78,-14 -21,-9 -40,-23 -58,-44 -14,-15 -40,-48 -79,-101 -40,-53 -71,-94 -94,-124l190 -218c11,-14 20,-23 25,-26 5,-4 9,-6 14,-6 3,0 6,0 11,2 4,1 8,3 14,5 15,-3 29,-6 41,-7 13,-2 25,-2 36,-2zm-505 0c15,0 30,2 47,3 17,2 37,5 60,8 27,-3 48,-6 62,-8 13,-1 26,-2 38,-3l0 12c-25,2 -42,11 -51,27 -9,15 -14,51 -14,107l0 64 0 168c0,60 5,97 15,113 10,15 29,23 57,24l0 13c-15,-1 -31,-2 -48,-4 -17,-2 -36,-4 -59,-8 -22,3 -41,6 -58,8 -18,2 -34,3 -49,4l0 -13c29,0 48,-9 58,-24 10,-16 15,-55 15,-117l0 -57 0 -163c0,-62 -5,-101 -15,-117 -10,-16 -29,-24 -58,-25l0 -12z"/>
 </g>
</svg>
