<?xml version="1.0" encoding="UTF-8"?>
<!DOCTYPE svg PUBLIC "-//W3C//DTD SVG 1.1//EN" "http://www.w3.org/Graphics/SVG/1.1/DTD/svg11.dtd">
<!-- Creator: CorelDRAW X7 -->
<svg xmlns="http://www.w3.org/2000/svg" xml:space="preserve" width="68.194mm" height="26.6639mm" version="1.1" style="shape-rendering:geometricPrecision; text-rendering:geometricPrecision; image-rendering:optimizeQuality; fill-rule:evenodd; clip-rule:evenodd"
viewBox="0 0 4721 1846"
 xmlns:xlink="http://www.w3.org/1999/xlink">
 <defs>
  <style type="text/css">
   <![CDATA[
    .fil0 {fill:#FEFEFE}
   ]]>
  </style>
 </defs>
 <g id="Layer_x0020_1">
  <metadata id="CorelCorpID_0Corel-Layer"/>
  <g id="_1616628365072">
   <path class="fil0" d="M2630 542c-57,-45 -113,-57 -207,-57 -115,0 -121,77 -78,101 75,42 383,-27 475,207 51,133 10,270 -64,345 -92,93 -225,118 -380,118 -83,0 -166,-10 -237,-36 -46,-17 -145,-75 -164,-111l194 -194c26,14 35,35 96,59 59,24 203,40 258,-5 32,-25 25,-70 -6,-87 -36,-20 -180,-24 -235,-32 -158,-24 -255,-108 -255,-285 0,-206 179,-331 389,-331 162,0 314,25 401,121 -6,11 -177,182 -187,187zm583 -542l-1223 1 -89 1361 995 -1 317 -1361z"/>
   <path class="fil0" d="M985 896c0,357 325,428 513,303 15,-10 33,-28 44,-33l0 78c52,3 233,1 298,0l0 -999c-81,-1 -232,-3 -305,0 -5,140 0,289 0,430 0,113 34,306 -123,305 -65,0 -107,-42 -119,-99 -9,-48 1,-536 -3,-636l-305 1c-3,206 0,440 0,650z"/>
   <path class="fil0" d="M308 1244c1,-76 -6,-595 4,-640 12,-55 55,-95 119,-95 156,1 121,193 121,310 0,66 -3,389 1,426l303 -1c6,-29 2,-353 2,-412 0,-113 11,-293 -23,-391 -59,-170 -237,-242 -401,-193 -84,26 -95,53 -134,75l0 -78 -298 0 1 999 305 0z"/>
   <path class="fil0" d="M3740 1720c0,-28 2,-55 34,-51 25,3 25,32 25,58 0,28 -2,53 -31,52 -30,-1 -28,-33 -28,-59zm59 -102c-14,-4 -62,-34 -104,2 -29,25 -27,61 -27,107 0,44 1,82 30,103 31,22 73,16 100,-3 0,1 1,2 1,2 0,1 1,2 1,2 4,8 3,9 8,10l63 -1 0 -311 -72 2 0 87z"/>
   <path class="fil0" d="M4213 1841c14,-57 -22,-170 29,-172 37,-2 30,40 30,71 0,33 0,67 0,101l72 -1 0 -147c0,-82 -68,-115 -129,-71 -4,-8 -1,-14 -10,-16l-63 1c0,45 -2,202 2,234l69 0z"/>
   <path class="fil0" d="M3431 1607c0,37 -4,162 5,188 7,21 27,42 50,46 36,8 51,-2 75,-15 3,8 1,13 10,15l62 0 -1 -235 -71 0c-1,33 -1,67 -1,101 0,30 8,73 -29,72 -36,-1 -28,-48 -28,-76 0,-32 1,-64 0,-97l-72 1z"/>
   <path class="fil0" d="M3972 1699c-5,-49 70,-49 66,0l-66 0zm139 47c1,-72 -13,-121 -71,-138 -149,-45 -182,170 -94,221 47,28 134,15 156,-23l-40 -40c-19,7 -23,21 -57,17 -21,-3 -34,-13 -34,-36l140 -1z"/>
   <path class="fil0" d="M4714 1633c-24,-44 -197,-53 -185,60 9,75 82,45 120,66 2,26 -20,26 -43,24 -19,-2 -33,-12 -44,-18 -14,10 -37,32 -44,45 28,47 222,59 202,-62 -5,-27 -22,-42 -45,-50 -40,-14 -67,2 -76,-21 12,-29 55,-9 74,-1l41 -43z"/>
   <path class="fil0" d="M3250 1633c-13,-23 -57,-31 -93,-30 -105,2 -110,101 -71,131 28,21 71,11 98,25 2,26 -17,26 -40,24 -26,-2 -29,-11 -48,-18l-43 45c29,49 224,58 202,-62 -5,-28 -23,-43 -45,-51 -27,-9 -76,-1 -76,-20 12,-28 56,-10 74,-1l42 -43z"/>
   <path class="fil0" d="M4503 1610l-41 -1 -1 -62 -72 1c0,87 -1,52 -14,65 -6,6 -14,42 -12,52l26 1c2,113 -23,185 115,175l0 -59c-15,-2 -26,2 -39,-5 -6,-13 -6,-94 -1,-112l28 -1 11 -54z"/>
   <path class="fil0" d="M3402 1610l-41 -1 0 -61 -72 0 0 60 -17 3c-3,15 -11,41 -10,54l27 0c1,117 -25,184 114,176l0 -59 -40 -4c-3,-16 -4,-95 0,-113l28 -1 11 -54z"/>
   <path class="fil0" d="M347 1744c0,24 0,47 -19,57 -15,8 -49,9 -62,-2 -18,-15 -13,-44 8,-52 16,-6 55,-4 73,-3zm-124 -97c1,2 -2,1 5,9l23 18c39,-31 102,-32 95,38 -32,1 -71,-5 -99,8 -23,10 -39,30 -35,66 7,72 103,68 133,38 10,18 -14,18 47,17 0,-48 10,-167 -15,-197 -31,-39 -124,-36 -154,3z"/>
   <path class="fil0" d="M1232 1744c1,29 2,47 -19,57 -17,9 -50,8 -63,-3 -16,-13 -10,-42 9,-51 14,-5 56,-4 73,-3zm-1 -32c-42,1 -143,-14 -133,75 8,74 111,64 129,39 8,7 1,-1 7,9 2,4 1,3 2,7l40 -1c5,-19 2,-84 2,-108 0,-35 4,-66 -16,-90 -32,-37 -133,-37 -154,7 8,9 16,17 27,25l6 -5c1,-1 2,-1 2,-2 28,-21 98,-26 88,44z"/>
   <path class="fil0" d="M2682 1727c0,-40 9,-70 48,-70 38,0 47,31 47,70 0,38 -4,77 -47,77 -45,0 -48,-43 -48,-77zm-44 36c17,117 209,123 183,-65 -16,-119 -208,-122 -183,65z"/>
   <path class="fil0" d="M928 1841c1,-39 1,-79 1,-118 -1,-36 7,-66 46,-66 75,1 32,128 45,184l43 0c6,-30 4,-160 -7,-183 -20,-45 -88,-58 -126,-19 -10,-21 16,-22 -47,-18l0 220 45 0z"/>
   <path class="fil0" d="M739 1659c76,-26 79,124 30,142 -42,16 -62,-19 -64,-54 -3,-43 -1,-76 34,-88zm-78 98c7,61 48,100 119,84 54,-12 71,-70 64,-138 -12,-124 -206,-127 -183,54z"/>
   <path class="fil0" d="M2177 1660c76,-26 82,124 30,141 -41,15 -61,-18 -63,-55 -3,-41 -1,-75 33,-86zm-77 100c6,59 51,98 120,80 55,-14 71,-71 62,-140 -14,-118 -204,-128 -182,60z"/>
   <path class="fil0" d="M2367 1841c0,-39 0,-79 0,-118 0,-37 7,-66 46,-66 75,0 33,127 46,184l42 0c6,-27 3,-161 -6,-183 -20,-46 -94,-56 -126,-19 -12,-20 16,-20 -47,-20l0 222 45 0z"/>
   <path class="fil0" d="M1551 1619c-2,34 -4,158 6,182 18,44 89,60 125,23l7 18 42 -1 0 -221 -45 0c-4,95 20,186 -47,184 -63,-2 -38,-93 -44,-185l-44 0z"/>
   <path class="fil0" d="M1826 1841c0,-39 0,-79 0,-118 0,-37 7,-66 46,-66 75,1 34,128 46,185l42 -1c5,-25 3,-160 -5,-180 -19,-50 -81,-57 -126,-24 -13,-19 11,-19 -48,-15l0 217c13,4 30,3 45,2z"/>
   <path class="fil0" d="M43 1840c1,-39 1,-78 0,-117 0,-37 8,-67 47,-66 39,1 44,31 44,70 0,38 0,76 0,114l45 0 0 -141c0,-86 -76,-103 -136,-62l-2 -19 -41 1 0 221 43 -1z"/>
   <path class="fil0" d="M2974 1527c-107,0 -100,12 -107,96l-25 1 -7 34 32 0 2 184 43 -1 0 -183 33 0 8 -35 -40 0c-6,-59 2,-56 55,-57l6 -39z"/>
   <path class="fil0" d="M536 1618l-46 -1 0 -61 -45 1c0,80 4,53 -21,63l-5 32 25 1c5,130 -31,194 94,188l0 -37c-51,-2 -49,-2 -48,-54 0,-32 -1,-66 0,-98l40 0 6 -34z"/>
   <path class="fil0" d="M1325 1530c-3,65 -1,135 -1,200 0,86 -3,113 89,111l-1 -38c-36,0 -43,2 -42,-36 0,-72 2,-172 -1,-238l-44 1z"/>
   <polygon class="fil0" points="2012,1841 2057,1841 2057,1619 2012,1620 "/>
   <polygon class="fil0" points="574,1841 619,1841 618,1619 574,1620 "/>
   <polygon class="fil0" points="2067,1533 2019,1533 2016,1587 2056,1587 "/>
   <polygon class="fil0" points="628,1533 579,1534 576,1587 616,1587 "/>
  </g>
 </g>
</svg>
