<?xml version="1.0" encoding="UTF-8"?>
<!DOCTYPE svg PUBLIC "-//W3C//DTD SVG 1.1//EN" "http://www.w3.org/Graphics/SVG/1.1/DTD/svg11.dtd">
<!-- Creator: CorelDRAW X7 -->
<svg xmlns="http://www.w3.org/2000/svg" xml:space="preserve" width="71.4416mm" height="14.5906mm" version="1.1" style="shape-rendering:geometricPrecision; text-rendering:geometricPrecision; image-rendering:optimizeQuality; fill-rule:evenodd; clip-rule:evenodd"
viewBox="0 0 1876 383"
 xmlns:xlink="http://www.w3.org/1999/xlink">
 <defs>
  <style type="text/css">
   <![CDATA[
    .fil0 {fill:#FEFEFE}
    .fil1 {fill:#C5C6C6}
   ]]>
  </style>
 </defs>
 <g id="Layer_x0020_1">
  <metadata id="CorelCorpID_0Corel-Layer"/>
  <g id="_1616632781328">
   <g>
    <path class="fil0" d="M644 299c-4,-5 -8,-8 -13,-14 -8,-10 -3,-9 -18,-13 -104,-16 -110,-188 -6,-209 130,-26 152,153 70,197 5,11 12,16 23,20 52,-22 93,-102 57,-172 -68,-130 -302,-81 -266,90 15,70 72,107 153,101z"/>
    <path class="fil0" d="M1036 39l-36 -1c-15,82 37,233 -69,236 -106,3 -63,-119 -74,-234l-38 -2c-4,23 -4,159 0,183 15,109 197,106 215,1 5,-26 5,-153 2,-183z"/>
    <path class="fil0" d="M1185 85c10,9 39,99 41,108l-81 -1 40 -107zm-122 210l39 1 29 -75 108 0 27 74 46 1c-2,-14 -100,-250 -106,-257l-28 0 -115 256z"/>
    <polygon class="fil0" points="1642,296 1683,295 1683,189 1780,188 1780,162 1683,161 1683,66 1781,65 1782,39 1643,38 "/>
    <polygon class="fil0" points="1344,296 1500,296 1500,269 1385,269 1384,39 1344,38 "/>
    <polygon class="fil0" points="1536,295 1576,295 1576,40 1537,38 "/>
    <polygon class="fil0" points="1835,296 1875,296 1876,39 1837,38 "/>
    <path class="fil0" d="M613 272c15,4 10,3 18,13 5,6 9,9 13,14 44,19 66,51 167,50 50,0 141,-18 174,-39 -54,8 -87,26 -154,20 -40,-3 -116,-25 -131,-50 -11,-4 -18,-9 -23,-20 -9,-1 -39,-31 -53,-5 -4,5 -3,8 -4,9 -5,9 5,3 -7,8z"/>
   </g>
   <path class="fil1" d="M72 47c-6,44 -5,55 19,89 22,31 52,50 57,65 11,1 24,14 35,20 11,-7 18,-23 26,-34 -11,-13 -149,-99 -90,-168 -8,2 -16,6 -24,11 -4,3 -8,5 -12,8 -1,0 -5,3 -6,4 -4,3 -2,2 -5,5z"/>
   <path class="fil0" d="M152 339c-37,-8 -104,-68 -126,-99l-20 -36c-3,-21 -3,-8 4,-12l-6 -32c-17,52 20,137 66,175 51,41 122,61 184,39l6 -2c-28,1 -44,3 -73,-2l7 -12c-15,-8 -30,-9 -42,-19z"/>
   <path class="fil1" d="M30 97c-8,50 36,100 58,120 33,31 60,46 104,73 3,-12 11,-18 15,-28 -24,-16 -52,-27 -69,-48 -16,-5 -50,-44 -60,-58 -21,-30 -33,-48 -24,-91 -10,7 -17,18 -24,32z"/>
   <path class="fil0" d="M22 115c-2,40 15,68 33,89 11,13 18,22 30,32 10,8 25,19 31,28 10,4 27,18 39,25 11,7 31,18 44,20l8 -10 -15 -9c-44,-27 -71,-42 -104,-73 -22,-20 -66,-70 -58,-120l-8 18z"/>
   <path class="fil0" d="M124 18c69,-34 206,21 253,123 1,2 3,7 4,9l5 7c0,0 1,1 2,2 -16,-139 -194,-189 -264,-141z"/>
   <path class="fil1" d="M11 136c-2,38 22,72 39,92 8,9 24,25 33,33 10,9 28,19 34,30 15,8 40,29 57,27 -10,-21 -50,-27 -63,-47l5 -7c-6,-9 -21,-20 -31,-28 -12,-10 -19,-19 -30,-32 -18,-21 -35,-49 -33,-89 -9,7 -7,7 -11,21z"/>
   <path class="fil0" d="M54 65c-9,43 3,61 24,91 10,14 44,53 60,58l10 -13c-5,-15 -35,-34 -57,-65 -24,-34 -25,-45 -19,-89 -9,5 -11,8 -18,18z"/>
   <path class="fil0" d="M4 160l6 32c1,20 28,53 41,65 9,10 17,18 26,26 9,6 23,16 30,23 2,-8 -1,-3 4,-10 5,-7 2,-4 6,-5 -6,-11 -24,-21 -34,-30 -9,-8 -25,-24 -33,-33 -17,-20 -41,-54 -39,-92l-7 24z"/>
   <path class="fil0" d="M297 267c11,7 49,4 65,-6 15,-9 9,-11 15,-6 11,-14 14,-44 12,-64 -7,15 -7,10 -17,19 -8,7 -3,3 -6,7 -9,10 2,11 -43,12l-11 37 -15 1z"/>
   <path class="fil0" d="M209 187l44 23c13,6 10,6 15,0 5,-10 4,-5 -20,-17 -47,-22 -97,-61 -121,-106 -18,-32 -16,-40 -3,-69l-5 1c-59,69 79,155 90,168z"/>
   <path class="fil1" d="M297 267l-23 -3 -9 20c20,4 41,8 62,6 21,-5 28,-10 42,-16 4,-8 6,-9 8,-19 -6,-5 0,-3 -15,6 -16,10 -54,13 -65,6z"/>
   <path class="fil1" d="M152 339l2 -7 -47 -26c-7,-7 -21,-17 -30,-23 -9,-8 -17,-16 -26,-26 -13,-12 -40,-45 -41,-65 -7,4 -7,-9 -4,12l20 36c22,31 89,91 126,99z"/>
   <path class="fil0" d="M292 343c-13,7 -32,1 -47,2l-16 14c40,7 64,6 89,-24l-26 8z"/>
   <path class="fil1" d="M292 343l26 -8 14 -13c-38,13 -44,10 -84,5l-9 8c11,9 36,8 53,8z"/>
   <path class="fil0" d="M327 290c-2,13 -7,15 -11,27 29,-3 44,-19 53,-43 -14,6 -21,11 -42,16z"/>
  </g>
 </g>
</svg>
