<?xml version="1.0" encoding="UTF-8"?>
<!DOCTYPE svg PUBLIC "-//W3C//DTD SVG 1.1//EN" "http://www.w3.org/Graphics/SVG/1.1/DTD/svg11.dtd">
<!-- Creator: CorelDRAW X7 -->
<svg xmlns="http://www.w3.org/2000/svg" xml:space="preserve" width="71.0787mm" height="17.9901mm" version="1.1" style="shape-rendering:geometricPrecision; text-rendering:geometricPrecision; image-rendering:optimizeQuality; fill-rule:evenodd; clip-rule:evenodd"
viewBox="0 0 4208 1065"
 xmlns:xlink="http://www.w3.org/1999/xlink">
 <defs>
  <style type="text/css">
   <![CDATA[
    .fil0 {fill:#FEFEFE}
   ]]>
  </style>
 </defs>
 <g id="Layer_x0020_1">
  <metadata id="CorelCorpID_0Corel-Layer"/>
  <g id="_1616633695680">
   <path class="fil0" d="M28 699c-6,20 -4,327 -1,364 85,4 180,0 266,0 437,0 874,0 1311,0 68,0 494,5 523,-2l-1 -363 -2098 1z"/>
   <path class="fil0" d="M1114 132c42,-4 71,2 87,34 18,36 14,108 -57,113 -34,3 -32,3 -31,-27 0,-33 -4,-91 1,-120zm122 233c53,-23 79,-46 94,-107 25,-97 -9,-240 -143,-244 -46,-1 -155,-5 -196,1l0 593 122 0 0 -222c12,13 108,200 116,222l151 -1c-12,-29 -54,-91 -73,-123 -15,-24 -66,-103 -71,-119z"/>
   <path class="fil0" d="M949 602c-4,-14 -170,-259 -193,-293 -12,-19 -6,-22 6,-40 23,-34 164,-239 169,-254l-149 0 -136 220c-11,15 0,5 -13,11l-1 -230 -123 -1 1 587 122 -1 1 -243c16,7 33,44 43,60l78 123c11,18 27,47 38,61l157 0z"/>
   <path class="fil0" d="M3 16c-6,54 -1,145 -1,203 0,118 -19,264 58,348 86,93 316,91 345,-153 4,-36 5,-365 1,-399l-119 1c-3,32 -1,230 -1,279 0,83 7,194 -83,193 -41,-1 -66,-32 -75,-64 -13,-49 2,-338 -6,-409l-119 1z"/>
   <path class="fil0" d="M1935 283c-2,-24 -3,-126 1,-144 66,-4 109,4 108,73 0,70 -43,78 -109,71zm0 127c85,-10 141,13 195,-53 63,-79 68,-299 -76,-336 -44,-12 -186,-6 -243,-6l2 587 121 0 1 -192z"/>
   <polygon class="fil0" points="1433,602 1762,602 1760,476 1582,474 1581,14 1431,15 "/>
   <path class="fil0" d="M2981 42c35,-3 94,-10 93,30 0,38 -59,32 -95,28l2 -58zm85 91c29,-10 45,-15 53,-43 9,-28 0,-56 -15,-70 -28,-27 -126,-19 -172,-17l0 235 47 -2 1 -95c42,-5 46,8 64,35 12,17 32,45 40,62l55 0c-7,-21 -23,-42 -33,-59 -20,-30 -35,-36 -40,-46z"/>
   <path class="fil0" d="M4061 503c52,-31 77,74 36,97 -59,33 -75,-74 -36,-97zm52 -17c-18,-25 -56,-29 -84,-11 -52,33 -47,132 4,160 43,25 76,-12 84,-16 0,21 5,50 -19,57 -35,11 -37,-4 -52,-16l-47 -3c1,78 127,68 152,29 19,-30 15,-168 12,-218l-41 0c-5,13 -2,10 -9,18z"/>
   <path class="fil0" d="M2728 93c17,-29 69,-61 80,-90 -72,-3 -58,0 -93,38 -6,7 -52,60 -60,61l-1 -100 -45 1 0 235 47 -2c1,-61 -10,-75 36,-105 11,7 57,90 65,107l59 0c-9,-29 -79,-117 -88,-145z"/>
   <path class="fil0" d="M3406 102c50,-27 71,73 29,95 -40,21 -63,-29 -50,-72 5,-17 8,-17 21,-23zm48 -15c-17,-26 -57,-31 -84,-13 -50,34 -43,131 5,156 46,24 60,-9 81,-14 1,35 1,61 -42,56 -33,-3 3,-20 -71,-23 -10,72 118,72 146,30 15,-22 16,-178 10,-213l-38 1 -6 17c0,-1 -1,2 -1,3z"/>
   <path class="fil0" d="M2375 2c-4,33 -3,131 0,166 4,50 38,73 91,73 56,1 88,-20 92,-73 4,-45 4,-119 1,-166l-46 1c-2,41 0,85 -1,126 0,42 0,76 -49,72 -74,-6 -27,-127 -45,-200l-43 1z"/>
   <path class="fil0" d="M2422 851c35,-4 85,-7 84,33 0,37 -47,36 -84,32l0 -65zm3 107c35,-2 74,5 101,-14 25,-18 36,-50 27,-83 -17,-67 -94,-53 -179,-51l1 239 47 -2c1,-24 -4,-68 3,-89z"/>
   <path class="fil0" d="M3257 909c55,-25 69,87 25,105 -54,21 -70,-84 -25,-105zm50 -17c-28,-16 -49,-35 -86,-11 -23,14 -36,42 -36,82 1,75 66,121 121,66 14,17 -14,21 46,19 2,-46 0,-97 0,-143 0,-112 9,-101 -45,-96l0 83z"/>
   <path class="fil0" d="M3276 562c-1,22 0,36 -15,46 -11,7 -31,9 -41,-1 -33,-33 36,-44 56,-45zm-63 -42c10,-15 12,-21 36,-21 24,1 26,9 26,30 -44,15 -112,12 -108,70 2,26 20,43 43,47 33,6 48,-7 68,-18 14,18 1,16 51,15 -17,-87 7,-144 -28,-167 -38,-27 -122,-15 -127,38l39 6z"/>
   <path class="fil0" d="M2413 571c-14,-78 70,-93 82,-32 15,80 -72,93 -82,32zm-47 7c24,110 200,85 175,-46 -20,-106 -203,-84 -175,46z"/>
   <path class="fil0" d="M3028 540c-2,-54 65,-56 66,0l-66 0zm65 48c-20,44 -68,23 -66,-20l112 0c12,-131 -142,-135 -159,-35 -25,148 156,133 156,62l-43 -7z"/>
   <path class="fil0" d="M2759 981c-17,-81 65,-95 79,-39 20,79 -68,96 -79,39zm126 0c26,-122 -152,-153 -173,-39 -23,124 147,154 173,39z"/>
   <path class="fil0" d="M3431 946c1,-22 8,-41 33,-40 23,1 31,17 31,41l-64 -1zm66 49c-11,14 -19,31 -45,20 -15,-6 -23,-22 -22,-41l111 0c11,-134 -145,-131 -157,-32 -19,148 151,127 154,58l-41 -5z"/>
   <path class="fil0" d="M3843 641c1,-42 -15,-139 35,-141 33,-2 31,30 31,57 0,28 0,58 1,86l45 -1c3,-87 20,-186 -66,-178 -27,3 -33,16 -49,26l-2 -23 -40 0 0 176 45 -2z"/>
   <path class="fil0" d="M3543 642c3,-41 -17,-137 33,-142 48,-5 32,70 34,143l45 0c2,-32 5,-129 -6,-152 -20,-39 -80,-33 -105,-2 -14,-22 13,-22 -45,-22l0 176 44 -1z"/>
   <path class="fil0" d="M3201 137c-2,-53 63,-54 64,0l-64 0zm103 52c-72,-9 -28,11 -63,18 -25,4 -42,-14 -41,-41l109 -2c11,-124 -138,-133 -155,-33 -8,49 10,94 51,107 44,13 105,-12 99,-49z"/>
   <path class="fil0" d="M3956 137c1,-53 64,-53 65,0l-65 0zm65 47c-10,13 -13,30 -42,21 -16,-5 -24,-21 -22,-40l108 0c14,-122 -134,-135 -154,-38 -26,134 129,144 150,67 0,-1 -2,-1 -2,-2l-38 -8z"/>
   <path class="fil0" d="M3739 916c6,-10 40,-27 63,8l40 -8c-6,-58 -121,-60 -141,-12 -16,36 9,59 34,68 55,20 71,7 68,39 -37,20 -53,5 -69,-17 -8,0 -15,1 -22,2 -4,1 -6,1 -10,2 -10,3 -5,1 -9,4 12,60 116,68 148,21 22,-31 5,-62 -25,-74 -39,-16 -71,-10 -77,-33z"/>
   <path class="fil0" d="M3730 184c1,22 -12,25 -32,24 -26,0 -24,-7 -36,-24l-41 5c4,65 119,66 146,24 36,-56 -28,-76 -67,-85 -17,-4 -33,-4 -33,-24 27,-21 47,-5 63,11l37 -6c-5,-60 -112,-56 -135,-21 -18,29 -3,59 19,70 24,12 58,13 79,26z"/>
   <polygon class="fil0" points="2789,643 2957,642 2957,602 2836,602 2836,404 2788,405 "/>
   <path class="fil0" d="M2676 401c-72,-11 -86,-3 -91,62 -11,7 -10,3 -25,6l2 35 24 3 1 136 45 0c8,-154 -24,-133 35,-141l-1 -34 -33 -2c-1,-12 0,-22 3,-30 18,-6 19,-2 37,-3l3 -32z"/>
   <path class="fil0" d="M2902 875l67 173 39 0c9,-12 65,-157 67,-173l-46 1c-3,11 -33,104 -42,110l-39 -111 -46 0z"/>
   <path class="fil0" d="M3795 93c12,15 5,5 20,11 3,32 -3,83 3,110 7,29 49,36 75,19l-2 -28c-32,-7 -31,4 -31,-36 0,-20 -2,-48 2,-67l28 0 -1 -35 -29 -1 0 -56c-15,3 -31,15 -44,22l0 32c-18,7 -21,-6 -21,29z"/>
   <path class="fil0" d="M3673 917c6,-10 12,-25 13,-39 -31,-11 -42,-10 -60,10l-11 -14 -39 1 1 173 44 -1c7,-102 -16,-141 52,-130z"/>
   <path class="fil0" d="M3476 471c-36,-14 -46,-8 -65,16 -6,-10 0,-8 -8,-20l-36 0 -1 176 44 -1c6,-110 -15,-142 55,-131l11 -40z"/>
   <path class="fil0" d="M2699 877c-35,-9 -39,-11 -61,14 -7,-9 -2,-16 -18,-16l-28 1 0 172 44 -1c7,-122 -16,-134 54,-131l9 -39z"/>
   <path class="fil0" d="M4197 108c6,-23 22,-38 -4,-43 -26,-5 -37,4 -45,19 -1,-1 -1,-2 -2,-3 -12,-18 -5,-15 -46,-13l0 169 44 0c2,-117 -11,-135 53,-129z"/>
   <path class="fil0" d="M3748 468c-39,-3 -43,-5 -45,10l0 165 46 0 -1 -175z"/>
   <polygon class="fil0" points="3105,1049 3149,1048 3149,875 3104,875 "/>
   <path class="fil0" d="M3544 83l0 153 45 0 -1 -169c-43,-3 -44,-3 -44,16z"/>
   <path class="fil0" d="M3544 18l1 26 42 0c6,-51 2,-43 -33,-43 -11,0 -10,6 -10,17z"/>
   <polygon class="fil0" points="3704,443 3749,443 3748,401 3704,402 "/>
   <polygon class="fil0" points="3104,850 3150,849 3149,809 3104,810 "/>
  </g>
 </g>
</svg>
