<?xml version="1.0" encoding="iso-8859-1"?>
<!-- Generator: Adobe Illustrator 19.0.0, SVG Export Plug-In . SVG Version: 6.00 Build 0)  -->
<svg version="1.1" id="Capa_1" xmlns="http://www.w3.org/2000/svg" xmlns:xlink="http://www.w3.org/1999/xlink" x="0px" y="0px"
	 viewBox="0 0 368 368" style="enable-background:new 0 0 368 368;" xml:space="preserve">
<g>
	<g>
		<g>
			<path d="M333.864,82.56h-0.008c0-0.048-0.016-0.024-0.016-0.024h-0.008c-0.056-0.064-0.12-0.128-0.176-0.184l-80-80
				C252.16,0.848,250.128,0,248,0h-15.64c-0.232,0-0.488,0-0.72,0H56C42.768,0,32,10.768,32,24v320c0,13.232,10.768,24,23.992,24
				H312c13.232,0,24-10.768,24-24V88C336,85.896,335.184,83.984,333.864,82.56z M320,344c0,4.408-3.584,8-8,8H55.992
				c-4.408,0-7.992-3.584-7.992-8V24c0-4.408,3.584-8,8-8h168v32H88c-4.424,0-8,3.584-8,8v48c0,4.416,3.576,8,8,8s8-3.584,8-8V64
				h128v40c0,4.416,3.576,8,8,8h88V344z M320,96h-80V16h4.688L320,91.32V96z"/>
			<path d="M104,224c0,44.112,35.888,80,80,80s80-35.888,80-80c0-19.976-7.408-38.216-19.552-52.248l10.208-15.312
				c2.456-3.672,1.464-8.648-2.216-11.096c-3.696-2.456-8.656-1.456-11.096,2.216l-8.712,13.064
				C219.136,150.248,202.304,144,184,144C139.888,144,104,179.888,104,224z M153.608,220.8l24,32c1.504,2.016,3.88,3.2,6.4,3.2
				c0.072,0,0.152,0,0.216,0c2.6-0.072,5-1.4,6.44-3.56l44.496-66.744C243.176,196.392,248,209.624,248,224
				c0,35.288-28.712,64-64,64c-35.288,0-64-28.712-64-64c0-35.288,28.712-64,64-64c15.024,0,28.824,5.24,39.76,13.936
				l-40.144,60.216L166.4,211.2c-2.648-3.528-7.664-4.264-11.192-1.6C151.672,212.248,150.952,217.264,153.608,220.8z"/>
		</g>
	</g>
</g>
<g>
</g>
<g>
</g>
<g>
</g>
<g>
</g>
<g>
</g>
<g>
</g>
<g>
</g>
<g>
</g>
<g>
</g>
<g>
</g>
<g>
</g>
<g>
</g>
<g>
</g>
<g>
</g>
<g>
</g>
</svg>
