<?xml version="1.0"?>
<svg xmlns="http://www.w3.org/2000/svg" id="Layer_1" data-name="Layer 1" viewBox="0 0 512 512" width="512" height="512"><title>black board</title><path d="M486,334H469V86.818A26.875,26.875,0,0,0,442,60H291.972l-7.231-27.277A17.1,17.1,0,0,0,268.312,20H243.688a17.1,17.1,0,0,0-16.429,12.723L220.028,60H69A26.875,26.875,0,0,0,42,86.818V334H26c-3.866,0-7,2.648-7,6.514v23.753A6.777,6.777,0,0,0,26,371H153.423L129.154,485.135a7.067,7.067,0,0,0,5.388,8.371,7.145,7.145,0,0,0,8.3-5.6L154.7,432H357.3l11.856,55.935a7.113,7.113,0,0,0,6.839,5.668,6.963,6.963,0,0,0,1.464-.092,7.1,7.1,0,0,0,5.389-8.407L358.577,371H486a6.777,6.777,0,0,0,7-6.733V340.514C493,336.648,489.866,334,486,334ZM240.788,36.323a3.091,3.091,0,0,1,2.9-2.323h24.624a3.089,3.089,0,0,1,2.9,2.322L277.485,60h-42.97ZM56,86.818A12.86,12.86,0,0,1,69,74H442a12.86,12.86,0,0,1,13,12.818V334H56ZM157.682,418l10.055-47H344.263l10.055,47ZM479,357H350l-.044,0-.026,0H162.07l-.026,0L162,357H33v-9H479Z"/></svg>
