<?xml version="1.0" encoding="iso-8859-1"?>
<!-- Generator: Adobe Illustrator 19.0.0, SVG Export Plug-In . SVG Version: 6.00 Build 0)  -->
<svg version="1.1" id="Capa_1" xmlns="http://www.w3.org/2000/svg" xmlns:xlink="http://www.w3.org/1999/xlink" x="0px" y="0px"
	 viewBox="0 0 480 480" style="enable-background:new 0 0 480 480;" xml:space="preserve">
<g>
	<g>
		<path d="M440,80H257.12c-8.031,0.015-15.537-3.987-20-10.664L224.176,49.8C216.761,38.663,204.26,31.98,190.88,32H40
			C17.92,32.026,0.026,49.92,0,72v336c0.026,22.08,17.92,39.974,40,40h400c22.08-0.026,39.974-17.92,40-40V120
			C479.974,97.92,462.08,80.026,440,80z M464,408c0,13.255-10.745,24-24,24H40c-13.255,0-24-10.745-24-24V168
			c0-13.255,10.745-24,24-24h400c13.255,0,24,10.745,24,24V408z M464,136c-0.304-0.224-0.664-0.392-0.976-0.616
			c-0.664-0.472-1.368-0.88-2.064-1.312c-1.34-0.838-2.729-1.594-4.16-2.264c-0.8-0.368-1.6-0.712-2.4-1.032
			c-1.55-0.587-3.134-1.078-4.744-1.472c-0.752-0.192-1.488-0.424-2.256-0.568c-2.438-0.476-4.916-0.723-7.4-0.736H40
			c-2.49,0.018-4.973,0.269-7.416,0.752c-0.8,0.144-1.504,0.376-2.256,0.568c-1.61,0.394-3.194,0.885-4.744,1.472
			c-0.8,0.32-1.6,0.664-2.4,1.032c-1.43,0.672-2.819,1.428-4.16,2.264c-0.696,0.432-1.4,0.84-2.064,1.312
			c-0.312,0.224-0.672,0.392-0.976,0.616L16,72c0-13.255,10.745-24,24-24h150.88c8.031-0.016,15.537,3.987,20,10.664l12.968,19.528
			C231.254,89.329,243.746,96.015,257.12,96H440c13.255,0,24,10.745,24,24V136z"/>
	</g>
</g>
<g>
	<g>
		<path d="M312,240h-8v-8c-0.035-30.913-25.087-55.965-56-56h-16c-30.913,0.035-55.965,25.087-56,56v8h-8c-13.255,0-24,10.745-24,24
			v112c0,13.255,10.745,24,24,24h144c13.255,0,24-10.745,24-24V264C336,250.745,325.255,240,312,240z M192,232
			c0.026-22.08,17.92-39.974,40-40h16c22.08,0.026,39.974,17.92,40,40v8h-96V232z M320,376c0,4.418-3.582,8-8,8H168
			c-4.418,0-8-3.582-8-8V264c0-4.418,3.582-8,8-8h144c4.418,0,8,3.582,8,8V376z"/>
	</g>
</g>
<g>
	<g>
		<path d="M253.864,295.992c-2.854-4.957-8.144-8.006-13.864-7.992c-8.81-0.022-15.97,7.102-15.992,15.912
			c-0.014,5.72,3.035,11.01,7.992,13.864V360c0,4.418,3.582,8,8,8s8-3.582,8-8v-42.224
			C255.635,313.38,258.26,303.627,253.864,295.992z"/>
	</g>
</g>
<g>
</g>
<g>
</g>
<g>
</g>
<g>
</g>
<g>
</g>
<g>
</g>
<g>
</g>
<g>
</g>
<g>
</g>
<g>
</g>
<g>
</g>
<g>
</g>
<g>
</g>
<g>
</g>
<g>
</g>
</svg>
