<svg height="480pt" viewBox="-16 0 480 480" width="480pt" xmlns="http://www.w3.org/2000/svg"><path d="m408 240h-24v-104c0-.175781-.089844-.328125-.105469-.503906-.039062-.699219-.175781-1.394532-.40625-2.054688-.089843-.257812-.152343-.503906-.265625-.753906-.386718-.871094-.925781-1.664062-1.597656-2.34375l-128-128c-.679688-.667969-1.472656-1.210938-2.34375-1.601562-.242188-.109376-.488281-.175782-.738281-.261719-.679688-.234375-1.386719-.375-2.101563-.417969-.128906.0273438-.28125-.0625-.441406-.0625h-192c-30.914062.0351562-55.9648438 25.085938-56 56v368c.0351562 30.914062 25.085938 55.964844 56 56h272c30.914062-.035156 55.964844-25.085938 56-56v-24h24c22.082031-.027344 39.972656-17.917969 40-40v-80c-.027344-22.082031-17.917969-39.972656-40-40zm-51.3125-112h-76.6875c-13.253906 0-24-10.746094-24-24v-76.6875zm11.3125 296c-.027344 22.082031-17.917969 39.972656-40 40h-272c-22.082031-.027344-39.972656-17.917969-40-40v-368c.027344-22.082031 17.917969-39.972656 40-40h184v88c.027344 22.082031 17.917969 39.972656 40 40h88v96h-152c-22.082031.027344-39.972656 17.917969-40 40v80c.027344 22.082031 17.917969 39.972656 40 40h152zm64-64c0 13.253906-10.746094 24-24 24h-192c-13.253906 0-24-10.746094-24-24v-80c0-13.253906 10.746094-24 24-24h192c13.253906 0 24 10.746094 24 24zm0 0"/><path d="m56 128h144c4.417969 0 8-3.582031 8-8s-3.582031-8-8-8h-144c-4.417969 0-8 3.582031-8 8s3.582031 8 8 8zm0 0"/><path d="m240 184c0-4.417969-3.582031-8-8-8h-176c-4.417969 0-8 3.582031-8 8s3.582031 8 8 8h176c4.417969 0 8-3.582031 8-8zm0 0"/></svg>