<?xml version="1.0" encoding="iso-8859-1"?>
<!-- Generator: Adobe Illustrator 19.0.0, SVG Export Plug-In . SVG Version: 6.00 Build 0)  -->
<svg version="1.1" id="Capa_1" xmlns="http://www.w3.org/2000/svg" xmlns:xlink="http://www.w3.org/1999/xlink" x="0px" y="0px"
	 viewBox="0 0 437.675 437.675" style="enable-background:new 0 0 437.675 437.675;" xml:space="preserve">
<g>
	<g>
		<path d="M429.665,160.019h-40v16h20.688l-68.688,68.688V62.419l65.736-14.6c4.314-0.952,7.04-5.222,6.087-9.536
			c-0.549-2.486-2.248-4.562-4.575-5.592l-72-32c-4.038-1.794-8.765,0.025-10.559,4.063c-0.457,1.028-0.691,2.14-0.689,3.265v76.152
			l-32,25.6l-35-28l-0.112,0.128c-1.366-1.167-3.092-1.831-4.888-1.88h-40c-1.381,0.035-2.728,0.435-3.904,1.16l-0.064-0.104l-56,32
			c-2.198,1.242-3.68,3.448-4,5.952l-8,64l15.872,1.984l7.504-60l39.056-22.312l-6.424,64.52c0,0.272,0.088,0.528,0.088,0.8h-0.128
			v78.304l-31.312,70.448c-1.794,4.038,0.025,8.765,4.063,10.559c1.023,0.454,2.13,0.689,3.249,0.689h16v-16h-3.688l27-60.752
			c0.454-1.023,0.688-2.129,0.688-3.248v-72h76.904l-20.496,61.472c-1.399,4.078,0.74,8.524,4.8,9.976l-93.208,93.24l-42.344-42.344
			c-3.124-3.123-8.188-3.123-11.312,0l-128,128l11.312,11.312l122.344-122.344l42.344,42.344c3.124,3.123,8.188,3.123,11.312,0
			l106.344-106.344l26.344,26.344c3.124,3.123,8.188,3.123,11.312,0l90.344-90.344v20.688h16v-40
			C437.665,163.601,434.084,160.019,429.665,160.019z M341.665,20.331l38.576,17.144l-38.576,8.568V20.331z M238.465,160.019h-23.92
			l6.4-64h23.92L238.465,160.019z M325.665,260.707l-26.344-26.344c-1.5-1.5-3.534-2.344-5.656-2.344h-4.904l20.496-61.472
			c1.396-4.192-0.87-8.722-5.062-10.118c-0.816-0.272-1.67-0.41-2.53-0.41h-47.2l5.656-56.56l28.504,22.808
			c2.923,2.34,7.077,2.34,10,0l27.04-21.6V260.707z"/>
	</g>
</g>
<g>
	<g>
		<path d="M261.665,8.019h-24c-17.673,0-32,14.327-32,32s14.327,32,32,32c17.673,0,32-14.327,32-32v-24
			C269.665,11.601,266.084,8.019,261.665,8.019z M253.665,40.019c0,8.837-7.163,16-16,16s-16-7.163-16-16s7.163-16,16-16h16V40.019z
			"/>
	</g>
</g>
<g>
</g>
<g>
</g>
<g>
</g>
<g>
</g>
<g>
</g>
<g>
</g>
<g>
</g>
<g>
</g>
<g>
</g>
<g>
</g>
<g>
</g>
<g>
</g>
<g>
</g>
<g>
</g>
<g>
</g>
</svg>
