<?xml version="1.0" encoding="UTF-8"?>
<!DOCTYPE svg PUBLIC "-//W3C//DTD SVG 1.1//EN" "http://www.w3.org/Graphics/SVG/1.1/DTD/svg11.dtd">
<!-- Creator: CorelDRAW X7 -->
<svg xmlns="http://www.w3.org/2000/svg" xml:space="preserve" width="181.125mm" height="100.249mm" version="1.1" style="shape-rendering:geometricPrecision; text-rendering:geometricPrecision; image-rendering:optimizeQuality; fill-rule:evenodd; clip-rule:evenodd"
viewBox="0 0 18151 10046"
 xmlns:xlink="http://www.w3.org/1999/xlink">
 <defs>
  <style type="text/css">
   <![CDATA[
    .fil0 {fill:#FEFEFE}
    .fil2 {fill:#ED3237}
    .fil1 {fill:#363563}
   ]]>
  </style>
 </defs>
 <g id="Layer_x0020_1">
  <metadata id="CorelCorpID_0Corel-Layer"/>
  <g id="_2166057668848">
   <path class="fil0" d="M2188 2408c76,-152 152,-304 228,-456 137,-57 275,-114 413,-171 109,128 219,256 328,384 0,-171 0,-342 0,-513 -57,-118 -114,-237 -171,-356 95,-86 190,-171 285,-257 152,43 304,86 456,129 -245,-776 -175,-990 699,-300 558,106 436,158 912,-142 535,-619 320,-873 1012,-642 33,114 67,228 100,342 5,86 9,171 14,257 1002,555 929,710 1853,-86 963,-107 -120,199 756,841 -642,963 -942,1146 -770,2324 -160,232 -134,187 200,100 1097,-1261 729,-1430 2356,-1583 568,388 943,67 603,905 121,393 168,310 -45,678 397,-321 315,-250 422,-754 409,-195 296,-172 618,181 -35,156 -71,312 -106,467 349,540 885,23 1296,-527 431,-411 316,-319 920,-211 20,-201 40,-402 60,-603 438,-613 635,-907 1205,-166 -119,372 -246,624 196,814 141,-176 282,-352 422,-527 827,-386 835,-285 1387,422 290,640 440,608 181,1235 -115,102 -217,359 -325,277l-654 -493 43 649 -295 392c491,186 519,72 646,556 84,322 -378,510 -214,1151 -420,348 -367,373 -904,286 -325,-487 -103,-319 -678,-301 -228,-683 -138,-807 45,-1462 -652,78 -649,-278 -980,302 141,196 282,392 422,587 55,151 111,302 166,453 -177,249 -307,528 -678,467 -83,-14 -1109,-1199 -678,-136 -687,319 -508,370 -1176,45 294,-986 327,-874 136,-1883 -450,35 -580,14 -630,153 -38,107 -13,281 -64,677 -1025,2236 -3473,1147 -2652,-951 -161,-65 -321,-131 -482,-196 -380,581 -349,755 -739,1055 11,236 21,472 31,708 -628,238 -1004,539 -1251,-316 -1615,621 -281,545 -2999,-136l-81 -116c-1162,1770 -3847,967 -4014,-883 -129,-1418 744,-2230 1742,-2408l-43 -63 476 -199z"/>
   <path class="fil1" d="M10599 4829c289,-68 620,65 796,201 486,374 584,1271 -66,1702 -597,397 -1379,3 -1530,-695 -67,-309 36,-606 180,-813 153,-220 363,-335 620,-395zm-8482 264c44,194 441,185 382,-93 -18,-86 -130,-165 -247,-140 -81,16 -161,121 -135,233zm8603 565c81,-31 167,48 198,96 55,85 9,183 -55,209 -194,81 -351,-226 -143,-305zm-776 262c71,467 413,852 941,836 788,-23 1053,-1048 492,-1550 -97,-88 -128,-119 -271,-177 -104,-43 -243,-85 -367,-77 -120,9 -258,48 -356,96 -283,139 -495,505 -439,872zm-7967 460c-17,-55 171,-592 212,-708 35,-96 52,-204 105,-226 26,178 8,457 23,658 6,74 59,276 -12,302 -50,18 -293,-8 -328,-26zm484 -938c74,30 159,252 267,396 47,63 85,126 134,195 36,49 122,157 126,217 -54,29 -204,88 -271,105 -93,23 -100,-100 -129,-245 -22,-110 -45,-219 -65,-324 -19,-99 -60,-246 -62,-344zm-1131 597c17,-41 147,-151 179,-180 75,-69 504,-500 558,-515l-298 606c-28,58 -111,272 -173,276 -51,2 -244,-147 -266,-187zm1272 -781c92,1 750,388 919,452 -2,48 -73,113 -117,166 -40,48 -86,119 -139,146 -80,-30 -216,-227 -261,-274l-167 -189c-53,-68 -230,-224 -235,-301zm-698 -65c-62,72 -385,261 -553,403 -50,42 -70,50 -114,83 -114,83 -137,153 -211,10 -140,-272 -103,-220 271,-328 107,-31 533,-175 607,-168zm825 -114c56,-31 638,-97 755,-113 130,-18 268,-75 251,114 -9,93 -54,258 -76,358 -65,9 -390,-132 -474,-165l-410 -153c-47,-22 -44,-39 -46,-41zm-509 -314c348,-85 478,439 173,518 -226,58 -454,-183 -332,-409 33,-63 87,-92 159,-109zm-317 209c-155,59 -545,98 -739,129 -250,40 -317,86 -316,-49 1,-88 11,-323 39,-390 73,-11 433,110 532,139 67,20 469,124 484,171zm-880 -619c-1,-51 12,-61 34,-92 149,-202 179,-341 291,-197 116,148 566,628 568,661 -29,-4 -70,-38 -97,-55 -117,-75 -691,-245 -796,-317zm1490 372c10,-79 126,-280 164,-356 333,-660 230,-699 535,-445 162,136 260,49 -268,478 -81,66 -362,311 -431,323zm-949 -948c66,-56 195,-139 322,-122 38,96 247,897 227,967 -64,-68 -84,-122 -140,-195 -55,-73 -93,-144 -141,-215 -40,-59 -269,-371 -268,-435zm715 709c0,-265 -70,-717 -66,-829 2,-71 27,-76 92,-73 401,17 386,40 275,283l-166 548c-43,140 -38,206 -113,235 -27,-64 -22,-91 -22,-164zm-134 -1007c-436,61 -732,175 -1020,510 -131,153 -209,280 -281,480 -392,1089 472,2137 1605,2042 439,-37 744,-225 999,-528 133,-158 224,-257 300,-463 151,-408 104,-881 -106,-1253 -72,-128 -228,-340 -340,-422 -162,-119 -281,-205 -482,-280 -188,-70 -458,-116 -675,-86zm14568 2513l-165 -512 298 184 -102 360 -31 -32zm-317 -1061l18 99c3,0 6,0 8,0l47 97 4 4 661 350 5 138c-141,466 -357,618 -337,714 7,33 59,127 72,154 39,82 128,230 101,332 -56,29 -163,20 -238,12 -113,-13 -131,-12 -155,-124 -13,-57 -30,-166 -49,-213 -30,-74 -122,-49 -190,-76 -48,-44 43,-177 11,-362 -12,-69 -54,-286 -96,-320 -77,52 -125,207 -109,322 15,104 90,284 85,373 -66,8 -300,56 -341,-18 -56,-102 87,-20 -24,-342 -61,-181 -26,-188 48,-323 50,-91 92,-185 150,-282 61,-102 163,-146 35,-272 -67,-65 -134,-181 -249,-164 -131,20 -66,65 -370,69 -139,2 -283,1 -421,-12 -109,-11 -305,-64 -393,-45 -80,99 -114,235 -138,386 -55,345 -113,284 132,535l126 138c64,73 200,216 200,351l-116 41c11,44 130,139 163,188 70,105 -25,221 -137,190 -108,-30 -540,-633 -667,-780 -264,-307 -36,-307 -89,-520 -48,4 -126,104 -166,142 -90,86 -56,113 -10,211 36,79 65,133 118,197 41,50 149,121 98,211 -63,110 -256,-5 -300,-88 -32,-60 -116,-250 -173,-291 -49,30 -51,106 -67,171 -17,69 -26,128 -39,198 -25,139 -65,289 -6,420 23,52 81,103 19,161 -39,37 -146,36 -198,17 -121,-46 -88,-302 -85,-410 12,-478 -74,-468 176,-791 64,-83 125,-202 155,-331 25,-109 73,-336 -21,-396 -63,47 -46,163 -50,256 -9,168 -23,390 -142,518 -33,36 -161,139 -219,90 -49,-70 -10,-126 7,-208 26,-125 33,-660 -21,-724 -42,-48 -997,-42 -1007,-36 -104,112 41,136 -174,242 -5,173 162,330 5,685 -38,86 -98,187 -141,277 -144,301 -196,542 -525,741 -193,116 -422,170 -689,149 -428,-34 -786,-353 -937,-747 -142,-372 -65,-849 202,-1144 42,-45 71,-61 76,-132 -65,-98 -296,-206 -425,-266 -89,-41 -441,-184 -535,-142 -64,28 -249,324 -274,419 -33,128 -18,154 -111,234 -67,58 -130,78 -202,150 -124,123 -199,257 -298,398 -204,290 -121,197 -170,527 -53,357 -458,331 -512,-12 -25,-156 39,-204 36,-310 -501,-37 -1461,516 -1673,509 -116,-4 -106,-155 -446,-296 -383,-158 -927,-265 -1357,-328 -229,-34 -112,191 -612,604 -170,141 -421,262 -646,327 -273,78 -614,66 -892,3 -1014,-228 -1721,-1309 -1439,-2347 113,-413 416,-918 747,-1187 80,-65 191,-129 311,-176 79,-31 345,-85 380,-105 98,-58 -3,-277 132,-353 158,-89 230,105 302,153 53,-36 221,-191 228,-247 18,-142 -67,-307 71,-410 125,-93 261,-29 339,76 112,148 70,318 120,378 140,38 414,-56 518,22 50,37 81,146 55,215 -23,64 -106,105 -124,154 155,39 278,268 344,251 4,-110 -249,-813 -300,-937 -62,-154 -149,-303 -195,-436 -61,-175 -31,-404 101,-472 111,-29 382,405 499,474 55,-44 68,-167 57,-258 -23,-188 -220,-648 -209,-777 12,-129 171,-48 206,-2 115,151 171,460 484,516 271,49 879,-111 1044,-246 63,-51 96,-107 160,-168 57,-56 147,-84 116,-199 -32,-121 -36,-156 25,-263 198,-348 564,13 428,243 -89,150 59,217 225,354 227,186 548,339 870,457 209,77 316,80 492,-52 333,-248 372,-384 493,-492 39,-34 199,-174 206,-32 5,95 -172,431 -144,512 82,63 287,43 334,132 42,81 -10,109 -51,154 -36,39 -61,89 -100,136 -36,45 -61,66 -106,117l-211 249c-58,72 -66,179 -81,278 -8,50 -16,43 -30,84 -23,71 -22,124 -36,200 -48,265 -101,553 -74,848 12,135 72,284 -26,379 -49,47 -73,80 -65,171 4,43 27,162 50,187 31,45 129,16 184,27 71,14 97,57 162,-14 109,-119 204,-236 364,-307 220,-96 194,-89 359,-309 258,-342 646,-757 946,-1065 44,-45 66,-80 155,-75 131,9 266,38 394,52 456,49 945,27 746,515 -21,54 -62,113 -73,153 -26,91 31,72 35,179 10,210 91,268 -6,361 -66,64 -194,138 -237,205 12,49 207,239 252,267 59,37 411,40 505,25 45,-92 37,-146 52,-261 23,-188 66,-363 117,-543 38,-136 54,-156 205,-136 63,87 46,121 24,245 -47,269 -135,507 136,656 176,97 607,76 832,67 112,-4 130,-46 188,-106 126,-129 200,-145 288,-317 125,-246 174,-434 457,-447 147,-7 116,-58 225,-81 158,-33 467,46 561,13 25,-47 -22,-363 -19,-460 6,-185 62,-249 107,-395 26,-81 0,-608 517,-300 11,79 -13,113 -4,210 12,123 -45,100 -47,183 -2,48 47,118 61,164 66,216 -55,424 123,544 38,26 102,50 129,96 47,77 -11,110 -6,177 167,-7 251,-113 328,-239 150,-244 316,-457 568,-589 89,-47 134,-52 245,-25 122,30 118,-26 181,-78 52,-7 84,0 132,-1 160,-6 152,-60 263,123l395 681c174,309 -10,291 -51,369 -21,184 20,202 -128,245 -122,-69 -279,-131 -371,-207 -117,-136 -296,-302 -413,-438 -165,443 -183,652 -150,1044 -27,12 -20,14 -29,26 5,5 14,10 24,14l-314 205 -74 121zm-10302 849c128,-35 314,-2 484,-55 200,-63 299,-166 353,-164 10,34 -1,348 -12,375 -30,79 -190,95 -279,126 -156,54 -505,229 -555,224 -2,-101 -6,-446 9,-506zm940 -269c97,-26 248,-14 347,-48 66,-22 230,-106 297,-98 10,74 -8,222 -18,301 -12,102 -33,155 -113,182 -77,26 -454,97 -513,86 -18,-52 -15,-365 0,-423zm-6515 -460c-59,-524 168,-1045 432,-1316 518,-531 1258,-680 1956,-388 187,77 266,132 413,245 37,28 89,67 120,101 314,351 520,657 584,1174 66,524 -180,1039 -447,1311 -55,56 -277,256 -355,302 -50,30 -92,42 -148,72 -617,332 -1482,150 -1975,-334 -281,-276 -519,-627 -580,-1167zm8635 -606c14,-94 126,-213 207,-228 69,-13 295,49 370,70 115,32 205,92 296,138 54,27 212,146 219,196 14,89 -124,225 -192,210 -36,-8 -320,-193 -419,-240 -213,-99 -385,-107 -481,-146zm1284 -798c58,25 144,188 184,248 82,125 180,238 268,375 86,134 -65,390 -134,428 -205,111 -105,-80 -82,-175 72,-302 -118,-173 -268,-578 -54,-145 -61,-199 32,-298zm802 60c27,46 26,9 27,70 -61,49 -334,278 -395,287 -43,-35 -237,-322 -296,-411 -85,-129 -80,-53 -101,-113 40,-31 60,-88 124,-68 63,20 225,313 265,375 251,11 237,-143 376,-140zm-882 -150c6,-192 240,-365 420,-426 138,-46 220,-59 293,64 192,327 168,316 69,402 -31,28 -72,64 -115,96 -253,189 -149,-348 -455,-328 -71,5 -105,24 -137,78 -34,58 -37,67 -75,114zm-961 561c16,-70 348,-466 416,-559l281 -363c166,-211 168,-252 387,-208 63,13 226,15 266,40 -53,35 -130,56 -191,91 -166,96 -316,304 -331,499 -12,159 49,548 122,711 50,112 42,87 -14,178 -70,-18 -153,-94 -206,-132 -253,-184 -434,-209 -730,-257zm705 -1327c52,-45 91,37 95,69 7,64 -33,83 -69,121l-342 446c-33,48 -58,78 -85,112 -29,37 -45,62 -79,105 -49,61 -119,158 -170,224l-678 886c-105,162 -63,222 -97,300 -37,83 -149,108 -213,177 -154,168 -314,349 -427,548 -125,220 -110,287 -118,482 -5,91 -77,201 -194,165 -83,-24 -146,-159 -124,-270 19,-98 77,-201 123,-273 54,-81 105,-141 164,-230 151,-229 401,-427 444,-725 25,-171 175,-323 310,-464 39,-40 67,-55 104,-94l679 -792c15,-17 25,-32 40,-52l637 -735zm-5755 2141c-10,-162 -50,-352 -111,-498 -24,-58 -83,-155 -88,-211 51,-66 152,-75 203,-150 62,-93 -115,-760 -140,-885 -38,-189 -88,-384 -146,-564 -29,-90 -134,-487 -200,-515 -98,-29 -168,60 -233,-26 -25,-33 -64,-140 -82,-194 -86,-259 -134,-208 -22,-392 44,15 224,223 267,278 141,179 151,291 450,-13 183,-187 145,-121 397,-141 73,-6 152,-18 225,-33 145,-30 267,-88 407,-138 276,-97 387,-303 580,-498 37,-38 131,-96 142,-135 21,-73 -39,-136 -47,-208 -16,-136 163,-306 243,-116 91,219 -166,217 9,400l539 538c640,517 1059,332 1221,396 67,26 222,234 220,296 -92,30 -165,-33 -219,58 -39,68 -74,355 -90,446l-182 1151c-52,372 221,84 250,563 7,115 -16,138 -56,208 -252,449 -124,621 -314,747 -101,67 -297,96 -429,101 -104,4 -179,-19 -252,32 -54,37 -94,73 -151,111 -173,117 -414,177 -631,109 -66,-20 -145,-59 -222,-30 -74,28 -144,141 -421,53 -181,-57 -220,-169 -305,-215 -171,-93 -355,35 -661,-143 -48,-28 -134,-61 -172,-92 -4,-85 28,-174 21,-290z"/>
   <g>
    <path class="fil2" d="M7650 2465c-21,174 -51,350 -87,509 -18,79 -28,178 -66,241 -100,169 -182,360 -445,461 -50,19 -181,61 -241,66 -77,5 -66,-15 -62,-94l18 -750c1,-730 -156,-626 531,-671 96,-6 203,-23 289,16 106,48 76,116 63,222zm-3374 -265c116,-91 90,-45 250,-36 734,38 654,-66 669,367 8,224 44,429 45,643l20 666c-200,-1 -390,13 -532,-119 -96,-89 -68,-31 -156,-171 -156,-247 -323,-1076 -296,-1350zm2145 65c37,120 13,1151 13,1369 1,330 65,359 -241,442 -187,50 -465,27 -589,-75 -90,-75 0,-145 5,-261 5,-101 -4,-228 -7,-330 -10,-298 -16,-717 -37,-1011 -12,-173 -33,-143 170,-142 169,1 549,-19 686,8zm-1289 -180c-9,3 -198,-13 -224,-30 -49,-31 3,-157 11,-209 25,-155 88,-129 335,-219 136,-48 258,-104 376,-172 153,-89 236,-195 341,-196 391,-2 309,134 726,363 424,234 412,161 422,410 4,119 -28,124 -149,124l-148 -15c-1,-102 59,-202 -13,-304 -153,-218 -406,-79 -450,71 -43,147 55,203 47,265l-817 -23c-4,-48 116,-95 74,-296 -43,-203 -333,-307 -487,-93 -85,118 -10,240 -44,324zm-356 -10c-145,52 -406,-56 -547,13 -90,80 -58,207 -35,332 20,109 35,232 53,351 57,395 164,935 537,1105 111,50 215,63 347,68 198,7 171,44 252,159 118,-5 69,-55 145,-27 110,41 58,112 417,93 586,-33 386,-73 565,-121 35,37 28,54 79,67 109,-128 39,-241 244,-275 267,-44 512,-169 661,-392 169,-254 163,-535 207,-726 33,-144 133,-487 14,-546 -102,-52 -418,-19 -463,-58 -44,-37 -37,-157 -47,-220 -19,-123 -18,-108 -114,-159 -141,-75 -702,-431 -787,-539 -51,-65 -58,-325 -252,-244 -85,35 -91,73 -129,147 -56,108 -521,361 -648,415 -114,48 -312,80 -383,143 -101,87 -83,268 -116,414z"/>
    <path class="fil2" d="M5341 5226c236,-50 82,-506 151,-705 49,2 214,150 385,4 153,-130 185,32 370,46 146,11 194,-93 269,-62 61,127 -58,689 33,825 179,-35 35,-742 158,-821 64,-32 307,78 408,92 153,21 346,-17 435,-96 9,-214 -290,-158 -528,-164 -222,-5 -458,-12 -683,-21 -550,-23 -1109,-16 -1655,-53 -91,-6 -221,-28 -270,69 -72,142 338,224 480,205 166,-22 182,-95 233,-114 80,-29 173,62 173,162 0,98 -9,223 -14,329 -6,146 -27,216 55,304z"/>
   </g>
   <path class="fil2" d="M319 7422c38,2 76,4 116,8 39,4 81,10 124,17 4,-1 9,-3 16,-5 52,-16 86,-24 101,-24 14,0 26,6 37,17 10,11 25,37 44,77 107,222 208,427 303,613 95,186 187,357 274,513 113,-227 247,-511 402,-853 53,-119 91,-202 114,-250l4 -9c29,-64 59,-96 90,-96 8,0 19,2 33,5 14,3 30,7 48,12 41,-7 81,-12 117,-17 37,-4 72,-6 104,-8l0 36c-68,2 -112,16 -133,41 -21,25 -32,98 -32,221 0,47 0,82 0,106 1,23 1,45 2,64l19 529c8,225 25,363 50,413 26,50 75,75 146,75l9 0 0 36c-44,-3 -90,-6 -138,-11 -47,-5 -96,-12 -146,-21 -50,9 -98,16 -144,21 -46,5 -91,8 -133,11l-1 -36c66,0 110,-16 133,-49 23,-32 34,-109 34,-230 0,-73 0,-126 0,-156 -1,-31 -1,-58 -2,-80l-10 -419c0,-10 -2,-52 -6,-125 -3,-74 -6,-138 -8,-194 -133,278 -253,533 -359,766 -107,234 -183,408 -230,523l-42 0c-99,-214 -201,-427 -307,-639 -106,-212 -216,-423 -328,-634 -14,205 -25,392 -31,563 -8,170 -11,295 -11,374 0,129 13,210 41,245 27,35 81,53 163,55l0 36c-37,-1 -77,-4 -119,-10 -43,-5 -89,-13 -140,-24 -40,8 -81,15 -124,20 -42,6 -86,10 -130,14l0 -36c60,-6 101,-17 125,-34 24,-17 42,-48 55,-93 7,-26 13,-58 19,-99 5,-41 11,-109 18,-206 14,-172 25,-315 31,-431 7,-115 10,-206 10,-274l0 -40c0,-122 -13,-197 -38,-224 -26,-27 -82,-43 -170,-48l0 -36zm2122 0c38,1 80,4 125,10 46,5 95,13 149,23 68,-11 149,-19 241,-25 93,-5 212,-8 356,-8 86,0 139,3 159,9 19,6 29,18 29,35 0,8 -2,16 -6,23 -4,8 -12,19 -26,33 6,37 9,68 12,94 2,26 3,49 3,69l0 62 -43 0c-8,-94 -33,-158 -75,-191 -42,-34 -133,-50 -273,-50l-239 0c-1,33 -2,67 -3,103 0,36 -1,84 -1,145l0 117 0 248 237 0c132,0 214,-9 246,-26 32,-17 51,-51 58,-102l41 0c-1,27 -5,54 -10,81 -6,28 -13,56 -21,84 8,32 14,62 19,91 4,29 6,57 6,84l-44 0c-4,-53 -21,-90 -51,-109 -31,-19 -106,-28 -226,-28l-36 0 -219 0 0 346c0,156 13,248 39,276 26,27 96,41 212,41 182,0 304,-20 365,-61 61,-41 103,-118 125,-233l43 0c-4,53 -11,101 -21,143 -11,43 -24,81 -41,116 6,14 11,26 13,35 2,10 4,18 4,25 0,24 -12,40 -34,49 -22,9 -68,14 -138,14 -13,0 -40,-1 -79,-1 -40,-1 -72,-1 -98,-1 -115,0 -215,-3 -298,-8 -83,-6 -156,-14 -219,-26 -47,9 -93,16 -140,22 -48,6 -95,9 -141,12l0 -36c81,-1 136,-23 164,-68 28,-45 42,-167 42,-366l0 -40c0,-2 0,-15 1,-37 1,-22 1,-42 1,-60l0 -307c0,-9 0,-29 -1,-60 -1,-31 -1,-59 -1,-81 0,-197 -14,-317 -42,-361 -28,-44 -82,-67 -164,-69l0 -36zm1314 -46l41 0 0 6c0,15 14,26 41,31 26,6 89,9 189,9l98 0 309 0 311 0 98 0c99,0 162,-3 189,-9 27,-5 40,-16 40,-31l0 -6 42 0c0,24 -1,48 -3,71 -2,23 -5,47 -10,71 14,45 25,86 32,124 7,38 11,75 12,110l-48 1c-23,-169 -167,-257 -433,-265 -4,0 -7,-1 -9,-1l-111 1c-3,79 -6,162 -8,249 -2,86 -2,184 -2,292l0 380c0,141 2,239 8,294 5,55 15,97 28,125 12,25 34,44 67,57 33,13 79,20 137,22l0 36c-49,-1 -102,-4 -158,-10 -56,-5 -116,-13 -182,-24 -69,11 -130,19 -186,24 -55,6 -107,9 -154,10l-1 -35c61,-3 108,-10 140,-23 32,-12 55,-31 67,-57 12,-28 21,-68 26,-123 5,-55 7,-152 7,-292l0 -77 0 -307c0,-152 0,-265 -2,-339 -2,-73 -5,-140 -9,-202l-108 -1c-189,0 -306,16 -352,50 -45,33 -76,105 -91,216l-49 -1c2,-38 7,-75 15,-114 7,-38 17,-78 29,-119 -3,-20 -6,-42 -7,-64 -2,-22 -3,-49 -3,-79zm2317 826c152,274 275,460 369,558 93,98 186,147 278,147l18 0 0 36c-33,3 -58,5 -75,6 -17,1 -34,2 -50,2 -73,0 -132,-6 -178,-18 -45,-12 -88,-32 -127,-60 -41,-28 -83,-71 -126,-127 -42,-56 -100,-149 -172,-277 -10,-17 -22,-40 -37,-68 -52,-96 -107,-145 -165,-145 -8,0 -25,0 -51,-1 -27,-1 -61,-3 -101,-5l-1 255c0,176 14,287 42,332 29,45 84,68 167,71l-1 35c-42,-3 -88,-6 -137,-11 -49,-5 -106,-13 -171,-23 -66,10 -123,18 -172,23 -48,5 -93,8 -134,11l0 -36c83,-3 138,-27 167,-72 28,-45 42,-156 42,-334l0 -165 0 -482c0,-171 -15,-279 -43,-324 -29,-46 -84,-70 -166,-72l0 -36c39,1 80,4 124,9 44,6 93,14 146,24 59,-13 114,-23 167,-29 54,-7 105,-10 155,-10 167,0 296,33 386,100 91,67 136,162 136,286 0,87 -25,164 -74,232 -49,67 -121,123 -216,168zm-418 -14c30,4 59,7 85,9 26,2 48,3 68,3 113,0 198,-28 256,-86 57,-57 86,-143 86,-256 0,-119 -33,-212 -98,-279 -66,-67 -157,-101 -274,-101 -22,0 -42,1 -61,3 -19,1 -38,3 -56,6 -2,54 -4,109 -5,165 -1,56 -1,112 -1,168l0 368zm1880 723c160,0 290,-66 388,-199 98,-133 147,-310 147,-531 0,-221 -49,-397 -147,-529 -98,-133 -228,-199 -388,-199 -161,0 -291,66 -388,198 -98,132 -146,309 -146,530 0,222 49,399 146,531 98,133 227,199 388,199zm775 -730c0,225 -74,413 -222,562 -148,150 -332,225 -553,225 -222,0 -406,-75 -553,-225 -148,-149 -221,-337 -221,-562 0,-225 73,-412 221,-560 147,-150 331,-224 553,-224 221,0 405,75 553,224 148,149 222,336 222,560zm686 49l20 -46c20,3 39,6 55,7 17,2 33,3 48,3 101,0 181,-31 239,-92 58,-61 87,-144 87,-250 0,-125 -36,-219 -106,-282 -71,-64 -176,-96 -315,-96 -17,0 -37,1 -58,3 -21,1 -45,4 -72,8 -1,30 -2,74 -3,133 -1,60 -1,127 -1,202l0 643c0,120 3,204 8,253 5,48 13,85 25,111 11,24 31,41 61,54 30,12 77,20 140,26l-1 36c-57,-3 -112,-6 -168,-12 -55,-6 -110,-13 -165,-22 -63,10 -120,17 -169,22 -50,6 -96,9 -140,12l0 -36c83,-2 139,-26 167,-71 28,-45 42,-157 42,-335l0 -165 0 -470c0,-179 -14,-291 -43,-336 -28,-46 -84,-70 -166,-72l0 -36c46,2 91,6 135,11 45,6 89,13 134,22 71,-14 137,-24 197,-30 61,-6 123,-9 185,-9 171,0 303,33 395,100 93,66 139,161 139,284 0,129 -49,235 -146,320 -97,84 -219,126 -367,126 -37,0 -66,-1 -90,-4 -24,-3 -46,-7 -67,-12zm1589 681c161,0 291,-66 389,-199 98,-133 147,-310 147,-531 0,-221 -49,-397 -147,-529 -98,-133 -228,-199 -389,-199 -161,0 -290,66 -387,198 -98,132 -147,309 -147,530 0,222 49,399 147,531 98,133 227,199 387,199zm776 -730c0,225 -74,413 -222,562 -148,150 -332,225 -554,225 -221,0 -405,-75 -552,-225 -148,-149 -221,-337 -221,-562 0,-225 73,-412 221,-560 147,-150 331,-224 552,-224 222,0 406,75 554,224 148,149 222,336 222,560zm171 -759c42,2 87,6 136,11 48,5 106,12 173,22 62,-9 119,-16 168,-22 50,-5 96,-9 138,-11l2 36c-83,2 -138,25 -166,69 -28,43 -42,148 -42,313l0 190 0 511c0,155 13,247 39,274 25,28 94,42 205,42 182,0 303,-20 364,-61 61,-41 102,-118 124,-233l44 0c-5,51 -12,98 -22,141 -11,42 -24,81 -40,118 0,0 0,1 1,3 11,27 17,47 17,57 0,24 -11,40 -34,49 -23,9 -70,14 -141,14 -14,0 -41,-1 -80,-1 -39,-1 -72,-1 -97,-1 -121,0 -221,-3 -299,-8 -79,-6 -148,-14 -209,-26 -46,9 -92,16 -140,22 -47,6 -94,9 -141,12l0 -36c82,-1 136,-23 165,-68 28,-45 42,-167 42,-366l0 -39c0,-3 0,-15 1,-38 0,-21 1,-42 1,-60l0 -306c0,-9 -1,-29 -1,-60 -1,-32 -1,-59 -1,-82 0,-196 -14,-316 -42,-360 -28,-44 -83,-67 -165,-69l0 -37zm1293 0c43,2 90,6 140,11 51,6 107,13 168,22 66,-10 123,-17 172,-22 49,-5 94,-9 135,-11l0 36c-81,2 -136,25 -164,68 -28,44 -42,149 -42,316l0 189 0 480c0,172 14,280 42,325 28,45 83,68 164,71l0 36c-41,-3 -87,-6 -136,-11 -49,-5 -106,-13 -171,-23 -66,10 -125,18 -174,23 -48,5 -93,8 -134,11l-1 -36c82,-3 138,-27 166,-72 29,-45 43,-153 43,-324l0 -177 0 -480c0,-171 -14,-280 -43,-324 -28,-46 -84,-70 -166,-72l1 -36zm767 -46l42 0 0 6c0,15 13,26 40,31 27,6 90,9 189,9l98 0 309 0 311 0 98 0c100,0 163,-3 190,-9 27,-5 40,-16 40,-31l0 -6 42 0c0,24 -2,48 -4,71 -2,23 -5,47 -10,71 15,45 25,86 32,124 8,38 11,75 12,110l-48 1c-23,-169 -167,-257 -432,-265 -4,0 -8,-1 -10,-1l-111 1c-3,79 -6,162 -8,249 -1,86 -2,184 -2,292l0 380c0,141 3,239 8,294 6,55 15,97 28,125 12,25 35,44 68,57 33,13 78,20 136,22l0 36c-49,-1 -102,-4 -157,-10 -56,-5 -117,-13 -183,-24 -68,11 -130,19 -185,24 -56,6 -107,9 -155,10l-1 -35c61,-3 108,-10 140,-23 33,-12 55,-31 67,-57 12,-28 21,-68 26,-123 5,-55 8,-152 8,-292l0 -77 0 -307c0,-152 -1,-265 -3,-339 -1,-73 -4,-140 -8,-202l-108 -1c-190,0 -307,16 -353,50 -45,33 -75,105 -90,216l-49 -1c2,-38 7,-75 14,-114 7,-38 17,-78 30,-119 -4,-20 -6,-42 -8,-64 -2,-22 -3,-49 -3,-79zm1948 289c-39,94 -79,191 -118,292 -40,101 -80,204 -119,311 53,1 103,2 151,3 47,0 91,0 130,0 50,0 87,0 113,0 27,-1 52,-2 75,-3 -37,-101 -75,-201 -113,-302 -39,-101 -78,-202 -119,-301zm30 -268l67 0 295 757c99,250 166,418 203,504 36,86 64,142 81,167 16,24 39,43 69,56 29,13 66,22 110,26l0 36c-40,-3 -84,-6 -131,-11 -48,-5 -104,-13 -169,-23 -58,10 -113,18 -163,24 -50,6 -97,9 -140,10l0 -37c53,-2 92,-10 118,-24 26,-15 40,-36 40,-64 0,-20 -9,-60 -26,-119 -17,-60 -41,-133 -73,-220l-52 -143c-38,-1 -86,-2 -144,-3 -58,-1 -94,-2 -108,-2 -27,0 -83,1 -169,3 -43,0 -76,1 -101,2l-39 99c-39,103 -68,185 -87,247 -18,62 -27,106 -27,131 0,32 11,54 34,69 22,14 61,22 115,24l0 37c-35,-3 -73,-6 -114,-11 -41,-5 -89,-13 -145,-23 -58,10 -108,18 -150,23 -42,5 -80,8 -114,11l0 -37c44,-2 81,-9 111,-21 30,-12 56,-30 78,-54 36,-38 127,-233 275,-584l40 -97 316 -753zm798 25c39,2 78,4 117,8 39,4 78,10 117,18 25,-10 46,-15 60,-19 15,-3 27,-5 35,-5 31,0 165,141 403,423 237,281 466,539 686,773l0 -368c0,-278 -3,-462 -10,-550 -7,-89 -19,-147 -36,-174 -13,-20 -31,-35 -54,-46 -24,-11 -57,-19 -100,-24l1 -36c33,2 68,6 107,11 39,5 85,12 138,22 54,-9 99,-16 134,-21 35,-5 67,-9 96,-12l0 36c-50,6 -85,16 -104,30 -20,14 -35,41 -45,79 -12,52 -22,149 -30,290 -7,142 -11,309 -11,502l0 516c0,2 0,13 2,32 2,20 3,40 4,61l-71 -12c-277,-328 -498,-587 -665,-775 -167,-189 -318,-354 -455,-496l0 452c0,192 3,340 8,444 5,104 13,176 24,216 10,33 30,59 61,77 32,19 73,30 126,33l0 36c-38,-1 -78,-4 -122,-10 -43,-5 -90,-13 -141,-24 -56,10 -103,18 -140,23 -38,5 -72,8 -104,11l0 -35c79,-1 132,-32 160,-92 27,-59 41,-216 41,-470l0 -104 0 -400c0,-169 -16,-275 -49,-318 -32,-43 -93,-65 -183,-66l0 -36z"/>
   <path class="fil1" d="M653 9517l12 3c-1,7 -2,13 -5,20 -2,6 -5,13 -9,19 2,15 4,28 5,39 1,12 1,22 1,31l-16 0c-4,-32 -16,-56 -37,-74 -20,-17 -47,-26 -80,-26 -29,0 -53,9 -72,26 -18,17 -28,39 -28,65 0,25 9,47 25,65 17,17 51,38 102,61 55,26 92,49 111,71 19,22 28,49 28,81 0,44 -16,80 -49,107 -33,27 -77,41 -131,41 -25,0 -52,-5 -81,-14 -29,-9 -45,-14 -49,-14 -4,0 -8,1 -11,3 -3,3 -5,5 -7,9l-13 -3c2,-8 4,-16 7,-23 3,-8 6,-15 10,-22 -2,-15 -4,-28 -5,-39 -2,-12 -2,-23 -2,-34l15 0c6,37 22,67 47,87 25,21 56,32 95,32 33,0 60,-9 81,-27 21,-19 32,-42 32,-70 0,-28 -8,-51 -23,-69 -15,-18 -52,-40 -112,-67 -49,-22 -82,-44 -101,-66 -19,-21 -28,-47 -28,-78 0,-41 15,-75 46,-101 30,-26 69,-40 117,-40 23,0 47,3 72,8 24,5 37,7 39,7 4,0 7,0 9,-1 2,-2 3,-4 5,-7zm579 9l12 5c-3,10 -5,19 -8,27 -3,7 -6,14 -10,21 1,11 2,21 2,29 0,8 1,14 1,19 0,3 -1,9 -1,18 0,9 -1,16 -1,22l-14 0c-3,-47 -17,-81 -42,-104 -25,-23 -62,-35 -110,-35 -67,0 -119,22 -157,65 -38,43 -56,103 -56,180 0,78 19,139 59,185 40,45 94,68 162,68 47,0 84,-10 110,-29 26,-19 41,-46 45,-83l16 0c-1,10 -2,21 -4,32 -2,11 -5,23 -8,35 1,5 2,9 2,13 1,5 1,10 2,15 -22,12 -48,21 -77,28 -29,6 -61,9 -95,9 -91,0 -162,-23 -215,-70 -52,-48 -79,-111 -79,-192 0,-82 27,-148 81,-198 54,-50 125,-75 214,-75 33,0 68,4 103,12 35,8 54,12 55,12 3,0 6,-1 8,-2 2,-2 3,-4 5,-7zm64 -8c15,1 31,2 48,4 16,2 36,4 58,8 23,-4 42,-6 59,-8 16,-2 31,-3 46,-4l0 12c-28,1 -47,9 -56,24 -10,15 -15,51 -15,107l0 65 1 30c20,1 40,1 61,1 21,0 47,0 78,0 37,0 66,0 88,0 22,0 44,0 64,-1l1 -86c0,-61 -5,-99 -15,-115 -10,-15 -29,-23 -57,-24l0 -13c15,1 30,2 47,4 17,2 37,4 59,8 21,-3 40,-6 57,-8 17,-2 33,-3 47,-4l0 13c-28,1 -46,8 -56,24 -10,15 -14,51 -14,110l0 61 0 165c0,58 4,95 14,111 10,15 28,23 56,24l0 12c-14,-1 -29,-2 -46,-4 -16,-2 -36,-4 -58,-8 -22,4 -42,6 -59,8 -17,2 -32,3 -47,4l0 -12c28,-1 47,-9 57,-25 10,-15 15,-54 15,-115l0 -56 0 -49c-21,-1 -50,-1 -86,-1 -36,-1 -58,-1 -68,-1 -8,0 -28,0 -60,1 -33,0 -59,0 -79,1l0 110c0,58 5,95 15,111 10,15 28,23 56,24l0 12c-15,-1 -30,-2 -46,-4 -17,-2 -36,-4 -59,-8 -22,4 -42,6 -59,8 -17,2 -32,3 -47,4l0 -12c29,-1 48,-9 57,-25 10,-15 15,-53 15,-114l0 -57 0 -160c0,-62 -5,-100 -15,-115 -9,-15 -28,-23 -57,-24l0 -13zm895 509c55,0 99,-23 133,-68 33,-45 50,-106 50,-181 0,-76 -17,-136 -50,-181 -34,-45 -78,-68 -133,-68 -55,0 -99,23 -133,68 -33,45 -50,105 -50,181 0,75 17,136 50,181 34,45 78,68 133,68zm265 -249c0,77 -25,141 -76,192 -51,51 -114,76 -189,76 -76,0 -139,-25 -189,-76 -50,-51 -76,-115 -76,-192 0,-77 26,-141 76,-192 50,-51 113,-76 189,-76 75,0 138,25 189,76 51,51 76,115 76,192zm328 249c55,0 100,-23 133,-68 34,-45 51,-106 51,-181 0,-76 -17,-136 -51,-181 -33,-45 -78,-68 -133,-68 -55,0 -99,23 -132,68 -33,45 -50,105 -50,181 0,75 17,136 50,181 34,45 78,68 132,68zm265 -249c0,77 -25,141 -75,192 -51,51 -114,76 -190,76 -75,0 -138,-25 -188,-76 -51,-51 -76,-115 -76,-192 0,-77 25,-141 76,-192 50,-51 113,-76 188,-76 76,0 139,25 190,76 50,51 75,115 75,192zm59 -260c14,1 29,2 46,4 17,2 37,4 59,8 22,-3 41,-6 58,-8 17,-2 33,-3 47,-4l0 12c-28,1 -47,9 -56,24 -10,15 -14,51 -14,107l0 65 0 175c0,53 4,84 13,93 9,10 32,15 70,15 62,0 104,-7 124,-21 21,-14 35,-41 43,-80l15 0c-2,18 -4,34 -8,48 -4,15 -8,28 -14,40 0,1 1,1 1,2 4,9 6,16 6,19 0,8 -4,14 -12,17 -8,3 -24,5 -48,5 -5,0 -14,-1 -27,-1 -14,0 -25,0 -34,0 -41,0 -75,-1 -102,-3 -27,-2 -50,-5 -71,-9 -16,3 -32,6 -48,8 -16,2 -32,3 -48,4l0 -12c28,-1 46,-8 56,-24 10,-15 14,-57 14,-125l0 -13c0,-1 1,-5 1,-13 0,-7 0,-14 0,-20l0 -105c0,-3 0,-10 0,-21 0,-10 -1,-20 -1,-27 0,-67 -4,-108 -14,-124 -9,-15 -28,-22 -56,-23l0 -13zm917 509c55,0 100,-23 133,-68 34,-45 51,-106 51,-181 0,-76 -17,-136 -51,-181 -33,-45 -78,-68 -133,-68 -55,0 -99,23 -132,68 -33,45 -50,105 -50,181 0,75 17,136 50,181 34,45 78,68 132,68zm266 -249c0,77 -26,141 -76,192 -51,51 -114,76 -190,76 -75,0 -138,-25 -188,-76 -51,-51 -76,-115 -76,-192 0,-77 25,-141 76,-192 50,-51 113,-76 188,-76 76,0 139,25 190,76 50,51 76,115 76,192zm58 -260c13,1 28,2 43,4 15,2 32,4 51,8 24,-4 51,-7 83,-9 32,-2 70,-3 114,-3l21 0c24,0 38,1 44,3 6,3 9,6 9,12 0,3 0,6 -1,8 -2,3 -5,7 -9,11 2,13 3,24 4,32 0,9 1,17 1,24 0,2 0,5 -1,10 0,5 0,9 0,11l-14 0c-3,-32 -11,-54 -26,-65 -14,-11 -45,-17 -93,-17l-85 0c0,11 -1,23 -1,35 0,12 0,29 0,50l0 40 0 89 80 0c46,0 74,-3 85,-9 10,-6 17,-17 19,-35l14 0c0,9 -1,18 -3,28 -2,9 -4,19 -7,28 3,13 5,25 6,34 2,10 2,18 2,26l-15 0c-1,-18 -7,-30 -17,-37 -11,-7 -36,-10 -77,-10l-13 0 -74 0 0 55 0 42c0,64 5,104 14,119 10,16 30,24 58,24l5 0 0 12c-15,0 -32,-2 -50,-3 -18,-2 -39,-5 -62,-9 -21,4 -41,6 -58,8 -17,2 -33,3 -47,4l0 -12c28,-1 47,-8 56,-24 10,-15 15,-57 15,-125l0 -13c0,-1 0,-5 0,-13 0,-7 0,-14 0,-20l0 -105c0,-3 0,-10 0,-21 0,-10 0,-20 0,-28 0,-67 -5,-108 -15,-123 -9,-15 -28,-23 -56,-24l0 -12zm769 320c0,47 1,82 2,106 2,24 4,40 6,46 5,11 13,19 25,24 12,5 29,7 49,7 38,0 68,-10 89,-31 22,-20 32,-49 32,-86 0,-44 -13,-76 -40,-98 -27,-22 -66,-33 -119,-33 -5,0 -11,0 -19,0 -7,1 -15,1 -25,2l0 63zm129 -81l0 5c48,5 86,20 113,43 27,23 40,54 40,91 0,45 -18,81 -52,106 -35,26 -83,39 -144,39 -18,0 -37,-2 -57,-4 -20,-2 -41,-6 -64,-11 -23,4 -43,6 -59,8 -17,2 -32,3 -45,4l0 -12c28,-1 47,-9 57,-25 9,-15 14,-53 14,-114l0 -57 0 -160c0,-61 -5,-99 -15,-115 -9,-15 -28,-24 -56,-25l0 -12c14,1 29,2 45,4 16,2 34,5 53,8 24,-5 46,-9 65,-11 19,-2 36,-4 51,-4 53,0 94,11 123,32 29,21 44,50 44,88 0,31 -10,57 -30,79 -21,22 -48,36 -83,43zm-128 -4c10,0 19,1 26,1 8,1 14,1 20,1 42,0 74,-9 95,-27 20,-18 31,-46 31,-83 0,-36 -11,-64 -31,-83 -21,-18 -51,-28 -90,-28 -10,0 -18,0 -26,2 -8,1 -16,2 -23,4 -1,16 -1,33 -2,51 0,18 -1,37 -1,58l1 104zm335 -235c14,1 29,2 46,4 16,2 35,4 58,8 27,-4 48,-7 62,-8 14,-2 27,-3 39,-4l0 12c-16,2 -28,5 -37,10 -9,5 -15,11 -18,19 -4,11 -8,30 -10,59 -2,28 -2,65 -2,113 0,58 2,102 6,134 5,32 12,57 22,74 13,24 31,42 54,54 23,12 50,18 81,18 62,0 106,-20 132,-58 26,-39 39,-106 39,-201l0 -83c0,-59 -4,-96 -14,-112 -10,-16 -29,-25 -58,-27l0 -12c15,1 29,2 44,4 14,2 28,5 43,8 15,-4 29,-6 43,-8 14,-2 27,-3 39,-4l0 12c-26,2 -44,9 -52,24 -9,14 -13,52 -13,115l0 28 0 62c0,100 -18,173 -53,219 -35,45 -90,68 -165,68 -45,0 -82,-7 -113,-20 -31,-14 -54,-34 -71,-61 -11,-19 -19,-43 -25,-70 -5,-27 -7,-65 -7,-113l0 -119c0,-58 -5,-95 -14,-109 -10,-14 -28,-22 -56,-24l0 -12zm936 -1l13 3c-2,7 -3,13 -6,20 -2,6 -5,13 -9,19 2,15 4,28 5,39 1,12 2,22 2,31l-17 0c-4,-32 -16,-56 -37,-74 -20,-17 -47,-26 -80,-26 -29,0 -53,9 -72,26 -18,17 -27,39 -27,65 0,25 8,47 24,65 17,17 51,38 102,61 55,26 92,49 111,71 19,22 28,49 28,81 0,44 -16,80 -49,107 -33,27 -76,41 -131,41 -25,0 -52,-5 -81,-14 -29,-9 -45,-14 -49,-14 -4,0 -8,1 -11,3 -3,3 -5,5 -6,9l-14 -3c2,-8 4,-16 7,-23 3,-8 6,-15 10,-22 -2,-15 -4,-28 -5,-39 -1,-12 -2,-23 -2,-34l15 0c7,37 22,67 47,87 25,21 57,32 95,32 33,0 60,-9 81,-27 22,-19 32,-42 32,-70 0,-28 -7,-51 -23,-69 -15,-18 -52,-40 -111,-67 -49,-22 -83,-44 -102,-66 -18,-21 -28,-47 -28,-78 0,-41 16,-75 46,-101 30,-26 69,-40 117,-40 24,0 48,3 72,8 24,5 38,7 39,7 4,0 7,0 9,-1 2,-2 3,-4 5,-7zm113 1c14,1 30,2 48,4 17,2 36,5 57,8 23,-4 42,-6 59,-8 16,-2 32,-3 46,-4l0 12c-28,1 -47,9 -56,24 -10,15 -15,51 -15,108l0 64 0 164c0,59 5,96 15,111 9,16 28,24 56,25l0 12c-14,-1 -30,-2 -47,-4 -16,-2 -36,-4 -58,-8 -23,4 -42,6 -59,8 -17,2 -32,3 -46,4l-1 -12c29,-1 48,-9 57,-25 10,-15 15,-52 15,-111l0 -60 0 -164c0,-59 -5,-96 -15,-111 -9,-15 -28,-24 -57,-25l1 -12zm261 0c13,1 26,2 39,3 14,1 27,3 40,6 9,-3 16,-5 21,-6 5,-1 9,-2 12,-2 10,0 56,48 137,144 82,97 160,185 235,265l0 -126c0,-95 -1,-158 -3,-188 -3,-30 -7,-50 -13,-60 -4,-6 -10,-11 -18,-15 -8,-4 -19,-7 -34,-9l0 -12c11,1 23,2 37,4 13,2 29,4 47,8 18,-3 34,-6 46,-8 11,-1 22,-3 32,-4l0 12c-17,3 -29,6 -35,11 -7,5 -12,14 -15,27 -5,18 -8,51 -11,99 -2,48 -4,106 -4,171l0 177c0,0 0,4 1,11 1,7 1,13 1,20l-24 -3c-94,-113 -170,-201 -227,-266 -57,-64 -109,-120 -155,-169l0 155c0,65 0,116 2,151 2,36 5,60 9,74 3,11 10,20 20,27 11,6 25,10 43,11l0 12c-13,0 -26,-2 -41,-3 -15,-2 -31,-5 -48,-9 -20,4 -36,6 -49,8 -12,2 -24,3 -35,4l0 -12c27,0 45,-11 55,-31 9,-21 14,-74 14,-161l0 -36 0 -136c0,-58 -6,-94 -17,-109 -11,-14 -32,-22 -62,-23l0 -12zm624 0c13,1 27,2 43,4 15,2 32,4 51,8 23,-4 50,-7 82,-9 32,-2 72,-3 122,-3 29,0 47,1 54,3 6,3 10,6 10,12 0,3 -1,6 -2,8 -2,3 -4,7 -9,11 2,13 3,24 4,33 1,8 1,16 1,23l0 21 -15 0c-2,-32 -11,-54 -25,-65 -15,-11 -46,-17 -94,-17l-81 0c-1,11 -1,23 -1,35 0,12 0,29 0,50l0 40 0 84 80 0c46,0 74,-3 84,-9 11,-5 18,-17 20,-34l14 0c0,9 -1,18 -3,28 -2,9 -5,18 -7,28 2,11 5,21 6,31 1,10 2,20 2,29l-15 0c-1,-18 -7,-31 -17,-37 -11,-7 -36,-10 -77,-10l-13 0 -74 0 0 118c0,54 4,85 13,94 9,10 33,15 72,15 62,0 104,-7 125,-21 21,-14 35,-41 42,-80l15 0c-1,18 -3,35 -7,49 -4,15 -8,28 -14,39 2,5 4,10 4,13 1,3 2,6 2,8 0,8 -4,14 -12,17 -7,3 -23,5 -47,5 -4,0 -13,-1 -27,-1 -13,0 -24,0 -33,0 -40,0 -74,-1 -102,-3 -29,-2 -54,-5 -75,-9 -16,3 -32,6 -48,8 -16,2 -32,3 -48,4l0 -12c28,-1 46,-8 56,-24 10,-15 14,-57 14,-125l0 -13c0,-1 1,-5 1,-13 0,-7 0,-14 0,-21l0 -104c0,-3 0,-10 0,-21 0,-10 -1,-20 -1,-28 0,-67 -4,-108 -14,-123 -9,-15 -28,-23 -56,-24l0 -12zm782 -1l13 3c-1,7 -3,13 -6,20 -2,6 -5,13 -9,19 2,15 4,28 5,39 1,12 2,22 2,31l-17 0c-4,-32 -16,-56 -37,-74 -20,-17 -47,-26 -80,-26 -29,0 -53,9 -72,26 -18,17 -27,39 -27,65 0,25 8,47 24,65 17,17 51,38 102,61 55,26 92,49 111,71 19,22 28,49 28,81 0,44 -16,80 -49,107 -33,27 -76,41 -131,41 -25,0 -52,-5 -81,-14 -29,-9 -45,-14 -49,-14 -4,0 -8,1 -11,3 -3,3 -5,5 -6,9l-14 -3c2,-8 4,-16 7,-23 3,-8 6,-15 10,-22 -2,-15 -4,-28 -5,-39 -1,-12 -2,-23 -2,-34l15 0c7,37 22,67 47,87 25,21 57,32 95,32 33,0 60,-9 81,-27 22,-19 32,-42 32,-70 0,-28 -7,-51 -23,-69 -15,-18 -52,-40 -111,-67 -49,-22 -83,-44 -102,-66 -18,-21 -28,-47 -28,-78 0,-41 16,-75 46,-101 30,-26 69,-40 117,-40 24,0 48,3 72,8 25,5 38,7 39,7 4,0 7,0 9,-1 2,-2 3,-4 5,-7zm434 0l13 3c-1,7 -3,13 -5,20 -2,6 -5,13 -9,19 2,15 4,28 5,39 1,12 1,22 1,31l-16 0c-4,-32 -17,-56 -37,-74 -21,-17 -48,-26 -81,-26 -29,0 -53,9 -71,26 -19,17 -28,39 -28,65 0,25 8,47 25,65 17,17 50,38 101,61 56,26 93,49 112,71 19,22 28,49 28,81 0,44 -16,80 -49,107 -33,27 -77,41 -131,41 -25,0 -52,-5 -81,-14 -29,-9 -46,-14 -49,-14 -5,0 -8,1 -11,3 -3,3 -6,5 -7,9l-13 -3c1,-8 4,-16 7,-23 2,-8 6,-15 10,-22 -3,-15 -4,-28 -6,-39 -1,-12 -1,-23 -1,-34l15 0c6,37 22,67 47,87 25,21 56,32 95,32 33,0 60,-9 81,-27 21,-19 32,-42 32,-70 0,-28 -8,-51 -23,-69 -15,-18 -53,-40 -112,-67 -49,-22 -83,-44 -101,-66 -19,-21 -28,-47 -28,-78 0,-41 15,-75 45,-101 30,-26 70,-40 118,-40 23,0 47,3 72,8 24,5 37,7 39,7 4,0 7,0 8,-1 2,-2 4,-4 5,-7z"/>
   <path class="fil1" d="M9140 9601c-13,32 -27,66 -40,100 -14,35 -27,70 -41,106 18,1 36,1 52,1 16,0 31,0 44,0 17,0 30,0 39,0 9,0 18,0 26,-1 -13,-34 -26,-68 -39,-103 -13,-34 -27,-69 -41,-103zm11 -91l22 0 101 258c34,86 57,143 70,173 12,29 22,48 27,57 6,8 14,14 24,19 10,4 22,7 38,9l0 12c-14,-1 -29,-2 -45,-4 -16,-2 -36,-4 -58,-8 -20,4 -39,7 -56,9 -17,1 -33,3 -48,3l0 -13c18,0 32,-3 41,-8 9,-5 13,-12 13,-22 0,-7 -3,-20 -8,-41 -6,-20 -14,-45 -25,-75l-18 -49c-13,0 -29,0 -49,0 -20,-1 -32,-1 -37,-1 -9,0 -29,0 -58,1 -15,0 -26,0 -34,0l-14 34c-13,35 -23,63 -29,85 -7,21 -10,36 -10,44 0,11 4,19 12,24 8,5 21,8 39,8l0 13c-12,-1 -25,-2 -39,-4 -14,-2 -30,-4 -49,-8 -20,4 -37,6 -52,8 -14,2 -27,3 -39,4l0 -13c16,0 28,-3 38,-7 11,-4 20,-10 27,-18 12,-13 44,-80 94,-200l14 -33 108 -257zm272 8c14,1 27,2 40,3 14,1 27,3 40,6 9,-3 16,-5 21,-6 5,-1 9,-2 12,-2 10,0 56,48 137,144 82,97 160,185 235,265l0 -126c0,-95 -1,-158 -4,-188 -2,-30 -6,-50 -12,-60 -4,-6 -11,-11 -18,-15 -8,-4 -20,-7 -35,-9l1 -12c11,1 23,2 37,4 13,2 29,4 47,8 18,-3 33,-6 45,-8 12,-1 23,-3 33,-4l0 12c-17,3 -29,6 -36,11 -6,5 -11,14 -15,27 -4,18 -7,51 -10,99 -3,48 -4,106 -4,171l0 177c0,0 0,4 1,11 1,7 1,13 1,20l-24 -3c-95,-113 -170,-201 -227,-266 -57,-64 -109,-120 -156,-169l0 155c0,65 1,116 3,151 2,36 4,60 8,74 4,11 11,20 21,27 11,6 25,10 43,11l0 12c-13,0 -27,-2 -41,-3 -15,-2 -31,-5 -49,-9 -19,4 -35,6 -48,8 -13,2 -24,3 -35,4l0 -12c27,0 45,-11 54,-31 10,-21 14,-74 14,-161l0 -36 0 -136c0,-58 -5,-94 -16,-109 -11,-14 -32,-22 -63,-23l0 -12zm729 508c-22,4 -41,6 -58,8 -17,2 -32,3 -46,4l0 -12c28,-1 47,-9 57,-25 9,-15 14,-53 14,-114l0 -57 0 -161c0,-61 -5,-99 -14,-114 -10,-16 -29,-24 -57,-25l0 -12c14,1 30,2 46,4 17,2 36,4 58,8 22,-5 43,-8 65,-10 22,-3 44,-4 65,-4 100,0 177,23 232,70 56,47 83,112 83,197 0,79 -27,142 -81,189 -54,47 -126,71 -217,71 -36,0 -85,-6 -146,-16 0,0 0,-1 -1,-1zm35 -196c0,45 1,81 2,109 1,28 2,45 4,51 3,11 13,19 30,25 17,6 39,9 67,9 73,0 129,-21 168,-61 40,-40 59,-98 59,-172 0,-83 -21,-146 -64,-190 -43,-44 -104,-66 -185,-66 -13,0 -26,0 -39,2 -14,1 -26,3 -37,6 -2,21 -3,44 -4,69 0,25 -1,63 -1,114l0 104zm694 -312c12,1 25,2 39,3 14,1 28,3 42,6 2,-1 4,-1 6,-2 18,-5 29,-8 34,-8 5,0 9,2 13,6 4,4 9,12 15,26 37,76 71,146 104,209 32,64 64,122 93,176 39,-78 85,-175 138,-292 18,-40 31,-69 39,-85l1 -3c10,-22 20,-33 31,-33 2,0 6,1 11,2 5,1 10,2 16,4 15,-2 28,-4 40,-6 13,-1 25,-2 36,-3l0 12c-23,1 -38,6 -46,15 -7,8 -10,33 -10,75 0,16 0,28 0,36 0,8 0,16 0,22l7 181c2,77 8,124 17,141 9,17 25,26 50,26l3 0 0 12c-15,-1 -31,-2 -47,-4 -16,-2 -33,-4 -50,-7 -17,3 -34,5 -49,7 -16,2 -31,3 -46,4l0 -12c22,0 37,-6 45,-17 8,-11 12,-37 12,-79 0,-25 0,-43 0,-53 0,-11 0,-20 -1,-27l-3 -143c0,-4 -1,-18 -2,-43 -1,-25 -2,-47 -3,-66 -46,94 -87,182 -123,261 -36,80 -62,140 -78,179l-15 0c-33,-73 -68,-146 -105,-218 -36,-73 -73,-145 -112,-217 -4,70 -8,134 -10,192 -3,58 -4,101 -4,128 0,44 5,72 14,84 9,12 28,18 56,19l0 12c-13,0 -27,-2 -41,-3 -15,-2 -31,-5 -48,-9 -13,3 -27,6 -42,7 -15,2 -29,4 -45,5l0 -12c21,-2 35,-6 43,-12 8,-6 15,-16 19,-32 2,-8 4,-20 6,-34 2,-14 4,-37 7,-70 4,-59 8,-108 10,-147 3,-39 4,-71 4,-94l0 -13c0,-42 -5,-68 -13,-77 -9,-9 -28,-15 -58,-17l0 -12zm942 83c-14,32 -27,66 -41,100 -14,35 -27,70 -41,106 19,1 36,1 52,1 16,0 31,0 45,0 17,0 29,0 38,0 9,0 18,0 26,-1 -13,-34 -26,-68 -39,-103 -13,-34 -26,-69 -40,-103zm10 -91l23 0 101 258c33,86 56,143 69,173 12,29 22,48 28,57 5,8 13,14 23,19 10,4 23,7 38,9l0 12c-14,-1 -29,-2 -45,-4 -16,-2 -36,-4 -58,-8 -20,4 -38,7 -55,9 -18,1 -34,3 -48,3l0 -13c18,0 31,-3 40,-8 9,-5 14,-12 14,-22 0,-7 -3,-20 -9,-41 -6,-20 -14,-45 -25,-75l-18 -49c-13,0 -29,0 -49,0 -20,-1 -32,-1 -37,-1 -9,0 -29,0 -58,1 -14,0 -26,0 -34,0l-14 34c-13,35 -23,63 -29,85 -7,21 -10,36 -10,44 0,11 4,19 12,24 8,5 21,8 39,8l0 13c-11,-1 -24,-2 -38,-4 -15,-2 -31,-4 -50,-8 -20,4 -37,6 -51,8 -15,2 -28,3 -39,4l0 -13c15,0 27,-3 38,-7 10,-4 19,-10 26,-18 12,-13 44,-80 94,-200l14 -33 108 -257zm273 8c13,1 26,2 39,3 14,1 27,3 40,6 9,-3 16,-5 21,-6 5,-1 9,-2 12,-2 10,0 56,48 138,144 81,97 159,185 234,265l0 -126c0,-95 -1,-158 -3,-188 -3,-30 -7,-50 -13,-60 -4,-6 -10,-11 -18,-15 -8,-4 -19,-7 -34,-9l0 -12c11,1 23,2 37,4 13,2 29,4 47,8 18,-3 34,-6 46,-8 11,-1 22,-3 32,-4l0 12c-17,3 -29,6 -35,11 -7,5 -12,14 -15,27 -5,18 -8,51 -11,99 -2,48 -4,106 -4,171l0 177c0,0 1,4 1,11 1,7 1,13 1,20l-24 -3c-94,-113 -170,-201 -227,-266 -57,-64 -109,-120 -155,-169l0 155c0,65 0,116 2,151 2,36 5,60 9,74 3,11 10,20 20,27 11,6 25,10 43,11l0 12c-13,0 -26,-2 -41,-3 -15,-2 -31,-5 -48,-9 -20,4 -36,6 -49,8 -12,2 -24,3 -35,4l0 -12c27,0 45,-11 55,-31 9,-21 14,-74 14,-161l0 -36 0 -136c0,-58 -6,-94 -17,-109 -11,-14 -32,-22 -62,-23l0 -12zm841 83c-13,32 -27,66 -40,100 -14,35 -28,70 -41,106 18,1 35,1 51,1 17,0 32,0 45,0 17,0 30,0 39,0 9,0 17,0 25,-1 -12,-34 -25,-68 -38,-103 -13,-34 -27,-69 -41,-103zm10 -91l23 0 101 258c34,86 57,143 69,173 13,29 22,48 28,57 6,8 13,14 23,19 10,4 23,7 38,9l0 12c-14,-1 -29,-2 -45,-4 -16,-2 -35,-4 -57,-8 -20,4 -39,7 -56,9 -17,1 -33,3 -48,3l0 -13c18,0 32,-3 41,-8 8,-5 13,-12 13,-22 0,-7 -3,-20 -9,-41 -6,-20 -14,-45 -25,-75l-18 -49c-12,0 -29,0 -49,0 -19,-1 -32,-1 -37,-1 -9,0 -28,0 -57,1 -15,0 -26,0 -35,0l-13 34c-14,35 -23,63 -30,85 -6,21 -9,36 -9,44 0,11 4,19 11,24 8,5 21,8 40,8l0 13c-12,-1 -25,-2 -39,-4 -14,-2 -31,-4 -50,-8 -19,4 -37,6 -51,8 -14,2 -27,3 -39,4l0 -13c15,0 28,-3 38,-7 10,-4 19,-10 27,-18 12,-13 43,-80 94,-200l13 -33 108 -257zm738 16l12 5c-2,9 -5,17 -8,24 -3,8 -6,15 -10,22 0,3 0,11 1,23 0,11 1,20 1,27 0,2 0,6 -1,12 0,7 -1,16 -2,28l-14 0c-2,-46 -15,-81 -40,-104 -25,-23 -62,-35 -111,-35 -67,0 -118,22 -155,65 -37,43 -55,104 -55,182 0,78 21,139 62,184 42,45 98,67 169,67 19,0 37,-1 53,-4 15,-3 26,-7 34,-13 3,-2 5,-6 6,-11 2,-5 2,-15 2,-29l0 -11 0 -49c0,-36 -4,-59 -13,-68 -9,-10 -28,-16 -57,-18l0 -13c14,1 30,2 47,4 17,2 37,5 58,8 18,-3 34,-6 49,-8 16,-2 28,-3 38,-4l0 12c-21,2 -35,8 -42,18 -8,9 -11,35 -11,77l0 5 0 49c0,11 1,18 3,21 3,3 7,5 13,5l0 11c-32,12 -65,22 -99,28 -33,7 -66,10 -97,10 -91,0 -162,-24 -216,-72 -54,-48 -80,-111 -80,-191 0,-83 26,-149 79,-199 53,-49 125,-74 216,-74 32,0 66,4 100,12 34,8 52,12 54,12 4,0 7,-1 9,-2 2,-1 4,-3 5,-6zm107 -8c13,1 27,2 43,4 15,2 32,4 51,8 23,-4 50,-7 82,-9 32,-2 72,-3 122,-3 29,0 47,1 54,3 6,3 10,6 10,12 0,3 -1,6 -2,8 -2,3 -4,7 -9,11 2,13 3,24 4,33 1,8 1,16 1,23l0 21 -15 0c-2,-32 -11,-54 -25,-65 -15,-11 -46,-17 -94,-17l-81 0c-1,11 -1,23 -1,35 0,12 -1,29 -1,50l0 40 0 84 81 0c45,0 74,-3 84,-9 11,-5 18,-17 20,-34l14 0c0,9 -1,18 -3,28 -2,9 -5,18 -7,28 2,11 5,21 6,31 1,10 2,20 2,29l-15 0c-1,-18 -7,-31 -17,-37 -11,-7 -36,-10 -77,-10l-13 0 -75 0 0 118c0,54 5,85 14,94 9,10 33,15 72,15 62,0 104,-7 125,-21 21,-14 35,-41 42,-80l15 0c-1,18 -4,35 -7,49 -4,15 -8,28 -14,39 2,5 4,10 4,13 1,3 2,6 2,8 0,8 -4,14 -12,17 -7,3 -23,5 -47,5 -4,0 -13,-1 -27,-1 -13,0 -24,0 -33,0 -40,0 -74,-1 -102,-3 -29,-2 -54,-5 -75,-9 -16,3 -32,6 -48,8 -16,2 -32,3 -48,4l0 -12c28,-1 46,-8 56,-24 10,-15 14,-57 14,-125l0 -13c0,-1 0,-5 1,-13 0,-7 0,-14 0,-21l0 -104c0,-3 0,-10 0,-21 -1,-10 -1,-20 -1,-28 0,-67 -4,-108 -14,-123 -9,-15 -28,-23 -56,-24l0 -12zm468 0c13,1 26,2 40,3 13,1 27,3 42,6 1,-1 3,-1 6,-2 17,-5 29,-8 34,-8 5,0 9,2 13,6 3,4 8,12 15,26 36,76 71,146 103,209 33,64 64,122 94,176 38,-78 84,-175 137,-292 18,-40 31,-69 39,-85l2 -3c10,-22 20,-33 30,-33 3,0 7,1 12,2 4,1 10,2 16,4 14,-2 28,-4 40,-6 13,-1 24,-2 36,-3l0 12c-24,1 -39,6 -46,15 -7,8 -11,33 -11,75 0,16 0,28 0,36 0,8 1,16 1,22l6 181c3,77 9,124 17,141 9,17 26,26 50,26l3 0 0 12c-15,-1 -31,-2 -47,-4 -16,-2 -33,-4 -50,-7 -17,3 -33,5 -49,7 -16,2 -31,3 -45,4l-1 -12c23,0 38,-6 46,-17 8,-11 11,-37 11,-79 0,-25 0,-43 0,-53 0,-11 0,-20 0,-27l-4 -143c0,-4 0,-18 -2,-43 -1,-25 -2,-47 -3,-66 -45,94 -86,182 -122,261 -37,80 -63,140 -79,179l-14 0c-34,-73 -69,-146 -105,-218 -36,-73 -74,-145 -112,-217 -5,70 -8,134 -11,192 -2,58 -4,101 -4,128 0,44 5,72 14,84 10,12 28,18 56,19l0 12c-12,0 -26,-2 -41,-3 -14,-2 -30,-5 -47,-9 -14,3 -28,6 -43,7 -14,2 -29,4 -44,5l0 -12c20,-2 34,-6 43,-12 8,-6 14,-16 19,-32 2,-8 4,-20 6,-34 2,-14 4,-37 6,-70 5,-59 9,-108 11,-147 2,-39 3,-71 3,-94l0 -13c0,-42 -4,-68 -13,-77 -9,-9 -28,-15 -58,-17l0 -12zm725 0c13,1 27,2 43,4 15,2 32,4 51,8 23,-4 50,-7 82,-9 32,-2 72,-3 122,-3 29,0 47,1 54,3 6,3 10,6 10,12 0,3 -1,6 -2,8 -1,3 -4,7 -9,11 2,13 3,24 4,33 1,8 1,16 1,23l0 21 -15 0c-2,-32 -11,-54 -25,-65 -15,-11 -46,-17 -94,-17l-81 0c0,11 -1,23 -1,35 0,12 0,29 0,50l0 40 0 84 80 0c46,0 74,-3 85,-9 10,-5 17,-17 19,-34l14 0c0,9 -1,18 -3,28 -2,9 -4,18 -7,28 3,11 5,21 6,31 2,10 2,20 2,29l-15 0c-1,-18 -7,-31 -17,-37 -11,-7 -36,-10 -77,-10l-13 0 -74 0 0 118c0,54 4,85 13,94 9,10 33,15 72,15 63,0 104,-7 125,-21 21,-14 35,-41 43,-80l15 0c-2,18 -4,35 -8,49 -4,15 -8,28 -14,39 2,5 4,10 5,13 0,3 1,6 1,8 0,8 -4,14 -12,17 -7,3 -23,5 -47,5 -4,0 -13,-1 -27,-1 -13,0 -24,0 -33,0 -40,0 -74,-1 -102,-3 -28,-2 -53,-5 -75,-9 -16,3 -32,6 -48,8 -16,2 -32,3 -48,4l0 -12c28,-1 46,-8 56,-24 10,-15 14,-57 14,-125l0 -13c0,-1 1,-5 1,-13 0,-7 0,-14 0,-21l0 -104c0,-3 0,-10 0,-21 0,-10 -1,-20 -1,-28 0,-67 -4,-108 -14,-123 -9,-15 -28,-23 -56,-24l0 -12zm448 0c13,1 26,2 39,3 14,1 27,3 40,6 9,-3 16,-5 21,-6 5,-1 9,-2 12,-2 10,0 56,48 138,144 81,97 159,185 234,265l0 -126c0,-95 -1,-158 -3,-188 -3,-30 -7,-50 -13,-60 -4,-6 -10,-11 -18,-15 -8,-4 -19,-7 -34,-9l0 -12c11,1 23,2 37,4 13,2 29,4 47,8 18,-3 34,-6 46,-8 11,-1 22,-3 32,-4l0 12c-17,3 -29,6 -35,11 -7,5 -12,14 -15,27 -5,18 -8,51 -11,99 -2,48 -4,106 -4,171l0 177c0,0 1,4 1,11 1,7 1,13 1,20l-24 -3c-94,-113 -170,-201 -227,-266 -57,-64 -109,-120 -155,-169l0 155c0,65 0,116 2,151 2,36 5,60 9,74 3,11 10,20 20,27 11,6 25,10 43,11l0 12c-13,0 -26,-2 -41,-3 -15,-2 -31,-5 -48,-9 -20,4 -36,6 -49,8 -12,2 -24,3 -35,4l0 -12c27,0 45,-11 55,-31 9,-21 14,-74 14,-161l0 -36 0 -136c0,-58 -6,-94 -17,-109 -11,-14 -32,-22 -62,-23l0 -12z"/>
   <path class="fil1" d="M16060 9503l15 0 0 2c0,5 4,8 13,10 10,2 31,3 65,3l33 0 106 0 106 0 34 0c34,0 55,-1 65,-3 9,-2 13,-5 13,-10l0 -2 15 0c0,8 -1,16 -1,24 -1,8 -2,16 -4,24 5,15 9,29 11,43 2,13 4,25 4,37l-16 0c-8,-57 -57,-87 -148,-90 -2,0 -3,0 -3,-1l-38 1c-1,27 -2,55 -3,85 -1,29 -1,63 -1,100l0 130c0,48 1,81 3,100 2,19 5,33 9,43 5,8 12,15 24,19 11,4 26,7 46,8l0 12c-17,0 -35,-2 -53,-3 -20,-2 -40,-5 -63,-9 -23,4 -44,7 -63,9 -19,1 -37,3 -53,3l0 -12c20,-1 36,-4 47,-8 12,-4 19,-11 23,-19 4,-10 7,-24 9,-42 2,-19 3,-52 3,-100l0 -26 0 -105c0,-52 0,-91 -1,-116 -1,-25 -2,-48 -3,-69l-37 -1c-65,0 -105,6 -120,18 -16,11 -26,35 -31,73l-17 0c1,-13 2,-26 5,-39 2,-13 6,-27 10,-40 -1,-7 -2,-15 -3,-22 0,-8 -1,-17 -1,-27zm708 15c14,1 29,2 46,4 16,2 35,4 58,8 27,-4 48,-7 62,-8 14,-2 27,-3 38,-4l1 12c-16,2 -28,5 -37,10 -9,5 -15,11 -18,19 -4,11 -8,30 -10,59 -2,28 -3,65 -3,113 0,58 3,102 7,134 5,32 12,57 22,74 13,24 31,42 54,54 23,12 50,18 81,18 62,0 106,-20 132,-58 26,-39 39,-106 39,-201l0 -83c0,-59 -4,-96 -14,-112 -10,-16 -29,-25 -58,-27l0 -12c15,1 29,2 44,4 14,2 28,5 43,8 15,-4 29,-6 43,-8 14,-2 27,-3 39,-4l0 12c-26,2 -44,9 -52,24 -9,14 -13,52 -13,115l0 28 0 62c0,100 -18,173 -53,219 -35,45 -90,68 -165,68 -45,0 -82,-7 -113,-20 -31,-14 -55,-34 -71,-61 -11,-19 -20,-43 -25,-70 -5,-27 -7,-65 -7,-113l0 -119c0,-58 -5,-95 -14,-109 -10,-14 -29,-22 -56,-24l0 -12zm1106 0l0 12c-42,1 -93,33 -155,96l-1 1 -107 110 97 133c44,61 81,102 111,124 29,22 60,32 94,32 1,0 3,0 6,0 3,0 5,0 6,0l0 12c-15,2 -29,4 -41,5 -13,1 -23,2 -32,2 -30,0 -55,-4 -76,-13 -21,-9 -40,-24 -58,-44 -13,-14 -39,-48 -78,-100 -38,-52 -69,-92 -92,-122l187 -214c11,-13 19,-22 24,-26 5,-4 10,-6 14,-6 3,0 7,1 11,2 4,1 9,3 14,6 15,-4 28,-6 41,-7 12,-2 24,-3 35,-3zm-497 0c14,1 30,2 47,4 16,2 36,4 59,8 26,-4 46,-7 60,-8 14,-2 26,-3 37,-4l0 12c-24,2 -41,11 -50,27 -9,15 -13,50 -13,105l0 64 0 165c0,58 5,95 14,110 10,16 29,24 56,25l0 12c-14,-1 -30,-2 -46,-4 -17,-2 -36,-4 -58,-8 -22,4 -41,6 -58,8 -17,2 -33,3 -48,4l0 -12c28,-1 47,-9 57,-25 10,-15 14,-53 14,-114l0 -57 0 -160c0,-61 -4,-99 -14,-115 -10,-15 -29,-24 -57,-25l0 -12z"/>
  </g>
 </g>
</svg>
