<svg xmlns="http://www.w3.org/2000/svg" xmlns:xlink="http://www.w3.org/1999/xlink" viewBox="0 0 300 188"><defs><style>.cls-1{fill:none;stroke:#333e48;stroke-linecap:round;stroke-linejoin:round;stroke-width:4px;}.cls-2{fill:url(#linear-gradient);}.cls-3{fill:#fff;}</style><linearGradient id="linear-gradient" x1="830.63" y1="2958.51" x2="830.63" y2="2957.51" gradientTransform="matrix(38.96, 0, 0, -41.2, -32224.15, 121901.45)" gradientUnits="userSpaceOnUse"><stop offset="0" stop-color="#ff5100"/><stop offset="0.56" stop-color="#ff5700"/><stop offset="1" stop-color="#ffb600"/></linearGradient></defs><title>i-contact-support</title><g id="Layer_1" data-name="Layer 1"><g id="Group_78175" data-name="Group 78175"><g id="Group_78173" data-name="Group 78173"><path id="Path_6328" data-name="Path 6328" class="cls-1" d="M144.79,121.17A18.79,18.79,0,1,0,126,140,18.78,18.78,0,0,0,144.79,121.17Z"/><path id="Path_6329" data-name="Path 6329" class="cls-1" d="M162.33,111.76h0l11,1.57a47.49,47.49,0,0,1,0,15.69l-11,1.58h0a37.5,37.5,0,0,1-4,9.6l6.67,8.9a48.32,48.32,0,0,1-11.1,11.1l-8.9-6.68h0a37.24,37.24,0,0,1-9.61,4h0l-1.58,11a47.49,47.49,0,0,1-15.69,0l-1.57-11h0a37.31,37.31,0,0,1-9.62-4h0l-8.9,6.68A48.28,48.28,0,0,1,87,149.1l6.68-8.9a37.18,37.18,0,0,1-4-9.6h0l-11-1.58a48,48,0,0,1,0-15.69l11-1.57h0a37.31,37.31,0,0,1,4-9.62L87,93.24a48.28,48.28,0,0,1,11.09-11.1l8.9,6.68a37.39,37.39,0,0,1,9.61-4h0l1.58-11a48,48,0,0,1,15.69,0l1.57,11h0a37.31,37.31,0,0,1,9.62,4l8.9-6.68A48.32,48.32,0,0,1,165,93.24l-6.68,8.9A37.31,37.31,0,0,1,162.33,111.76Z"/></g><g id="Group_78174" data-name="Group 78174"><path id="Path_6330" data-name="Path 6330" class="cls-1" d="M215.54,51.91a24.24,24.24,0,0,1,0,10.52h0L222,67.5a31.84,31.84,0,0,1-6.19,10.71l-7.64-3.06a24.37,24.37,0,0,1-9.09,5.27h0l-1.16,8.14a31.74,31.74,0,0,1-12.36,0l-1.17-8.14h0a24.33,24.33,0,0,1-9.08-5.27l-7.64,3.06a31.86,31.86,0,0,1-6.2-10.71l6.47-5.07h0a23.94,23.94,0,0,1,0-10.52h0l-6.47-5.07a31.86,31.86,0,0,1,6.2-10.71l7.64,3.07h0a24.39,24.39,0,0,1,9.09-5.28h0l1.16-8.14a31.74,31.74,0,0,1,12.36,0l1.17,8.14h0a24.47,24.47,0,0,1,9.09,5.28h0l7.63-3.07A31.86,31.86,0,0,1,222,46.84l-6.47,5.08Z"/><path id="Path_6331" data-name="Path 6331" class="cls-1" d="M203.93,57.17a12.19,12.19,0,1,0-12.19,12.19h0A12.18,12.18,0,0,0,203.93,57.17Z"/></g><g id="Group_78176" data-name="Group 78176"><path id="Path_6330-2" data-name="Path 6330-2" class="cls-2" d="M149.27,33.19a15.51,15.51,0,0,1,0,6.78h0l4.16,3.27a20.6,20.6,0,0,1-4,6.89l-4.92-2a15.8,15.8,0,0,1-5.85,3.4h0l-.75,5.24a20.45,20.45,0,0,1-8,0l-.75-5.24h0a15.8,15.8,0,0,1-5.85-3.4l-4.92,2a20.77,20.77,0,0,1-4-6.89L118.64,40h0a15.51,15.51,0,0,1,0-6.78h0l-4.16-3.26a20.57,20.57,0,0,1,4-6.89l4.92,2h0a15.6,15.6,0,0,1,5.85-3.4h0l.75-5.24a20.5,20.5,0,0,1,8,0l.75,5.24h0a15.49,15.49,0,0,1,5.84,3.4h0l4.92-2a20.4,20.4,0,0,1,4,6.89l-4.16,3.27Z"/><path id="Path_6331-2" data-name="Path 6331-2" class="cls-3" d="M141.8,36.58A7.85,7.85,0,1,0,134,44.42h0A7.84,7.84,0,0,0,141.8,36.58Z"/></g></g></g></svg>