<svg width="100" height="100" xmlns="http://www.w3.org/2000/svg" xmlns:xlink="http://www.w3.org/1999/xlink"><defs><path id="a" d="M0 50C0 22.376 22.376 0 50 0s50 22.376 50 50-22.376 50-50 50S0 77.624 0 50z"/></defs><g fill="none" fill-rule="evenodd"><mask id="b" fill="#fff"><use xlink:href="#a"/></mask><use fill="#DFD9D2" xlink:href="#a"/><g mask="url(#b)" fill="#FFF"><path d="M60.47 39.2c0-5.691-4.592-10.296-10.278-10.296-5.686 0-10.277 4.605-10.277 10.297v4.703h-1.871a3.868 3.868 0 0 0-3.852 3.851V66.33c0 2.13 1.733 3.87 3.852 3.87H62.34c2.119 0 3.851-1.74 3.851-3.87V47.755a3.868 3.868 0 0 0-3.851-3.851h-1.87V39.2zm-9.731 22.838a.571.571 0 0 1-.547.547.571.571 0 0 1-.546-.547v-4.321l-.664-.237c-1.4-.5-2.387-1.866-2.387-3.363 0-1.997 1.6-3.597 3.597-3.597 1.997 0 3.597 1.6 3.597 3.597 0 1.497-.986 2.863-2.387 3.363l-.663.237v4.321zm6.305-18.134H43.34V39.2c0-3.8 3.065-6.871 6.851-6.871 3.787 0 6.852 3.07 6.852 6.87v4.704z"/></g></g></svg>