<svg height="512" viewBox="0 0 64 64" width="512" xmlns="http://www.w3.org/2000/svg"><g id="Calendar-Smartphone-Date-Time-Technology"><path d="m46 2h-28a6.006 6.006 0 0 0 -6 6v48a6.006 6.006 0 0 0 6 6h28a6.006 6.006 0 0 0 6-6v-48a6.006 6.006 0 0 0 -6-6zm4 54a4 4 0 0 1 -4 4h-28a4 4 0 0 1 -4-4v-48a4 4 0 0 1 4-4h28a4 4 0 0 1 4 4z"/><path d="m34 52h-4a3 3 0 0 0 0 6h4a3 3 0 0 0 0-6zm0 4h-4a1 1 0 0 1 0-2h4a1 1 0 0 1 0 2z"/><path d="m25 6h2v2h-2z"/><path d="m29 6h6v2h-6z"/><path d="m42 20h-3v-1h-2v1h-2v-1h-2v1h-2v-1h-2v1h-2v-1h-2v1h-3a3 3 0 0 0 -3 3v16a3 3 0 0 0 3 3h20a3 3 0 0 0 3-3v-16a3 3 0 0 0 -3-3zm-20 2h3v1h2v-1h2v1h2v-1h2v1h2v-1h2v1h2v-1h3a1 1 0 0 1 1 1v2h-22v-2a1 1 0 0 1 1-1zm15 5v3h-4v-3zm-6 3h-4v-3h4zm-6 0h-4v-3h4zm0 2v3h-4v-3zm2 0h4v3h-4zm4 5v3h-4v-3zm2 0h4v3h-4zm0-2v-3h4v3zm6-3h4v3h-4zm0-2v-3h4v3zm-18 9v-2h4v3h-3a1 1 0 0 1 -1-1zm21 1h-3v-3h4v2a1 1 0 0 1 -1 1z"/></g></svg>